<?xml version="1.0"?>
<svg xmlns="http://www.w3.org/2000/svg" height="512px" viewBox="0 0 480 480" width="512px" class=""><g><path d="m88 200v-96h-80v368h464v-80h-192c-106.039062 0-192-85.960938-192-192zm0 0" fill="#cff09e" data-original="#CFF09E" class="" style="fill:#BA95F4" data-old_color="#cff09e"/><path d="m8 8h464v96h-464zm0 0" fill="#a8dba8" data-original="#A8DBA8" class="active-path" style="fill:#976CEA" data-old_color="#a8dba8"/><path d="m240 40h200v32h-200zm0 0" fill="#79bd9a" data-original="#79BD9A" class="" style="fill:#7327CC" data-old_color="#79bd9a"/><path d="m72 56c0 8.835938-7.164062 16-16 16s-16-7.164062-16-16 7.164062-16 16-16 16 7.164062 16 16zm0 0" fill="#cff09e" data-original="#CFF09E" class="" style="fill:#BA95F4" data-old_color="#cff09e"/><path d="m136 56c0 8.835938-7.164062 16-16 16s-16-7.164062-16-16 7.164062-16 16-16 16 7.164062 16 16zm0 0" fill="#cff09e" data-original="#CFF09E" class="" style="fill:#BA95F4" data-old_color="#cff09e"/><path d="m200 56c0 8.835938-7.164062 16-16 16s-16-7.164062-16-16 7.164062-16 16-16 16 7.164062 16 16zm0 0" fill="#cff09e" data-original="#CFF09E" class="" style="fill:#BA95F4" data-old_color="#cff09e"/><path d="m241.121094 309.519531-22.640625-22.640625c-12.492188-12.460937-32.710938-12.460937-45.199219 0l-56.5625 56.5625c-6.007812 6-9.382812 14.144532-9.382812 22.636719 0 8.496094 3.375 16.640625 9.382812 22.640625l22.5625 22.5625c6 6.007812 14.144531 9.382812 22.640625 9.382812 8.492187 0 16.636719-3.375 22.636719-9.382812l56.5625-56.5625c12.460937-12.488281 12.460937-32.707031 0-45.199219zm-79.199219 79.199219-22.640625-22.640625 56.640625-56.558594 22.558594 22.558594zm0 0" fill="#79bd9a" data-original="#79BD9A" class="" style="fill:#7327CC" data-old_color="#79bd9a"/><path d="m365.601562 185.039062-22.640624-22.640624c-6.003907-6.007813-14.148438-9.382813-22.640626-9.382813-8.492187 0-16.636718 3.375-22.640624 9.382813l-56.558594 56.5625c-6.011719 6-9.386719 14.144531-9.386719 22.640624 0 8.492188 3.375 16.636719 9.386719 22.636719l22.878906 22.640625c6.003906 6.011719 14.148438 9.386719 22.640625 9.386719s16.636719-3.375 22.640625-9.386719l56.558594-56.558594c5.976562-6.035156 9.308594-14.195312 9.265625-22.691406-.046875-8.492187-3.464844-16.617187-9.503907-22.589844zm-79.203124 78.960938-22.398438-22.398438 56-56.5625 22.960938 22.960938zm0 0" fill="#79bd9a" data-original="#79BD9A" class="" style="fill:#7327CC" data-old_color="#79bd9a"/><path d="m432 384c0 26.507812-21.492188 48-48 48s-48-21.492188-48-48 21.492188-48 48-48 48 21.492188 48 48zm0 0" fill="#a8dba8" data-original="#A8DBA8" class="active-path" style="fill:#976CEA" data-old_color="#a8dba8"/><path d="m56 144h128v48h-128zm0 0" fill="#a8dba8" data-original="#A8DBA8" class="active-path" style="fill:#976CEA" data-old_color="#a8dba8"/><path d="m289.289062 238.804688c6.25 6.25 6.25 16.378906 0 22.628906l-67.878906 67.882812c-6.25 6.246094-16.382812 6.246094-22.628906 0-6.25-6.25-6.25-16.378906 0-22.628906l67.882812-67.882812c6.246094-6.25 16.378907-6.25 22.625 0zm0 0" fill="#a8dba8" data-original="#A8DBA8" class="active-path" style="fill:#976CEA" data-old_color="#a8dba8"/><g fill="#3b8686"><path d="m382.960938 208c.019531-10.617188-4.183594-20.804688-11.679688-28.320312l-22.640625-22.640626c-15.621094-15.613281-40.941406-15.613281-56.5625 0l-56.558594 56.640626c-13.441406 13.429687-15.582031 34.460937-5.121093 50.320312l-12.476563 12.480469c-15.84375-10.480469-36.875-8.375-50.320313 5.039062l-56.5625 56.558594c-15.613281 15.621094-15.613281 40.941406 0 56.5625l22.640626 22.640625c15.621093 15.613281 40.941406 15.613281 56.558593 0l56.5625-56.5625c13.414063-13.449219 15.519531-34.476562 5.039063-50.320312l12.160156-12.796876c6.667969 4.308594 14.464844 6.535157 22.398438 6.398438 10.601562-.023438 20.757812-4.253906 28.242187-11.761719l56.640625-56.558593c7.339844-7.359376 11.53125-17.285157 11.679688-27.679688zm-83.441407 32c-1.152343-2.488281-2.71875-4.761719-4.640625-6.71875-1.96875-1.921875-4.273437-3.46875-6.800781-4.5625l32-32 11.601563 11.28125zm-64 64-19.519531 19.679688c-3.226562 3.203124-8.4375 3.1875-11.640625-.039063s-3.183594-8.4375.039063-11.640625l67.601562-67.601562c1.507812-1.496094 3.554688-2.332032 5.679688-2.320313 4.417968 0 8 3.582031 8 8 .011718 2.128906-.820313 4.171875-2.320313 5.683594zm-47.039062 24c1.113281 2.488281 2.65625 4.765625 4.558593 6.71875 1.976563 1.902344 4.246094 3.46875 6.722657 4.640625l-37.839844 37.761719-11.28125-11.28125zm47.039062 20.878906-56.640625 56.5625c-9.367187 9.355469-24.546875 9.355469-33.917968 0l-22.640626-22.640625c-9.359374-9.371093-9.359374-24.550781 0-33.921875l56.558594-56.640625c4.511719-4.472656 10.609375-6.972656 16.960938-6.957031 3.597656-.035156 7.15625.761719 10.398437 2.320312l-13.199219 13.199219c-.59375.554688-1.128906 1.171875-1.597656 1.839844-.46875.226563-.878906.554687-1.203125.960937l-56.558593 56.558594c-1.527344 1.496094-2.390626 3.542969-2.398438 5.679688.027344 2.109375.890625 4.125 2.398438 5.601562l22.640624 22.636719c3.121094 3.105469 8.160157 3.105469 11.28125 0l56.398438-56.316406.960938-1.121094c.648437-.519531 1.265624-1.078125 1.839843-1.679687l13.199219-13.199219c4.457031 9.144531 2.664062 20.109375-4.480469 27.359375zm124.480469-124.238281-56.558594 56.558594c-7.179687 7.1875-18.105468 9.078125-27.28125 4.722656l72.558594-72.5625c1.464844-1.53125 2.292969-3.5625 2.320312-5.679687.011719-2.125-.820312-4.171876-2.320312-5.679688l-22.640625-22.640625c-1.5-1.515625-3.546875-2.367187-5.679687-2.367187-2.132813 0-4.175782.851562-5.679688 2.367187l-72.558594 72.5625c-4.359375-9.179687-2.46875-20.105469 4.71875-27.28125l56.480469-56.640625c9.492187-9.0625 24.429687-9.0625 33.921875 0l22.71875 22.71875c9.359375 9.371094 9.359375 24.550781 0 33.921875zm0 0" data-original="#3B8686" class="" style="fill:#6221B2" data-old_color="#3B8686"/><path d="m400 376h-8v-8c0-4.417969-3.582031-8-8-8s-8 3.582031-8 8v8h-8c-4.417969 0-8 3.582031-8 8s3.582031 8 8 8h8v8c0 4.417969 3.582031 8 8 8s8-3.582031 8-8v-8h8c4.417969 0 8-3.582031 8-8s-3.582031-8-8-8zm0 0" data-original="#3B8686" class="" style="fill:#6221B2" data-old_color="#3B8686"/><path d="m56 200h128c4.417969 0 8-3.582031 8-8v-48c0-4.417969-3.582031-8-8-8h-128c-4.417969 0-8 3.582031-8 8v48c0 4.417969 3.582031 8 8 8zm8-48h112v32h-112zm0 0" data-original="#3B8686" class="" style="fill:#6221B2" data-old_color="#3B8686"/><path d="m56 232h80c4.417969 0 8-3.582031 8-8s-3.582031-8-8-8h-80c-4.417969 0-8 3.582031-8 8s3.582031 8 8 8zm0 0" data-original="#3B8686" class="" style="fill:#6221B2" data-old_color="#3B8686"/><path d="m112 256c0-4.417969-3.582031-8-8-8h-48c-4.417969 0-8 3.582031-8 8s3.582031 8 8 8h48c4.417969 0 8-3.582031 8-8zm0 0" data-original="#3B8686" class="" style="fill:#6221B2" data-old_color="#3B8686"/><path d="m472 0h-464c-4.417969 0-8 3.582031-8 8v464c0 4.417969 3.582031 8 8 8h464c4.417969 0 8-3.582031 8-8v-464c0-4.417969-3.582031-8-8-8zm-456 16h448v80h-448zm0 448v-352h448v352zm0 0" data-original="#3B8686" class="" style="fill:#6221B2" data-old_color="#3B8686"/><path d="m440 32h-200c-4.417969 0-8 3.582031-8 8v32c0 4.417969 3.582031 8 8 8h200c4.417969 0 8-3.582031 8-8v-32c0-4.417969-3.582031-8-8-8zm-8 32h-184v-16h184zm0 0" data-original="#3B8686" class="" style="fill:#6221B2" data-old_color="#3B8686"/><path d="m56 32c-13.253906 0-24 10.746094-24 24s10.746094 24 24 24 24-10.746094 24-24-10.746094-24-24-24zm0 32c-4.417969 0-8-3.582031-8-8s3.582031-8 8-8 8 3.582031 8 8-3.582031 8-8 8zm0 0" data-original="#3B8686" class="" style="fill:#6221B2" data-old_color="#3B8686"/><path d="m184 32c-13.253906 0-24 10.746094-24 24s10.746094 24 24 24 24-10.746094 24-24-10.746094-24-24-24zm0 32c-4.417969 0-8-3.582031-8-8s3.582031-8 8-8 8 3.582031 8 8-3.582031 8-8 8zm0 0" data-original="#3B8686" class="" style="fill:#6221B2" data-old_color="#3B8686"/><path d="m120 32c-13.253906 0-24 10.746094-24 24s10.746094 24 24 24 24-10.746094 24-24-10.746094-24-24-24zm0 32c-4.417969 0-8-3.582031-8-8s3.582031-8 8-8 8 3.582031 8 8-3.582031 8-8 8zm0 0" data-original="#3B8686" class="" style="fill:#6221B2" data-old_color="#3B8686"/><path d="m384 328c-30.929688 0-56 25.070312-56 56s25.070312 56 56 56 56-25.070312 56-56-25.070312-56-56-56zm0 96c-22.089844 0-40-17.910156-40-40s17.910156-40 40-40 40 17.910156 40 40-17.910156 40-40 40zm0 0" data-original="#3B8686" class="" style="fill:#6221B2" data-old_color="#3B8686"/></g></g> </svg>
