<?xml version="1.0"?>
<svg xmlns="http://www.w3.org/2000/svg" height="512px" viewBox="0 0 480 480" width="512px" class=""><g><path d="m88 200v-96h-80v368h464v-80h-192c-106.039062 0-192-85.960938-192-192zm0 0" fill="#cff09e" data-original="#CFF09E" class="active-path" style="fill:#BA95F4" data-old_color="#cff09e"/><path d="m8 8h464v96h-464zm0 0" fill="#a8dba8" data-original="#A8DBA8" class="" style="fill:#976CEA" data-old_color="#a8dba8"/><path d="m240 40h200v32h-200zm0 0" fill="#79bd9a" data-original="#79BD9A" class="" style="fill:#7327CC" data-old_color="#79bd9a"/><path d="m72 56c0 8.835938-7.164062 16-16 16s-16-7.164062-16-16 7.164062-16 16-16 16 7.164062 16 16zm0 0" fill="#cff09e" data-original="#CFF09E" class="active-path" style="fill:#BA95F4" data-old_color="#cff09e"/><path d="m136 56c0 8.835938-7.164062 16-16 16s-16-7.164062-16-16 7.164062-16 16-16 16 7.164062 16 16zm0 0" fill="#cff09e" data-original="#CFF09E" class="active-path" style="fill:#BA95F4" data-old_color="#cff09e"/><path d="m200 56c0 8.835938-7.164062 16-16 16s-16-7.164062-16-16 7.164062-16 16-16 16 7.164062 16 16zm0 0" fill="#cff09e" data-original="#CFF09E" class="active-path" style="fill:#BA95F4" data-old_color="#cff09e"/><path d="m272 256c0 17.671875-14.328125 32-32 32s-32-14.328125-32-32 14.328125-32 32-32 32 14.328125 32 32zm0 0" fill="#a8dba8" data-original="#A8DBA8" class="" style="fill:#976CEA" data-old_color="#a8dba8"/><path d="m224 288h32c17.671875 0 32 14.328125 32 32v32h-96v-32c0-17.671875 14.328125-32 32-32zm0 0" fill="#a8dba8" data-original="#A8DBA8" class="" style="fill:#976CEA" data-old_color="#a8dba8"/><g fill="#3b8686"><path d="m392 144h-56c-4.417969 0-8 3.582031-8 8s3.582031 8 8 8h48v48c0 4.417969 3.582031 8 8 8s8-3.582031 8-8v-56c0-4.417969-3.582031-8-8-8zm0 0" data-original="#3B8686" class="" style="fill:#6221B2" data-old_color="#3B8686"/><path d="m88 216c4.417969 0 8-3.582031 8-8v-48h48c4.417969 0 8-3.582031 8-8s-3.582031-8-8-8h-56c-4.417969 0-8 3.582031-8 8v56c0 4.417969 3.582031 8 8 8zm0 0" data-original="#3B8686" class="" style="fill:#6221B2" data-old_color="#3B8686"/><path d="m392 360c-4.417969 0-8 3.582031-8 8v48h-48c-4.417969 0-8 3.582031-8 8s3.582031 8 8 8h56c4.417969 0 8-3.582031 8-8v-56c0-4.417969-3.582031-8-8-8zm0 0" data-original="#3B8686" class="" style="fill:#6221B2" data-old_color="#3B8686"/><path d="m144 416h-48v-48c0-4.417969-3.582031-8-8-8s-8 3.582031-8 8v56c0 4.417969 3.582031 8 8 8h56c4.417969 0 8-3.582031 8-8s-3.582031-8-8-8zm0 0" data-original="#3B8686" class="" style="fill:#6221B2" data-old_color="#3B8686"/><path d="m296 352v-32c-.0625-16.761719-10.570312-31.707031-26.320312-37.441406 14.457031-16 13.628906-40.582032-1.878907-55.574219-15.503906-14.988281-40.097656-14.988281-55.601562 0-15.507813 14.992187-16.335938 39.574219-1.878907 55.574219-15.75 5.734375-26.257812 20.679687-26.320312 37.441406v32c0 4.417969 3.582031 8 8 8h96c4.417969 0 8-3.582031 8-8zm-56-120c13.253906 0 24 10.746094 24 24s-10.746094 24-24 24-24-10.746094-24-24 10.746094-24 24-24zm40 112h-80v-24c0-13.253906 10.746094-24 24-24h32c13.253906 0 24 10.746094 24 24zm0 0" data-original="#3B8686" class="" style="fill:#6221B2" data-old_color="#3B8686"/><path d="m368 296h16c4.417969 0 8-3.582031 8-8s-3.582031-8-8-8h-16c-4.117188-64.421875-55.5625-115.695312-120-119.601562v-16.398438c0-4.417969-3.582031-8-8-8s-8 3.582031-8 8v16.398438c-64.28125 4.097656-115.503906 55.320312-119.601562 119.601562h-16.398438c-4.417969 0-8 3.582031-8 8s3.582031 8 8 8h16.398438c3.90625 64.4375 55.179687 115.882812 119.601562 120v16c0 4.417969 3.582031 8 8 8s8-3.582031 8-8v-16c64.578125-3.925781 116.074219-55.421875 120-120zm-239.199219 0h15.199219c4.417969 0 8-3.582031 8-8s-3.582031-8-8-8h-15.601562c4.027343-55.464844 48.136718-99.574219 103.601562-103.601562v15.601562c0 4.417969 3.582031 8 8 8s8-3.582031 8-8v-15.601562c55.621094 3.835937 99.949219 47.996093 104 103.601562h-16c-4.417969 0-8 3.582031-8 8s3.582031 8 8 8h16c-3.859375 55.761719-48.238281 100.140625-104 104v-16c0-4.417969-3.582031-8-8-8s-8 3.582031-8 8v16c-55.605469-4.050781-99.765625-48.378906-103.601562-104zm0 0" data-original="#3B8686" class="" style="fill:#6221B2" data-old_color="#3B8686"/><path d="m472 0h-464c-4.417969 0-8 3.582031-8 8v464c0 4.417969 3.582031 8 8 8h464c4.417969 0 8-3.582031 8-8v-464c0-4.417969-3.582031-8-8-8zm-456 16h448v80h-448zm0 448v-352h448v352zm0 0" data-original="#3B8686" class="" style="fill:#6221B2" data-old_color="#3B8686"/><path d="m440 32h-200c-4.417969 0-8 3.582031-8 8v32c0 4.417969 3.582031 8 8 8h200c4.417969 0 8-3.582031 8-8v-32c0-4.417969-3.582031-8-8-8zm-8 32h-184v-16h184zm0 0" data-original="#3B8686" class="" style="fill:#6221B2" data-old_color="#3B8686"/><path d="m56 32c-13.253906 0-24 10.746094-24 24s10.746094 24 24 24 24-10.746094 24-24-10.746094-24-24-24zm0 32c-4.417969 0-8-3.582031-8-8s3.582031-8 8-8 8 3.582031 8 8-3.582031 8-8 8zm0 0" data-original="#3B8686" class="" style="fill:#6221B2" data-old_color="#3B8686"/><path d="m184 32c-13.253906 0-24 10.746094-24 24s10.746094 24 24 24 24-10.746094 24-24-10.746094-24-24-24zm0 32c-4.417969 0-8-3.582031-8-8s3.582031-8 8-8 8 3.582031 8 8-3.582031 8-8 8zm0 0" data-original="#3B8686" class="" style="fill:#6221B2" data-old_color="#3B8686"/><path d="m120 32c-13.253906 0-24 10.746094-24 24s10.746094 24 24 24 24-10.746094 24-24-10.746094-24-24-24zm0 32c-4.417969 0-8-3.582031-8-8s3.582031-8 8-8 8 3.582031 8 8-3.582031 8-8 8zm0 0" data-original="#3B8686" class="" style="fill:#6221B2" data-old_color="#3B8686"/></g></g> </svg>
