<?xml version="1.0"?>
<svg xmlns="http://www.w3.org/2000/svg" height="512px" viewBox="0 0 480 480" width="512px" class="hovered-paths"><g><path d="m88 200v-96h-80v368h464v-80h-192c-106.039062 0-192-85.960938-192-192zm0 0" fill="#cff09e" data-original="#CFF09E" class="hovered-path active-path" style="fill:#BA95F4" data-old_color="#cff09e"/><path d="m8 8h464v96h-464zm0 0" fill="#a8dba8" data-original="#A8DBA8" class="" style="fill:#976CEA" data-old_color="#a8dba8"/><path d="m240 40h200v32h-200zm0 0" fill="#79bd9a" data-original="#79BD9A" class="" style="fill:#7327CC" data-old_color="#79bd9a"/><path d="m72 56c0 8.835938-7.164062 16-16 16s-16-7.164062-16-16 7.164062-16 16-16 16 7.164062 16 16zm0 0" fill="#cff09e" data-original="#CFF09E" class="hovered-path active-path" style="fill:#BA95F4" data-old_color="#cff09e"/><path d="m136 56c0 8.835938-7.164062 16-16 16s-16-7.164062-16-16 7.164062-16 16-16 16 7.164062 16 16zm0 0" fill="#cff09e" data-original="#CFF09E" class="hovered-path active-path" style="fill:#BA95F4" data-old_color="#cff09e"/><path d="m200 56c0 8.835938-7.164062 16-16 16s-16-7.164062-16-16 7.164062-16 16-16 16 7.164062 16 16zm0 0" fill="#cff09e" data-original="#CFF09E" class="hovered-path active-path" style="fill:#BA95F4" data-old_color="#cff09e"/><path d="m264 312h48v112h-48zm0 0" fill="#a8dba8" data-original="#A8DBA8" class="" style="fill:#976CEA" data-old_color="#a8dba8"/><path d="m360 264h48v160h-48zm0 0" fill="#a8dba8" data-original="#A8DBA8" class="" style="fill:#976CEA" data-old_color="#a8dba8"/><path d="m72 376h48v48h-48zm0 0" fill="#a8dba8" data-original="#A8DBA8" class="" style="fill:#976CEA" data-old_color="#a8dba8"/><path d="m168 344h48v80h-48zm0 0" fill="#a8dba8" data-original="#A8DBA8" class="" style="fill:#976CEA" data-old_color="#a8dba8"/><path d="m152 152.398438c-21.929688-21.703126-57.28125-21.582032-79.058594.269531-21.78125 21.855469-21.78125 57.207031 0 79.0625 21.777344 21.855469 57.128906 21.972656 79.058594.269531l-40-40zm0 0" fill="#79bd9a" data-original="#79BD9A" class="" style="fill:#7327CC" data-old_color="#79bd9a"/><path d="m192 152.398438-40 39.601562 40 40c10.625-10.519531 16.605469-24.847656 16.605469-39.800781 0-14.949219-5.980469-29.28125-16.605469-39.800781zm0 0" fill="#a8dba8" data-original="#A8DBA8" class="" style="fill:#976CEA" data-old_color="#a8dba8"/><g fill="#3b8686"><path d="m312 304h-48c-4.417969 0-8 3.582031-8 8v112c0 4.417969 3.582031 8 8 8h48c4.417969 0 8-3.582031 8-8v-112c0-4.417969-3.582031-8-8-8zm-8 112h-32v-96h32zm0 0" data-original="#3B8686" class="" data-old_color="#3B8686" style="fill:#6221B2"/><path d="m408 256h-48c-4.417969 0-8 3.582031-8 8v160c0 4.417969 3.582031 8 8 8h48c4.417969 0 8-3.582031 8-8v-160c0-4.417969-3.582031-8-8-8zm-8 160h-32v-144h32zm0 0" data-original="#3B8686" class="" data-old_color="#3B8686" style="fill:#6221B2"/><path d="m120 368h-48c-4.417969 0-8 3.582031-8 8v48c0 4.417969 3.582031 8 8 8h48c4.417969 0 8-3.582031 8-8v-48c0-4.417969-3.582031-8-8-8zm-8 48h-32v-32h32zm0 0" data-original="#3B8686" class="" data-old_color="#3B8686" style="fill:#6221B2"/><path d="m216 336h-48c-4.417969 0-8 3.582031-8 8v80c0 4.417969 3.582031 8 8 8h48c4.417969 0 8-3.582031 8-8v-80c0-4.417969-3.582031-8-8-8zm-8 80h-32v-64h32zm0 0" data-original="#3B8686" class="" data-old_color="#3B8686" style="fill:#6221B2"/><path d="m365.519531 174.480469 9.761719 26.480469c1.144531 3.167968 4.152344 5.277343 7.519531 5.277343.953125 0 1.898438-.164062 2.800781-.476562 1.996094-.738281 3.617188-2.242188 4.503907-4.179688s.964843-4.148437.214843-6.140625l-16.558593-45.042968c-.738281-1.996094-2.242188-3.617188-4.179688-4.503907s-4.148437-.964843-6.140625-.214843l-45.042968 16.558593c-1.996094.738281-3.617188 2.242188-4.503907 4.179688s-.964843 4.148437-.214843 6.140625c1.535156 4.121094 6.109374 6.230468 10.242187 4.722656l27.359375-10.082031-1.601562 2.878906c-45.34375 82.175781-133.359376 131.53125-227.121094 127.363281l-34.558594-1.441406c-4.417969 0-8 3.582031-8 8s3.582031 8 8 8l34.238281 1.441406h11.203125c95.925782.1875 184.320313-51.953125 230.558594-136zm0 0" data-original="#3B8686" class="" data-old_color="#3B8686" style="fill:#6221B2"/><path d="m112 256c16.980469.011719 33.265625-6.722656 45.28125-18.71875 1.511719-1.503906 2.363281-3.546875 2.363281-5.679688 0-2.132812-.851562-4.179687-2.363281-5.679687l-34-33.921875 34-33.921875c1.511719-1.5 2.363281-3.546875 2.363281-5.679687 0-2.132813-.851562-4.175782-2.363281-5.679688-20.488281-20.460938-52.160156-24.621094-77.238281-10.140625-25.074219 14.480469-37.300781 43.992187-29.816407 71.964844 7.484376 27.972656 32.816407 47.433593 61.773438 47.457031zm-33.921875-97.921875c16.5625-16.570313 42.664063-18.769531 61.761719-5.199219l-33.519532 33.441406c-1.515624 1.5-2.367187 3.546876-2.367187 5.679688s.851563 4.179688 2.367187 5.679688l33.519532 33.441406c-20.335938 14.414062-48.316406 10.863281-64.410156-8.167969s-14.941407-47.21875 2.648437-64.875zm0 0" data-original="#3B8686" class="" data-old_color="#3B8686" style="fill:#6221B2"/><path d="m146.320312 197.679688 39.601563 39.601562c1.53125 1.746094 3.753906 2.738281 6.078125 2.71875 2.117188-.03125 4.148438-.859375 5.679688-2.320312 12.019531-12.003907 18.769531-28.292969 18.769531-45.28125 0-16.984376-6.75-33.273438-18.769531-45.277344-1.5-1.515625-3.546876-2.367188-5.679688-2.367188s-4.179688.851563-5.679688 2.367188l-39.601562 39.597656c-3.007812 2.972656-3.183594 7.777344-.398438 10.960938zm44.800782-33.519532c12.015625 16.734375 12.015625 39.265625 0 56l-27.839844-28.160156zm0 0" data-original="#3B8686" class="" data-old_color="#3B8686" style="fill:#6221B2"/><path d="m472 0h-464c-4.417969 0-8 3.582031-8 8v464c0 4.417969 3.582031 8 8 8h464c4.417969 0 8-3.582031 8-8v-464c0-4.417969-3.582031-8-8-8zm-456 16h448v80h-448zm0 448v-352h448v352zm0 0" data-original="#3B8686" class="" data-old_color="#3B8686" style="fill:#6221B2"/><path d="m440 32h-200c-4.417969 0-8 3.582031-8 8v32c0 4.417969 3.582031 8 8 8h200c4.417969 0 8-3.582031 8-8v-32c0-4.417969-3.582031-8-8-8zm-8 32h-184v-16h184zm0 0" data-original="#3B8686" class="" data-old_color="#3B8686" style="fill:#6221B2"/><path d="m56 32c-13.253906 0-24 10.746094-24 24s10.746094 24 24 24 24-10.746094 24-24-10.746094-24-24-24zm0 32c-4.417969 0-8-3.582031-8-8s3.582031-8 8-8 8 3.582031 8 8-3.582031 8-8 8zm0 0" data-original="#3B8686" class="" data-old_color="#3B8686" style="fill:#6221B2"/><path d="m184 32c-13.253906 0-24 10.746094-24 24s10.746094 24 24 24 24-10.746094 24-24-10.746094-24-24-24zm0 32c-4.417969 0-8-3.582031-8-8s3.582031-8 8-8 8 3.582031 8 8-3.582031 8-8 8zm0 0" data-original="#3B8686" class="" data-old_color="#3B8686" style="fill:#6221B2"/><path d="m120 32c-13.253906 0-24 10.746094-24 24s10.746094 24 24 24 24-10.746094 24-24-10.746094-24-24-24zm0 32c-4.417969 0-8-3.582031-8-8s3.582031-8 8-8 8 3.582031 8 8-3.582031 8-8 8zm0 0" data-original="#3B8686" class="" data-old_color="#3B8686" style="fill:#6221B2"/></g></g> </svg>
