<?xml version="1.0"?>
<svg xmlns="http://www.w3.org/2000/svg" height="512px" viewBox="0 0 480 480" width="512px" class=""><g><path d="m88 200v-96h-80v368h464v-80h-192c-106.039062 0-192-85.960938-192-192zm0 0" fill="#cff09e" data-original="#CFF09E" class="active-path" style="fill:#BA95F4" data-old_color="#cff09e"/><path d="m8 8h464v96h-464zm0 0" fill="#a8dba8" data-original="#A8DBA8" class="" style="fill:#976CEA" data-old_color="#a8dba8"/><path d="m240 40h200v32h-200zm0 0" fill="#79bd9a" data-original="#79BD9A" class="" style="fill:#7327CC" data-old_color="#79bd9a"/><path d="m72 56c0 8.835938-7.164062 16-16 16s-16-7.164062-16-16 7.164062-16 16-16 16 7.164062 16 16zm0 0" fill="#cff09e" data-original="#CFF09E" class="active-path" style="fill:#BA95F4" data-old_color="#cff09e"/><path d="m136 56c0 8.835938-7.164062 16-16 16s-16-7.164062-16-16 7.164062-16 16-16 16 7.164062 16 16zm0 0" fill="#cff09e" data-original="#CFF09E" class="active-path" style="fill:#BA95F4" data-old_color="#cff09e"/><path d="m200 56c0 8.835938-7.164062 16-16 16s-16-7.164062-16-16 7.164062-16 16-16 16 7.164062 16 16zm0 0" fill="#cff09e" data-original="#CFF09E" class="active-path" style="fill:#BA95F4" data-old_color="#cff09e"/><path d="m391.039062 168c-49.535156 14.808594-103.175781 4.765625-144-26.960938l-7.039062-5.039062-6.878906 5.359375c-40.824219 31.726563-94.464844 41.769531-144 26.960937l-1.121094-.320312v61.359375c-.039062 71.421875 36.566406 137.871094 96.960938 176l55.039062 34.640625 55.039062-34.800781c60.347657-38.097657 96.945313-104.472657 96.960938-175.839844v-61.359375zm-103.039062 136c0 26.507812-21.492188 48-48 48s-48-21.492188-48-48v-40c0-13.253906 10.746094-24 24-24v-32c0-8.835938 7.164062-16 16-16h16c8.835938 0 16 7.164062 16 16v32c13.253906 0 24 10.746094 24 24zm0 0" fill="#a8dba8" data-original="#A8DBA8" class="" style="fill:#976CEA" data-old_color="#a8dba8"/><path d="m240 208v-16h-8c-8.835938 0-16 7.164062-16 16v24h48c-13.253906 0-24-10.746094-24-24zm0 0" fill="#cff09e" data-original="#CFF09E" class="active-path" style="fill:#BA95F4" data-old_color="#cff09e"/><path d="m280 328c-35.347656 0-64-28.652344-64-64v-24c-13.253906 0-24 10.746094-24 24v40c.039062 21.691406 14.617188 40.660156 35.570312 46.277344 20.949219 5.617187 43.066407-3.515625 53.949219-22.277344zm0 0" fill="#cff09e" data-original="#CFF09E" class="active-path" style="fill:#BA95F4" data-old_color="#cff09e"/><path d="m376 376h64v32h-64zm0 0" fill="#a8dba8" data-original="#A8DBA8" class="" style="fill:#976CEA" data-old_color="#a8dba8"/><path d="m104 408c0 17.671875-14.328125 32-32 32s-32-14.328125-32-32 14.328125-32 32-32 32 14.328125 32 32zm0 0" fill="#79bd9a" data-original="#79BD9A" class="" style="fill:#7327CC" data-old_color="#79bd9a"/><path d="m104 408c0-17.671875-14.328125-32-32-32v32zm0 0" fill="#a8dba8" data-original="#A8DBA8" class="" style="fill:#976CEA" data-old_color="#a8dba8"/><g fill="#3b8686"><path d="m440 368h-64c-4.417969 0-8 3.582031-8 8v32c0 4.417969 3.582031 8 8 8h64c4.417969 0 8-3.582031 8-8v-32c0-4.417969-3.582031-8-8-8zm-8 32h-48v-16h48zm0 0" data-original="#3B8686" class="" style="fill:#6221B2" data-old_color="#3B8686"/><path d="m72 368c-22.089844 0-40 17.910156-40 40s17.910156 40 40 40 40-17.910156 40-40-17.910156-40-40-40zm22.558594 32h-14.558594v-14.558594c6.792969 2.417969 12.140625 7.765625 14.558594 14.558594zm-22.558594 32c-11.617188-.089844-21.5-8.488281-23.46875-19.933594-1.964844-11.449218 4.550781-22.664062 15.46875-26.625v22.558594c0 4.417969 3.582031 8 8 8h22.558594c-3.378906 9.566406-12.414063 15.972656-22.558594 16zm0 0" data-original="#3B8686" class="" style="fill:#6221B2" data-old_color="#3B8686"/><path d="m416 432h-40c-4.417969 0-8 3.582031-8 8s3.582031 8 8 8h40c4.417969 0 8-3.582031 8-8s-3.582031-8-8-8zm0 0" data-original="#3B8686" class="" style="fill:#6221B2" data-old_color="#3B8686"/><path d="m328 280h-32v-16h24c4.417969 0 8-3.582031 8-8v-32c0-4.417969-3.582031-8-8-8s-8 3.582031-8 8v24h-20.480469c-4.269531-7.355469-11.292969-12.710938-19.519531-14.878906v-25.121094c0-13.253906-10.746094-24-24-24h-16c-13.253906 0-24 10.746094-24 24v25.121094c-8.226562 2.167968-15.25 7.523437-19.519531 14.878906h-20.480469v-24c0-4.417969-3.582031-8-8-8s-8 3.582031-8 8v32c0 4.417969 3.582031 8 8 8h24v16h-32c-4.417969 0-8 3.582031-8 8s3.582031 8 8 8h32v8c.011719 2.679688.226562 5.351562.640625 8h-16.640625c-4.417969 0-8 3.582031-8 8v32c0 4.417969 3.582031 8 8 8s8-3.582031 8-8v-24h13.519531c9.324219 19.410156 28.949219 31.757812 50.480469 31.757812s41.15625-12.347656 50.480469-31.757812h13.519531v24c0 4.417969 3.582031 8 8 8s8-3.582031 8-8v-32c0-4.417969-3.582031-8-8-8h-16.640625c.414063-2.648438.628906-5.320312.640625-8v-8h32c4.417969 0 8-3.582031 8-8s-3.582031-8-8-8zm-104-72c0-4.417969 3.582031-8 8-8h16c4.417969 0 8 3.582031 8 8v24h-32zm24 135.199219v-71.199219c0-4.417969-3.582031-8-8-8s-8 3.582031-8 8v71.199219c-18.625-3.800781-32.003906-20.1875-32-39.199219v-40c0-8.835938 7.164062-16 16-16h48c8.835938 0 16 7.164062 16 16v40c.003906 19.011719-13.375 35.398438-32 39.199219zm0 0" data-original="#3B8686" class="" style="fill:#6221B2" data-old_color="#3B8686"/><path d="m472 0h-464c-4.417969 0-8 3.582031-8 8v464c0 4.417969 3.582031 8 8 8h464c4.417969 0 8-3.582031 8-8v-464c0-4.417969-3.582031-8-8-8zm-456 16h448v80h-448zm0 448v-352h448v352zm0 0" data-original="#3B8686" class="" style="fill:#6221B2" data-old_color="#3B8686"/><path d="m440 32h-200c-4.417969 0-8 3.582031-8 8v32c0 4.417969 3.582031 8 8 8h200c4.417969 0 8-3.582031 8-8v-32c0-4.417969-3.582031-8-8-8zm-8 32h-184v-16h184zm0 0" data-original="#3B8686" class="" style="fill:#6221B2" data-old_color="#3B8686"/><path d="m56 32c-13.253906 0-24 10.746094-24 24s10.746094 24 24 24 24-10.746094 24-24-10.746094-24-24-24zm0 32c-4.417969 0-8-3.582031-8-8s3.582031-8 8-8 8 3.582031 8 8-3.582031 8-8 8zm0 0" data-original="#3B8686" class="" style="fill:#6221B2" data-old_color="#3B8686"/><path d="m120 32c-13.253906 0-24 10.746094-24 24s10.746094 24 24 24 24-10.746094 24-24-10.746094-24-24-24zm0 32c-4.417969 0-8-3.582031-8-8s3.582031-8 8-8 8 3.582031 8 8-3.582031 8-8 8zm0 0" data-original="#3B8686" class="" style="fill:#6221B2" data-old_color="#3B8686"/><path d="m184 32c-13.253906 0-24 10.746094-24 24s10.746094 24 24 24 24-10.746094 24-24-10.746094-24-24-24zm0 32c-4.417969 0-8-3.582031-8-8s3.582031-8 8-8 8 3.582031 8 8-3.582031 8-8 8zm0 0" data-original="#3B8686" class="" style="fill:#6221B2" data-old_color="#3B8686"/><path d="m400 168c0-2.519531-1.1875-4.890625-3.199219-6.398438-2.035156-1.539062-4.679687-2.011718-7.121093-1.28125h-.960938c-47.109375 14.042969-98.101562 4.511719-136.957031-25.601562l-6.882813-5.359375c-2.875-2.214844-6.882812-2.214844-9.757812 0l-6.882813 5.359375c-38.878906 30.128906-89.902343 39.660156-137.039062 25.601562h-.878907c-2.441406-.730468-5.085937-.257812-7.121093 1.28125-2.011719 1.507813-3.199219 3.878907-3.199219 6.398438v61.359375c-.222656 74.167969 37.820312 143.210937 100.640625 182.640625l55.121094 34.800781c2.59375 1.621094 5.882812 1.621094 8.476562 0l55.121094-34.800781c62.820313-39.429688 100.863281-108.472656 100.640625-182.640625zm-16 61.359375c.175781 68.671875-35.046875 132.589844-93.199219 169.121094l-50.800781 32-50.800781-32c-58.171875-36.507813-93.40625-100.4375-93.199219-169.121094v-50.878906c49.582031 11.710937 101.800781.390625 142.078125-30.800781l1.921875-1.519532 1.921875 1.519532c40.285156 31.179687 92.496094 42.5 142.078125 30.800781zm0 0" data-original="#3B8686" class="" style="fill:#6221B2" data-old_color="#3B8686"/></g></g> </svg>
