<?xml version="1.0"?>
<svg xmlns="http://www.w3.org/2000/svg" height="512px" viewBox="0 0 480 480" width="512px"><g><path d="m88 200v-96h-80v368h464v-80h-192c-106.039062 0-192-85.960938-192-192zm0 0" fill="#cff09e" data-original="#CFF09E" class="active-path" style="fill:#BA95F4" data-old_color="#cff09e"/><path d="m8 8h464v96h-464zm0 0" fill="#a8dba8" data-original="#A8DBA8" class="" style="fill:#976CEA" data-old_color="#a8dba8"/><path d="m240 40h200v32h-200zm0 0" fill="#79bd9a" data-original="#79BD9A" class="" style="fill:#7327CC" data-old_color="#79bd9a"/><path d="m72 56c0 8.835938-7.164062 16-16 16s-16-7.164062-16-16 7.164062-16 16-16 16 7.164062 16 16zm0 0" fill="#cff09e" data-original="#CFF09E" class="active-path" style="fill:#BA95F4" data-old_color="#cff09e"/><path d="m136 56c0 8.835938-7.164062 16-16 16s-16-7.164062-16-16 7.164062-16 16-16 16 7.164062 16 16zm0 0" fill="#cff09e" data-original="#CFF09E" class="active-path" style="fill:#BA95F4" data-old_color="#cff09e"/><path d="m200 56c0 8.835938-7.164062 16-16 16s-16-7.164062-16-16 7.164062-16 16-16 16 7.164062 16 16zm0 0" fill="#cff09e" data-original="#CFF09E" class="active-path" style="fill:#BA95F4" data-old_color="#cff09e"/><path d="m425.601562 207.28125c-1.414062 2.382812-3.074218 4.609375-4.960937 6.640625l-45.28125 45.199219c-6 6.007812-14.144531 9.382812-22.640625 9.382812-8.492188 0-16.636719-3.375-22.640625-9.382812l-45.199219-45.199219c-1.933594-1.992187-3.601562-4.222656-4.957031-6.640625-7.28125 12.515625-5.246094 28.363281 4.957031 38.640625l5.601563 5.597656-72 72c-24.667969-8.804687-52.144531.667969-66.148438 22.800781-14 22.136719-10.792969 51.019532 7.726563 69.539063 18.523437 18.519531 47.40625 21.730469 69.539062 7.726563 22.132813-14.003907 31.605469-41.476563 22.800782-66.144532l72-72 5.601562 5.597656c6.003906 6.011719 14.148438 9.386719 22.640625 9.386719s16.636719-3.375 22.640625-9.386719l45.277344-45.199218c10.195312-10.242188 12.261718-26.042969 5.042968-38.558594zm-208.640624 185.679688c-9.371094 9.378906-24.570313 9.386718-33.949219.011718-9.378907-9.371094-9.378907-24.574218 0-33.945312 9.378906-9.375 24.578125-9.367188 33.949219.011718 9.359374 9.371094 9.359374 24.550782 0 33.921876zm0 0" fill="#a8dba8" data-original="#A8DBA8" class="" style="fill:#976CEA" data-old_color="#a8dba8"/><path d="m384 352h48v48h-48zm0 0" fill="#79bd9a" data-original="#79BD9A" class="" style="fill:#7327CC" data-old_color="#79bd9a"/><path d="m56 360h48v48h-48zm0 0" fill="#a8dba8" data-original="#A8DBA8" class="" style="fill:#976CEA" data-old_color="#a8dba8"/><path d="m184 216c.082031-1.492188.082031-2.988281 0-4.480469l25.519531-14.71875-24-41.601562-25.519531 14.722656c-2.53125-1.722656-5.207031-3.222656-8-4.480469v-29.441406h-48v29.441406c-2.792969 1.257813-5.46875 2.757813-8 4.480469l-25.28125-14.722656-24 41.601562 25.28125 14.71875c-.320312 2.980469-.320312 5.980469 0 8.960938l-25.28125 14.71875 24 41.601562 25.28125-14.722656c2.53125 1.722656 5.207031 3.222656 8 4.480469v29.441406h48v-29.441406c2.792969-1.257813 5.46875-2.757813 8-4.480469l25.519531 14.722656 24-41.601562-25.519531-14.71875c.082031-1.492188.082031-2.988281 0-4.480469zm-56 24c-13.253906 0-24-10.746094-24-24s10.746094-24 24-24 24 10.746094 24 24-10.746094 24-24 24zm0 0" fill="#79bd9a" data-original="#79BD9A" class="" style="fill:#7327CC" data-old_color="#79bd9a"/><path d="m384 392h48v8h-48zm0 0" fill="#e59730" data-original="#E59730"/><g fill="#3b8686"><path d="m128 248c17.671875 0 32-14.328125 32-32s-14.328125-32-32-32-32 14.328125-32 32 14.328125 32 32 32zm0-48c8.835938 0 16 7.164062 16 16s-7.164062 16-16 16-16-7.164062-16-16 7.164062-16 16-16zm0 0" data-original="#3B8686" class="" data-old_color="#3B8686" style="fill:#6221B2"/><path d="m432 344h-48c-4.417969 0-8 3.582031-8 8v16h-32v-60.480469c13.367188 3.007813 27.34375-1.039062 37.039062-10.71875l45.199219-45.28125c15.617188-15.621093 15.617188-40.941406 0-56.558593l-5.597656-5.601563c-1.503906-1.515625-3.546875-2.367187-5.679687-2.367187-2.132813 0-4.179688.851562-5.679688 2.367187l-45.203125 45.199219-22.636719-22.636719 45.199219-45.203125c1.515625-1.5 2.367187-3.546875 2.367187-5.679688 0-2.132812-.851562-4.175781-2.367187-5.679687l-5.601563-5.597656c-15.617187-15.617188-40.9375-15.617188-56.558593 0l-45.28125 45.199219c-15.613281 15.617187-15.613281 40.9375 0 56.558593l-62.71875 62.71875c-27.980469-7.484375-57.5 4.75-71.976563 29.835938-14.476562 25.085937-10.304687 56.765625 10.175782 77.246093 20.480468 20.480469 52.160156 24.652344 77.246093 10.175782 25.085938-14.476563 37.320313-43.996094 29.835938-71.976563l62.71875-62.71875c1.097656 1.070313 2.273437 2.058594 3.519531 2.960938v76.238281c0 4.417969 3.582031 8 8 8h40v16c0 4.417969 3.582031 8 8 8h48c4.417969 0 8-3.582031 8-8v-48c0-4.417969-3.582031-8-8-8zm-113.199219-64-72 72c-2.039062 2.125-2.746093 5.199219-1.839843 8 7.457031 21.175781-.761719 44.6875-19.78125 56.613281-19.023438 11.921875-43.765626 9.070313-59.574219-6.871093-15.808594-15.9375-18.460938-40.707032-6.378907-59.628907 12.078126-18.921875 35.660157-26.945312 56.773438-19.3125 2.800781.90625 5.875.199219 8-1.839843l72-72c3.101562-3.121094 3.101562-8.160157 0-11.28125l-5.519531-5.679688c-9.359375-9.371094-9.359375-24.550781 0-33.921875l45.519531-45.039063c9.507812-9.019531 24.414062-9.019531 33.921875 0l-45.203125 45.28125c-3.101562 3.121094-3.101562 8.160157 0 11.28125l33.921875 33.917969c3.121094 3.101563 8.160156 3.101563 11.28125 0l45.277344-45.199219c9.359375 9.371094 9.359375 24.550782 0 33.917969l-45.277344 45.28125c-6.855469 6.519531-16.832031 8.539063-25.683594 5.199219v-18.71875c0-4.417969-3.578125-8-8-8-4.417969 0-8 3.582031-8 8v6.398438c-3.152343-1.613282-6.992187-.964844-9.4375 1.601562zm105.199219 112h-32v-32h32zm0 0" data-original="#3B8686" class="" data-old_color="#3B8686" style="fill:#6221B2"/><path d="m104 352h-16v-75.921875l8-4.636719v24.558594c0 4.417969 3.582031 8 8 8h48c4.417969 0 8-3.582031 8-8v-24.558594l21.28125 12.238282c1.839844 1.0625 4.027344 1.351562 6.078125.800781 1.960937-.589844 3.621094-1.90625 4.640625-3.679688l24-41.601562c2.171875-3.824219.847656-8.683594-2.960938-10.878907l-21.039062-12.320312 21.28125-12.320312c3.722656-2.277344 4.929688-7.117188 2.71875-10.878907l-24-41.601562c-1.074219-1.824219-2.832031-3.148438-4.878906-3.679688-2.054688-.550781-4.242188-.261719-6.082032.800781l-21.039062 12.238282v-24.558594c0-4.417969-3.582031-8-8-8h-48c-4.417969 0-8 3.582031-8 8v24.558594l-21.28125-12.238282c-1.839844-1.0625-4.027344-1.351562-6.078125-.800781-2.050781.53125-3.804687 1.855469-4.878906 3.679688l-23.761719 41.601562c-1.023438 1.851563-1.308594 4.023438-.800781 6.078125.570312 2.035156 1.921875 3.761719 3.761719 4.800782l21.039062 12.320312-21.28125 12.320312c-3.722656 2.277344-4.929688 7.117188-2.71875 10.878907l24 41.601562c1.074219 1.824219 2.832031 3.148438 4.878906 3.679688 1.109375.238281 2.253906.238281 3.359375 0v67.519531h-16.238281c-4.417969 0-8 3.582031-8 8v48c0 4.417969 3.582031 8 8 8h48c4.417969 0 8-3.582031 8-8v-48c0-4.417969-3.582031-8-8-8zm-46.320312-113.839844 18.558593-10.71875c2.695313-1.542968 4.257813-4.507812 4-7.601562-.347656-2.65625-.347656-5.34375 0-8 .257813-3.09375-1.304687-6.058594-4-7.601563l-18.558593-10.398437 16-27.679688 18.558593 10.71875c2.671875 1.503906 5.964844 1.347656 8.480469-.398437 2.128906-1.445313 4.375-2.703125 6.722656-3.761719 2.804688-1.335938 4.582032-4.171875 4.558594-7.277344v-21.441406h32v21.441406c-.023438 3.105469 1.753906 5.941406 4.558594 7.277344 2.347656 1.058594 4.59375 2.316406 6.722656 3.761719 2.515625 1.746093 5.808594 1.902343 8.480469.398437l18.558593-10.71875 16 27.679688-18.558593 10.71875c-2.695313 1.542968-4.257813 4.507812-4 7.601562.34375 2.65625.34375 5.34375 0 8-.257813 3.09375 1.304687 6.058594 4 7.601563l18.558593 10.71875-16 27.679687-18.558593-10.71875c-2.597657-1.621094-5.886719-1.621094-8.480469 0-2.128906 1.445313-4.375 2.703125-6.722656 3.757813-2.804688 1.335937-4.582032 4.175781-4.558594 7.28125v21.519531h-32v-21.441406c.023438-3.105469-1.753906-5.941406-4.558594-7.277344-2.347656-1.058594-4.59375-2.316406-6.722656-3.761719-2.59375-1.621093-5.882812-1.621093-8.480469 0l-4.238281 2.082031v-9.601562c0-4.417969-3.582031-8-8-8s-8 3.582031-8 8v15.039062zm38.320312 161.839844h-32v-32h32zm0 0" data-original="#3B8686" class="" data-old_color="#3B8686" style="fill:#6221B2"/><path d="m432 424h-48c-4.417969 0-8 3.582031-8 8s3.582031 8 8 8h48c4.417969 0 8-3.582031 8-8s-3.582031-8-8-8zm0 0" data-original="#3B8686" class="" data-old_color="#3B8686" style="fill:#6221B2"/><path d="m472 0h-464c-4.417969 0-8 3.582031-8 8v464c0 4.417969 3.582031 8 8 8h464c4.417969 0 8-3.582031 8-8v-464c0-4.417969-3.582031-8-8-8zm-456 16h448v80h-448zm0 448v-352h448v352zm0 0" data-original="#3B8686" class="" data-old_color="#3B8686" style="fill:#6221B2"/><path d="m440 32h-200c-4.417969 0-8 3.582031-8 8v32c0 4.417969 3.582031 8 8 8h200c4.417969 0 8-3.582031 8-8v-32c0-4.417969-3.582031-8-8-8zm-8 32h-184v-16h184zm0 0" data-original="#3B8686" class="" data-old_color="#3B8686" style="fill:#6221B2"/><path d="m56 32c-13.253906 0-24 10.746094-24 24s10.746094 24 24 24 24-10.746094 24-24-10.746094-24-24-24zm0 32c-4.417969 0-8-3.582031-8-8s3.582031-8 8-8 8 3.582031 8 8-3.582031 8-8 8zm0 0" data-original="#3B8686" class="" data-old_color="#3B8686" style="fill:#6221B2"/><path d="m184 32c-13.253906 0-24 10.746094-24 24s10.746094 24 24 24 24-10.746094 24-24-10.746094-24-24-24zm0 32c-4.417969 0-8-3.582031-8-8s3.582031-8 8-8 8 3.582031 8 8-3.582031 8-8 8zm0 0" data-original="#3B8686" class="" data-old_color="#3B8686" style="fill:#6221B2"/><path d="m120 32c-13.253906 0-24 10.746094-24 24s10.746094 24 24 24 24-10.746094 24-24-10.746094-24-24-24zm0 32c-4.417969 0-8-3.582031-8-8s3.582031-8 8-8 8 3.582031 8 8-3.582031 8-8 8zm0 0" data-original="#3B8686" class="" data-old_color="#3B8686" style="fill:#6221B2"/><path d="m177.359375 353.359375c-12.484375 12.5-12.476563 32.757813.015625 45.246094 12.496094 12.492187 32.753906 12.492187 45.25 0 12.492188-12.488281 12.5-32.746094.015625-45.246094-12.671875-12.089844-32.609375-12.089844-45.28125 0zm33.921875 33.921875c-6.242188 6.203125-16.320312 6.203125-22.5625 0-4.59375-4.570312-5.980469-11.460938-3.511719-17.449219 2.472657-5.992187 8.3125-9.898437 14.792969-9.898437s12.320312 3.90625 14.792969 9.898437c2.46875 5.988281 1.082031 12.878907-3.511719 17.449219zm0 0" data-original="#3B8686" class="" data-old_color="#3B8686" style="fill:#6221B2"/></g></g> </svg>
