<?xml version="1.0" encoding="utf-8"?>
<!-- Generator: Adobe Illustrator 23.1.1, SVG Export Plug-In . SVG Version: 6.00 Build 0)  -->
<svg version="1.1" id="Capa_1" xmlns="http://www.w3.org/2000/svg" xmlns:xlink="http://www.w3.org/1999/xlink" x="0px" y="0px"
	 viewBox="0 0 512 512" style="enable-background:new 0 0 512 512;" xml:space="preserve">
<style type="text/css">
	.st0{fill:#BA95F4;}
	.st1{fill:#ECEFF1;}
	.st2{fill:#90A4AE;}
	.st3{fill:#7327CC;}
	.st4{fill:#9C66E4;}
</style>
<path class="st0" d="M0,192l246.5,156.9c2.8,2.1,6.1,3.1,9.5,3.1s6.7-1,9.5-3.1L512,192L265.6,3.2c-5.7-4.3-13.5-4.3-19.2,0L0,192z"
	/>
<path class="st1" d="M416,0H96C78.4,0,64,14.4,64,32v352c0,8.8,7.2,16,16,16h352c8.8,0,16-7.2,16-16V32C448,14.4,433.7,0,416,0z"/>
<g>
	<path class="st2" d="M144,96h224c8.8,0,16-7.2,16-16s-7.2-16-16-16H144c-8.8,0-16,7.2-16,16S135.2,96,144,96z"/>
	<path class="st2" d="M368,128H144c-8.8,0-16,7.2-16,16s7.2,16,16,16h224c8.8,0,16-7.2,16-16S376.8,128,368,128z"/>
	<path class="st2" d="M272,192H144c-8.8,0-16,7.2-16,16s7.2,16,16,16h128c8.8,0,16-7.2,16-16S280.8,192,272,192z"/>
</g>
<path class="st3" d="M265.5,348.9c-2.8,2.1-6.1,3.1-9.5,3.1s-6.7-1-9.5-3.1L0,192v288c0,17.7,14.3,32,32,32h448
	c17.7,0,32-14.3,32-32V192L265.5,348.9z"/>
<path class="st4" d="M480,512H32c-18,0-32-14-32-32c0-5.1,2.4-9.9,6.5-12.9l240-160c2.8-2.1,6.1-3.1,9.5-3.1s6.7,1,9.5,3.1l240,160
	c4.1,3,6.5,7.8,6.5,12.9C512,498,498,512,480,512z"/>
</svg>
