<?xml version="1.0" encoding="utf-8"?>
<!-- Generator: Adobe Illustrator 23.1.1, SVG Export Plug-In . SVG Version: 6.00 Build 0)  -->
<svg version="1.1" id="Layer_1" xmlns="http://www.w3.org/2000/svg" xmlns:xlink="http://www.w3.org/1999/xlink" x="0px" y="0px"
	 viewBox="0 0 1920 360.4" style="enable-background:new 0 0 1920 360.4;" xml:space="preserve">
<style type="text/css">
	.st0{fill:#7327CC;}
	.st1{fill:#BA95F4;}
	.st2{fill:#5725A5;}
	.st3{fill:#976CEA;}
	.st4{opacity:0.42;fill:#7327CC;enable-background:new    ;}
</style>
<path class="st0" d="M1249.5,47.5c-7.3,0-13.2-5.9-13.2-13.2c0-7.3,5.9-13.2,13.2-13.2s13.2,5.9,13.2,13.2
	C1262.6,41.5,1256.8,47.5,1249.5,47.5z M1249.5,26.4c-4.4,0-7.9,3.6-7.9,7.9s3.6,7.9,7.9,7.9c4.4,0,7.9-3.6,7.9-7.9
	S1253.9,26.4,1249.5,26.4z"/>
<path class="st0" d="M1637,51.5c2.8,1.2,3.6,3.4,4.1,5.4c0.6,1.8,1.1,3.2,3,4.1c1.9,0.8,3.2,0.2,5-0.7c1.8-0.9,4-1.9,6.8-0.7
	c2.8,1.2,3.6,3.4,4.1,5.4c0.6,1.8,1.1,3.2,3,4.1c1.9,0.8,3.2,0.2,5-0.7c1.8-0.9,4-1.9,6.8-0.7c2.8,1.2,3.6,3.4,4.2,5.4
	c0.6,1.8,1.1,3.2,3,4.1c1.9,0.8,3.2,0.2,5-0.7c1.8-0.9,4-1.9,6.8-0.7c0.6,0.2,0.8,0.9,0.6,1.4c-0.2,0.5-0.9,0.8-1.4,0.6
	c-1.9-0.8-3.2-0.2-5,0.7c-1.8,0.9-4,1.9-6.8,0.7c-2.8-1.2-3.6-3.4-4.2-5.4c-0.6-1.8-1.1-3.2-3-4.1c-1.9-0.8-3.2-0.2-5,0.7
	c-1.8,0.9-4,1.9-6.8,0.7c-2.8-1.2-3.6-3.4-4.1-5.4c-0.6-1.8-1.1-3.2-3-4.1c-1.9-0.8-3.2-0.2-5,0.7c-1.8,0.9-4,1.9-6.8,0.7
	c-2.8-1.2-3.6-3.4-4.1-5.4c-0.6-1.8-1.1-3.2-3-4.1c-0.6-0.2-0.8-0.9-0.6-1.4C1635.9,51.5,1636.4,51.2,1637,51.5z"/>
<path class="st1" d="M1642,43.9c2.8,1.2,3.6,3.4,4.1,5.4c0.6,1.8,1.1,3.2,3,4.1c1.9,0.8,3.2,0.2,5-0.7c1.8-0.9,4-1.9,6.8-0.7
	c2.8,1.2,3.6,3.4,4.1,5.4c0.6,1.8,1.1,3.2,3,4.1c1.9,0.8,3.2,0.2,5-0.7c1.8-0.9,4-1.9,6.8-0.7c2.8,1.2,3.6,3.4,4.2,5.4
	c0.6,1.8,1.1,3.2,3,4.1c1.9,0.8,3.2,0.2,5-0.7c1.8-0.9,4-1.9,6.8-0.7c0.6,0.2,0.8,0.9,0.6,1.4c-0.2,0.6-0.9,0.8-1.4,0.6
	c-1.9-0.8-3.2-0.2-5,0.7c-1.8,0.9-4,1.9-6.8,0.7c-2.8-1.2-3.6-3.4-4.2-5.4c-0.6-1.8-1.1-3.2-3-4.1s-3.2-0.2-5,0.7
	c-1.8,0.9-4,1.9-6.8,0.7c-2.8-1.2-3.6-3.4-4.1-5.4c-0.6-1.8-1.1-3.2-3-4.1c-1.9-0.8-3.2-0.2-5,0.7c-1.8,0.9-4,1.9-6.8,0.7
	c-2.8-1.2-3.6-3.4-4.1-5.4c-0.6-1.8-1.1-3.2-3-4.1c-0.6-0.2-0.8-0.9-0.6-1.4C1640.8,44,1641.4,43.7,1642,43.9z"/>
<path class="st2" d="M1408.6,26.3c0.4,0,0.8-0.2,1.2-0.5c0.3-0.3,0.5-0.7,0.5-1.2c0-0.4-0.2-0.8-0.5-1.2s-0.7-0.5-1.2-0.5
	c-0.4,0-0.8,0.2-1.2,0.5c-0.3,0.3-0.5,0.7-0.5,1.2c0,0.4,0.2,0.8,0.5,1.2C1407.8,26.1,1408.2,26.3,1408.6,26.3"/>
<path class="st2" d="M1425.7,26.3L1425.7,26.3c0.9,0,1.7-0.7,1.7-1.7s-0.7-1.7-1.7-1.7l0,0c-0.9,0-1.7,0.7-1.7,1.7
	S1424.8,26.3,1425.7,26.3z"/>
<path class="st2" d="M1417.2,26.3L1417.2,26.3c0.9,0,1.7-0.7,1.7-1.7s-0.7-1.7-1.7-1.7l0,0c-0.9,0-1.7,0.7-1.7,1.7
	S1416.2,26.3,1417.2,26.3z"/>
<path class="st2" d="M1408.6,19.5c0.4,0,0.8-0.2,1.2-0.5c0.3-0.3,0.5-0.7,0.5-1.2c0-0.4-0.2-0.8-0.5-1.2s-0.7-0.5-1.2-0.5
	c-0.4,0-0.8,0.2-1.2,0.5c-0.3,0.3-0.5,0.7-0.5,1.2c0,0.4,0.2,0.8,0.5,1.2S1408.2,19.5,1408.6,19.5"/>
<path class="st2" d="M1425.7,19.5L1425.7,19.5c0.9,0,1.7-0.7,1.7-1.7s-0.7-1.7-1.7-1.7l0,0c-0.9,0-1.7,0.7-1.7,1.7
	C1424.1,18.7,1424.8,19.5,1425.7,19.5z"/>
<path class="st2" d="M1417.2,19.5L1417.2,19.5c0.9,0,1.7-0.7,1.7-1.7s-0.7-1.7-1.7-1.7l0,0c-0.9,0-1.7,0.7-1.7,1.7
	C1415.6,18.7,1416.2,19.5,1417.2,19.5z"/>
<path class="st2" d="M1408.6,33.1c0.4,0,0.8-0.2,1.2-0.5c0.3-0.3,0.5-0.7,0.5-1.2c0-0.4-0.2-0.8-0.5-1.2s-0.7-0.5-1.2-0.5
	c-0.4,0-0.8,0.2-1.2,0.5c-0.3,0.3-0.5,0.7-0.5,1.2c0,0.4,0.2,0.8,0.5,1.2C1407.8,33,1408.2,33.1,1408.6,33.1"/>
<path class="st2" d="M1425.7,33.1L1425.7,33.1c0.9,0,1.7-0.7,1.7-1.7c0-0.9-0.7-1.7-1.7-1.7l0,0c-0.9,0-1.7,0.7-1.7,1.7
	C1424.1,32.4,1424.8,33.1,1425.7,33.1z"/>
<path class="st2" d="M1417.2,33.1L1417.2,33.1c0.9,0,1.7-0.7,1.7-1.7c0-0.9-0.7-1.7-1.7-1.7l0,0c-0.9,0-1.7,0.7-1.7,1.7
	C1415.6,32.4,1416.2,33.1,1417.2,33.1z"/>
<path class="st0" d="M1149.9,109.5c0.5-3,2.4-4.3,4.1-5.4c1.6-1,2.9-1.8,3.1-3.8c0.3-2.1-0.7-3.1-1.9-4.6c-1.3-1.6-2.8-3.4-2.4-6.4
	c0.5-3,2.4-4.3,4.1-5.4c1.6-1,2.9-1.8,3.1-3.8c0.3-2.1-0.7-3.1-1.9-4.6c-1.3-1.6-2.8-3.4-2.4-6.4c0.5-3.1,2.4-4.3,4.1-5.4
	c1.6-1,2.9-1.8,3.1-3.9c0.3-2.1-0.7-3.1-1.9-4.6c-1.3-1.6-2.8-3.4-2.4-6.4c0.1-0.6,0.7-1,1.2-0.9c0.6,0.1,1,0.7,0.9,1.2
	c-0.3,2.1,0.7,3.1,1.9,4.6c1.3,1.6,2.8,3.4,2.4,6.4c-0.5,3.1-2.4,4.3-4.1,5.4c-1.6,1-2.9,1.8-3.1,3.9c-0.3,2.1,0.7,3.1,1.9,4.6
	c1.3,1.6,2.8,3.4,2.4,6.4c-0.5,3-2.4,4.3-4.1,5.4c-1.6,1-2.9,1.8-3.1,3.8c-0.3,2.1,0.7,3.1,1.9,4.6c1.3,1.6,2.8,3.4,2.4,6.4
	c-0.5,3-2.4,4.3-4.1,5.4c-1.6,1-2.9,1.8-3.1,3.8c-0.1,0.6-0.7,1-1.2,0.9C1150.2,110.6,1149.8,110.1,1149.9,109.5z"/>
<polygon class="st1" points="1030.2,100.8 1019.6,110.5 1016.4,96.4 "/>
<polygon class="st1" points="1019,103.3 1008.4,113 1005.3,98.9 "/>
<polygon class="st1" points="1007.7,105.8 997.1,115.6 994,101.5 "/>
<path class="st0" d="M548,101.7c2.8-1.1,4.9,0,6.7,0.9c1.7,0.9,3,1.6,4.9,0.8c1.9-0.7,2.4-2.2,3.1-4c0.7-1.9,1.5-4.1,4.3-5.2
	c2.8-1.1,4.9,0,6.7,0.9c1.7,0.9,3,1.6,4.9,0.8c1.9-0.7,2.4-2.2,3.1-4c0.7-1.9,1.5-4.1,4.3-5.2c2.8-1.1,4.9,0,6.7,0.9
	c1.7,0.9,3,1.6,5,0.8c1.9-0.7,2.4-2.2,3.1-4c0.7-1.9,1.5-4.1,4.3-5.2c0.6-0.2,1.2,0.1,1.4,0.7c0.2,0.6-0.1,1.2-0.7,1.4
	c-1.9,0.7-2.4,2.2-3.1,4c-0.7,1.9-1.5,4.1-4.3,5.2c-2.8,1.1-4.9,0-6.7-0.9c-1.7-0.9-3-1.6-5-0.8c-1.9,0.7-2.4,2.2-3.1,4
	c-0.7,1.9-1.5,4.1-4.3,5.2c-2.8,1.1-4.9,0-6.7-0.9c-1.7-0.9-3-1.6-4.9-0.8c-1.9,0.7-2.4,2.2-3.1,4c-0.7,1.9-1.5,4.1-4.3,5.2
	c-2.8,1.1-4.9,0-6.7-0.9c-1.7-0.9-3-1.6-4.9-0.8c-0.6,0.2-1.2-0.1-1.4-0.7C547.2,102.6,547.4,101.9,548,101.7z"/>
<rect x="1495" y="95.1" class="st2" width="9.2" height="4.6"/>
<rect x="1493.1" y="93.2" class="st3" width="9.2" height="4.6"/>
<rect x="1480" y="95.1" class="st2" width="9.2" height="4.6"/>
<rect x="1478.1" y="93.2" class="st3" width="9.2" height="4.6"/>
<rect x="1465" y="95.1" class="st2" width="9.2" height="4.6"/>
<rect x="1463" y="93.2" class="st3" width="9.2" height="4.6"/>
<path class="st4" d="M920.8,13.6c0.4,0,0.8-0.2,1.2-0.5c0.3-0.3,0.5-0.7,0.5-1.2s-0.2-0.8-0.5-1.2c-0.3-0.3-0.7-0.5-1.2-0.5
	c-0.4,0-0.8,0.2-1.2,0.5c-0.3,0.3-0.5,0.7-0.5,1.2s0.2,0.8,0.5,1.2C919.9,13.5,920.3,13.6,920.8,13.6"/>
<path class="st4" d="M943.8,13.6L943.8,13.6c0.9,0,1.7-0.7,1.7-1.7s-0.7-1.7-1.7-1.7l0,0c-0.9,0-1.7,0.7-1.7,1.7
	S942.9,13.6,943.8,13.6z M932.3,13.6L932.3,13.6c0.9,0,1.7-0.7,1.7-1.7s-0.7-1.7-1.7-1.7l0,0c-0.9,0-1.7,0.7-1.7,1.7
	S931.4,13.6,932.3,13.6z"/>
<path class="st4" d="M955.3,13.6c0.4,0,0.8-0.2,1.2-0.5c0.3-0.3,0.5-0.7,0.5-1.2s-0.2-0.8-0.5-1.2c-0.3-0.3-0.7-0.5-1.2-0.5
	c-0.4,0-0.8,0.2-1.2,0.5c-0.3,0.3-0.5,0.7-0.5,1.2s0.2,0.8,0.5,1.2C954.5,13.5,954.9,13.6,955.3,13.6"/>
<path class="st2" d="M926.8,19.8c0.4,0,0.8-0.2,1.2-0.5c0.3-0.3,0.5-0.7,0.5-1.2c0-0.4-0.2-0.8-0.5-1.2c-0.3-0.3-0.7-0.5-1.2-0.5
	c-0.4,0-0.8,0.2-1.2,0.5c-0.3,0.3-0.5,0.7-0.5,1.2c0,0.4,0.2,0.8,0.5,1.2C925.9,19.6,926.4,19.8,926.8,19.8"/>
<path class="st2" d="M949.8,19.8L949.8,19.8c0.9,0,1.7-0.7,1.7-1.7c0-0.9-0.7-1.7-1.7-1.7l0,0c-0.9,0-1.7,0.7-1.7,1.7
	C948.2,19,948.9,19.8,949.8,19.8z M938.3,19.8L938.3,19.8c0.9,0,1.7-0.7,1.7-1.7c0-0.9-0.7-1.7-1.7-1.7l0,0c-0.9,0-1.7,0.7-1.7,1.7
	C936.7,19,937.4,19.8,938.3,19.8z"/>
<path class="st2" d="M961.4,19.8c0.4,0,0.8-0.2,1.2-0.5c0.3-0.3,0.5-0.7,0.5-1.2c0-0.4-0.2-0.8-0.5-1.2c-0.3-0.3-0.7-0.5-1.2-0.5
	c-0.4,0-0.8,0.2-1.2,0.5c-0.3,0.3-0.5,0.7-0.5,1.2c0,0.4,0.2,0.8,0.5,1.2C960.5,19.6,960.9,19.8,961.4,19.8"/>
<path class="st4" d="M1834.5,176.8c-0.1,0.4,0,0.9,0.2,1.2c0.2,0.3,0.6,0.7,1.1,0.7c0.4,0.1,0.9,0,1.2-0.2c0.3-0.2,0.7-0.6,0.7-1.1
	c0.1-0.4,0-0.9-0.2-1.2c-0.2-0.3-0.6-0.7-1.1-0.7c-0.4-0.1-0.9,0-1.2,0.2C1834.9,176,1834.6,176.3,1834.5,176.8"/>
<path class="st4" d="M1829.7,199.3L1829.7,199.3c-0.2,0.9,0.4,1.8,1.2,2c0.9,0.2,1.7-0.4,2-1.2l0,0c0.2-0.9-0.4-1.7-1.2-2
	C1830.8,197.8,1830,198.4,1829.7,199.3z M1832.1,188.1L1832.1,188.1c-0.2,0.9,0.4,1.8,1.2,2c0.9,0.2,1.7-0.4,2-1.2l0,0
	c0.2-0.9-0.4-1.7-1.2-2C1833.2,186.6,1832.4,187.1,1832.1,188.1z"/>
<path class="st4" d="M1827.4,210.6c-0.1,0.4,0,0.9,0.2,1.2c0.2,0.3,0.6,0.7,1.1,0.7c0.4,0.1,0.9,0,1.2-0.2c0.3-0.2,0.7-0.6,0.7-1.1
	c0.1-0.4,0-0.9-0.2-1.2c-0.2-0.3-0.6-0.7-1.1-0.7c-0.4-0.1-0.9,0-1.2,0.2C1827.7,209.7,1827.5,210.2,1827.4,210.6"/>
<path class="st2" d="M1827.2,181.4c-0.1,0.4,0,0.9,0.2,1.2c0.2,0.3,0.6,0.7,1.1,0.7c0.4,0.1,0.9,0,1.2-0.2c0.3-0.2,0.7-0.6,0.7-1.1
	c0.1-0.4,0-0.9-0.2-1.2c-0.2-0.3-0.6-0.7-1.1-0.7c-0.4-0.1-0.9,0-1.2,0.2C1827.7,180.6,1827.3,181,1827.2,181.4"/>
<path class="st2" d="M1822.5,203.9L1822.5,203.9c-0.2,0.9,0.4,1.8,1.2,2c0.9,0.2,1.7-0.4,2-1.2l0,0c0.2-0.9-0.4-1.7-1.2-2
	C1823.6,202.5,1822.7,203,1822.5,203.9z M1824.9,192.7L1824.9,192.7c-0.2,0.9,0.4,1.8,1.2,2c0.9,0.2,1.7-0.4,2-1.2l0,0
	c0.2-0.9-0.4-1.7-1.2-2C1825.9,191.2,1825.1,191.8,1824.9,192.7z"/>
<path class="st2" d="M1820.1,215.2c-0.1,0.4,0,0.9,0.2,1.2c0.2,0.3,0.6,0.7,1.1,0.7c0.4,0.1,0.9,0,1.2-0.2c0.3-0.2,0.7-0.6,0.7-1.1
	c0.1-0.4,0-0.9-0.2-1.2c-0.2-0.3-0.6-0.7-1.1-0.7c-0.4-0.1-0.9,0-1.2,0.2C1820.5,214.4,1820.2,214.8,1820.1,215.2"/>
<path class="st0" d="M127.8,214.5c-7.3,0-13.2-5.9-13.2-13.2c0-7.3,5.9-13.2,13.2-13.2c7.3,0,13.2,5.9,13.2,13.2
	C140.9,208.6,135.1,214.5,127.8,214.5z M127.8,193.3c-4.4,0-7.9,3.6-7.9,7.9s3.6,7.9,7.9,7.9c4.4,0,7.9-3.6,7.9-7.9
	S132.2,193.3,127.8,193.3z"/>
<path class="st4" d="M193.6,30c0.4-0.1,0.7-0.4,1-0.8c0.2-0.4,0.2-0.8,0.2-1.2c-0.1-0.4-0.4-0.7-0.8-1c-0.4-0.2-0.8-0.2-1.2-0.2
	c-0.4,0.1-0.7,0.4-1,0.8c-0.2,0.4-0.2,0.8-0.2,1.2c0.1,0.4,0.4,0.7,0.8,1C192.7,30.1,193.2,30.1,193.6,30"/>
<path class="st4" d="M215.6,23.4L215.6,23.4c0.9-0.2,1.4-1.2,1.2-2.1c-0.2-0.9-1.2-1.4-2.1-1.1l0,0c-0.9,0.2-1.4,1.2-1.1,2.1
	C213.9,23.2,214.8,23.7,215.6,23.4z M204.6,26.7L204.6,26.7c0.9-0.2,1.4-1.2,1.2-2.1c-0.2-0.9-1.2-1.4-2.1-1.1l0,0
	c-0.9,0.2-1.4,1.2-1.1,2.1C202.8,26.5,203.8,27,204.6,26.7z"/>
<path class="st4" d="M226.7,20.1c0.4-0.1,0.7-0.4,1-0.8c0.2-0.4,0.2-0.8,0.2-1.2c-0.2-0.4-0.4-0.7-0.8-1c-0.4-0.2-0.8-0.2-1.2-0.2
	c-0.4,0.1-0.7,0.4-1,0.8c-0.2,0.4-0.2,0.8-0.2,1.2c0.1,0.4,0.4,0.7,0.8,1C225.8,20.2,226.3,20.3,226.7,20.1"/>
<path class="st2" d="M201.1,34.1c0.4-0.1,0.7-0.4,1-0.8c0.2-0.4,0.2-0.8,0.2-1.2c-0.2-0.4-0.4-0.7-0.8-1c-0.4-0.2-0.8-0.2-1.2-0.2
	c-0.4,0.2-0.7,0.4-1,0.8c-0.2,0.4-0.2,0.8-0.2,1.2c0.2,0.4,0.4,0.7,0.8,1C200.3,34.2,200.7,34.3,201.1,34.1"/>
<path class="st2" d="M223.2,27.6L223.2,27.6c0.9-0.2,1.4-1.2,1.2-2.1c-0.2-0.9-1.2-1.4-2.1-1.1l0,0c-0.9,0.2-1.4,1.2-1.1,2.1
	C221.4,27.3,222.3,27.8,223.2,27.6z M212.1,30.9L212.1,30.9c0.9-0.2,1.4-1.2,1.2-2.1c-0.2-0.9-1.2-1.4-2.1-1.1l0,0
	c-0.9,0.2-1.4,1.2-1.1,2.1C210.4,30.6,211.3,31.1,212.1,30.9z"/>
<path class="st2" d="M234.2,24.3c0.4-0.1,0.7-0.4,1-0.8c0.2-0.4,0.2-0.8,0.2-1.2c-0.1-0.4-0.4-0.7-0.8-1c-0.4-0.2-0.8-0.2-1.2-0.2
	c-0.4,0.2-0.7,0.4-1,0.8c-0.2,0.4-0.2,0.8-0.2,1.2c0.1,0.4,0.4,0.7,0.8,1C233.4,24.3,233.8,24.4,234.2,24.3"/>
<polygon class="st1" points="699.2,15.1 712.1,21.4 700.1,29.4 "/>
<polygon class="st1" points="705.6,24.6 718.4,30.9 706.5,39 "/>
<polygon class="st1" points="711.9,34.2 724.8,40.5 712.8,48.6 "/>
<polygon class="st1" points="96.5,97.9 107.1,88.1 110.3,102.2 "/>
<polygon class="st1" points="107.7,95.4 118.3,85.6 121.4,99.7 "/>
<polygon class="st1" points="119,92.9 129.5,83.1 132.7,97.2 "/>
<path class="st0" d="M432.4,13.3c-1.2,2.8-3.5,3.5-5.5,4.1c-1.8,0.6-3.2,1-4.1,2.8c-0.8,1.9-0.2,3.2,0.6,5c0.8,1.9,1.8,4,0.6,6.8
	s-3.5,3.5-5.5,4.1c-1.8,0.6-3.2,1-4.1,2.8c-0.8,1.9-0.2,3.2,0.6,5c0.8,1.9,1.8,4,0.6,6.8c-1.2,2.8-3.5,3.5-5.5,4.1
	c-1.8,0.6-3.2,1-4.1,2.8c-0.8,1.9-0.2,3.2,0.6,5c0.8,1.9,1.8,4,0.6,6.8c-0.2,0.6-0.9,0.8-1.5,0.6c-0.6-0.2-0.8-0.9-0.6-1.5
	c0.8-1.9,0.2-3.2-0.6-5c-0.8-1.9-1.8-4-0.5-6.8c1.2-2.8,3.5-3.5,5.5-4.1c1.8-0.6,3.2-1,4.1-2.8c0.8-1.9,0.2-3.2-0.6-5
	c-0.8-1.9-1.8-4-0.6-6.8s3.5-3.5,5.5-4.1c1.8-0.6,3.2-1,4.1-2.8c0.8-1.9,0.2-3.2-0.6-5c-0.8-1.9-1.8-4-0.6-6.8
	c1.2-2.8,3.5-3.5,5.5-4.1c1.8-0.6,3.2-1,4.1-2.8c0.2-0.6,0.9-0.8,1.5-0.6C432.4,12.1,432.6,12.7,432.4,13.3z"/>
<path class="st1" d="M439.7,18.4c-1.2,2.8-3.5,3.5-5.5,4.1c-1.8,0.6-3.2,1-4.1,2.8c-0.8,1.9-0.2,3.2,0.6,5c0.8,1.9,1.8,4,0.6,6.8
	c-1.2,2.8-3.5,3.5-5.5,4.1c-1.8,0.6-3.2,1-4.1,2.8c-0.8,1.9-0.2,3.2,0.6,5c0.8,1.9,1.8,4,0.6,6.8s-3.5,3.5-5.5,4.1
	c-1.8,0.6-3.2,1-4.1,2.8c-0.8,1.9-0.2,3.2,0.6,5c0.8,1.9,1.8,4,0.6,6.8c-0.2,0.6-0.9,0.8-1.5,0.6c-0.6-0.2-0.8-0.9-0.6-1.5
	c0.8-1.9,0.2-3.2-0.6-5c-0.8-1.9-1.8-4-0.5-6.8c1.2-2.8,3.5-3.5,5.5-4.1c1.8-0.6,3.2-1,4.1-2.8c0.8-1.9,0.2-3.2-0.6-5
	c-0.8-1.9-1.8-4-0.6-6.8c1.2-2.8,3.5-3.5,5.5-4.1c1.8-0.6,3.2-1,4.1-2.8c0.8-1.9,0.2-3.2-0.6-5c-0.8-1.9-1.8-4-0.6-6.8
	c1.2-2.8,3.5-3.5,5.5-4.1c1.8-0.6,3.2-1,4.1-2.8c0.2-0.6,0.9-0.8,1.5-0.6C439.7,17.3,440,17.9,439.7,18.4z"/>
<path class="st2" d="M278.4,98.8c0.4,0,0.8-0.2,1.2-0.5c0.3-0.3,0.5-0.7,0.5-1.2c0-0.4-0.2-0.8-0.5-1.2c-0.3-0.3-0.7-0.5-1.2-0.5
	s-0.8,0.2-1.2,0.5c-0.3,0.3-0.5,0.7-0.5,1.2c0,0.4,0.2,0.8,0.5,1.2C277.5,98.7,277.9,98.8,278.4,98.8"/>
<path class="st2" d="M295.4,98.8L295.4,98.8c0.9,0,1.7-0.7,1.7-1.7c0-0.9-0.7-1.7-1.7-1.7l0,0c-0.9,0-1.7,0.7-1.7,1.7
	C293.8,98.1,294.5,98.8,295.4,98.8z"/>
<path class="st2" d="M286.9,98.8L286.9,98.8c0.9,0,1.7-0.7,1.7-1.7c0-0.9-0.7-1.7-1.7-1.7l0,0c-0.9,0-1.7,0.7-1.7,1.7
	C285.2,98.1,286,98.8,286.9,98.8z"/>
<path class="st2" d="M278.4,92c0.4,0,0.8-0.2,1.2-0.5c0.3-0.3,0.5-0.7,0.5-1.2s-0.2-0.8-0.5-1.2c-0.3-0.3-0.7-0.5-1.2-0.5
	s-0.8,0.2-1.2,0.5c-0.3,0.3-0.5,0.7-0.5,1.2s0.2,0.8,0.5,1.2C277.5,91.9,277.9,92,278.4,92"/>
<path class="st2" d="M295.4,92L295.4,92c0.9,0,1.7-0.7,1.7-1.7s-0.7-1.7-1.7-1.7l0,0c-0.9,0-1.7,0.7-1.7,1.7S294.5,92,295.4,92z"/>
<path class="st2" d="M286.9,92L286.9,92c0.9,0,1.7-0.7,1.7-1.7s-0.7-1.7-1.7-1.7l0,0c-0.9,0-1.7,0.7-1.7,1.7S286,92,286.9,92z"/>
<path class="st2" d="M278.4,105.7c0.4,0,0.8-0.2,1.2-0.5c0.3-0.3,0.5-0.7,0.5-1.2c0-0.4-0.2-0.8-0.5-1.2c-0.3-0.3-0.7-0.5-1.2-0.5
	s-0.8,0.2-1.2,0.5c-0.3,0.3-0.5,0.7-0.5,1.2c0,0.4,0.2,0.8,0.5,1.2C277.5,105.4,277.9,105.7,278.4,105.7"/>
<path class="st2" d="M295.4,105.7L295.4,105.7c0.9,0,1.7-0.7,1.7-1.7c0-0.9-0.7-1.7-1.7-1.7l0,0c-0.9,0-1.7,0.7-1.7,1.7
	C293.8,104.9,294.5,105.7,295.4,105.7z"/>
<path class="st2" d="M286.9,105.7L286.9,105.7c0.9,0,1.7-0.7,1.7-1.7c0-0.9-0.7-1.7-1.7-1.7l0,0c-0.9,0-1.7,0.7-1.7,1.7
	C285.2,104.9,286,105.7,286.9,105.7z"/>
<path class="st0" d="M783.5,107.2h-2.4v-2.4c0-0.3-0.2-0.7-0.7-0.7c-0.3,0-0.7,0.2-0.7,0.7v2.4h-2.4c-0.3,0-0.7,0.2-0.7,0.7
	c0,0.3,0.2,0.7,0.7,0.7h2.4v2.4c0,0.3,0.2,0.7,0.7,0.7c0.3,0,0.7-0.2,0.7-0.7v-2.4h2.4c0.3,0,0.7-0.2,0.7-0.7
	C784,107.6,783.8,107.2,783.5,107.2z"/>
<path class="st0" d="M794.3,107.2h-2.4v-2.4c0-0.3-0.2-0.7-0.7-0.7c-0.3,0-0.7,0.2-0.7,0.7v2.4h-2.4c-0.3,0-0.7,0.2-0.7,0.7
	c0,0.3,0.2,0.7,0.7,0.7h2.4v2.4c0,0.3,0.2,0.7,0.7,0.7c0.3,0,0.7-0.2,0.7-0.7v-2.4h2.4c0.3,0,0.7-0.2,0.7-0.7
	C794.9,107.6,794.6,107.2,794.3,107.2z"/>
<path class="st0" d="M805.1,107.2h-2.4v-2.4c0-0.3-0.2-0.7-0.7-0.7c-0.3,0-0.7,0.2-0.7,0.7v2.4H799c-0.3,0-0.7,0.2-0.7,0.7
	c0,0.3,0.2,0.7,0.7,0.7h2.4v2.4c0,0.3,0.2,0.7,0.7,0.7c0.3,0,0.7-0.2,0.7-0.7v-2.4h2.4c0.3,0,0.7-0.2,0.7-0.7
	C805.7,107.6,805.5,107.2,805.1,107.2z"/>
<path class="st1" d="M1815.8,106.3c-7.3,0-13.2-5.9-13.2-13.2c0-7.3,5.9-13.2,13.2-13.2s13.2,5.9,13.2,13.2
	C1829,100.4,1823.1,106.3,1815.8,106.3z M1815.8,85.2c-4.4,0-7.9,3.6-7.9,7.9c0,4.4,3.6,7.9,7.9,7.9c4.4,0,7.9-3.6,7.9-7.9
	C1823.8,88.8,1820.2,85.2,1815.8,85.2z"/>
</svg>
