<?xml version="1.0" encoding="utf-8"?>
<!-- Generator: Adobe Illustrator 23.1.1, SVG Export Plug-In . SVG Version: 6.00 Build 0)  -->
<svg version="1.1" id="Layer_1" xmlns="http://www.w3.org/2000/svg" xmlns:xlink="http://www.w3.org/1999/xlink" x="0px" y="0px"
	 viewBox="0 0 512 375" style="enable-background:new 0 0 512 375;" xml:space="preserve">
<style type="text/css">
	.st0{fill:#EBEDFF;}
	.st1{fill:#D2D5FB;}
	.st2{fill:#BABFE8;}
	.st3{fill:#FFFFFF;}
	.st4{fill:#9BA3D3;}
	.st5{fill:#BA95F4;}
	.st6{fill:#FFA683;}
	.st7{fill:#E6E1EF;}
	.st8{opacity:0.42;fill:#7327CC;enable-background:new    ;}
	.st9{fill:#5725A5;}
	.st10{opacity:0.35;fill:#441982;enable-background:new    ;}
	.st11{fill:#441982;}
	.st12{fill:#F48260;}
	.st13{fill:#7327CC;}
	.st14{fill:#976CEA;}
	.st15{opacity:0.25;}
</style>
<g>
	<g>
		<g>
			<path class="st0" d="M73.2,357.8h380.5c12.1-18.5,69.9-110.6,34.8-130.2c-39.1-21.8-31.4-27.4-30.6-127.9
				c1-109.2-63.7-94.3-170.5-55.1c-106.8,39.1-101.8-8.4-183.8,15.3C21.9,83.6,96.4,175.7,34,244.2
				C-18.3,301.5,49.7,345.1,73.2,357.8z"/>
			<path class="st0" d="M168.6,39.4c0,0,36.7,27.2,102,0.6C336,13.4,142.9,15.9,168.6,39.4z"/>
		</g>
		<g>
			<rect x="151" y="287.3" class="st1" width="78.5" height="70.6"/>
			<rect x="156.9" y="293.2" class="st2" width="66.7" height="16.8"/>
			<rect x="157" y="314.3" class="st2" width="66.7" height="16.8"/>
			<rect x="157" y="336.3" class="st2" width="66.7" height="16.8"/>
			<circle class="st0" cx="190.3" cy="302" r="3.3"/>
			<path class="st0" d="M193.6,323.1c0,1.8-1.5,3.3-3.3,3.3s-3.3-1.5-3.3-3.3s1.5-3.3,3.3-3.3C192.1,319.7,193.6,321.2,193.6,323.1z
				"/>
			<path class="st0" d="M193.6,346.4c0,1.8-1.5,3.3-3.3,3.3s-3.3-1.5-3.3-3.3s1.5-3.3,3.3-3.3C192.1,343,193.6,344.5,193.6,346.4z"
				/>
		</g>
		<g>
			<path class="st3" d="M231.1,81.8H99.9c-3.8,0-6.9,3.1-6.9,6.9v85.1c0,3.8,3.1,6.9,6.9,6.9h131.2c3.8,0,6.9-3.1,6.9-6.9V88.7
				C238,84.9,234.9,81.8,231.1,81.8z"/>
			<path class="st0" d="M98.7,173.2v-84c0-1,0.8-1.7,1.7-1.7h130.1c1,0,1.7,0.8,1.7,1.7v84c0,1-0.8,1.7-1.7,1.7H100.4
				C99.5,175,98.7,174.2,98.7,173.2z"/>
			<g>
				<path class="st2" d="M230.4,87.5h-37.7c2,9.8,9.7,42,25.8,58h13.9V89.4C232.3,88.4,231.4,87.5,230.4,87.5z"/>
				<polygon class="st1" points="218.4,145.5 218.4,154 232.1,154 232.3,145.5 				"/>
				<path class="st2" d="M232.3,173v-18.9l-0.2-0.1h-13.7c0,0-6.5,16.9-6.9,20.8l0.2,0.1h18.6C231.4,175,232.3,174.1,232.3,173z"/>
			</g>
			<g>
				<path class="st2" d="M100.9,87.5h37.7c-2,9.8-9.7,42-25.8,58H99V89.4C99,88.4,99.8,87.5,100.9,87.5z"/>
				<polygon class="st1" points="112.9,145.5 112.9,154 99.2,154 99,145.5 				"/>
				<path class="st2" d="M99,173v-18.9l0.2-0.1h13.7c0,0,6.5,16.9,6.9,20.8l-0.2,0.1H101C99.8,175,99,174.1,99,173z"/>
			</g>
		</g>
		<g>
			<path class="st1" d="M353,86.3h-64.9c-1.9,0-3.4,1.5-3.4,3.4v42.1c0,1.9,1.5,3.4,3.4,3.4H353c1.9,0,3.4-1.5,3.4-3.4V89.7
				C356.4,87.8,354.9,86.3,353,86.3z"/>
			<g>
				<path class="st2" d="M356.4,93.4V90c0-2.1-1.7-3.8-3.8-3.8h-64.2c-2.1,0-3.8,1.7-3.8,3.8v3.4H356.4z"/>
				<path class="st0" d="M299.7,100.3h-10c-0.4,0-0.8,0.4-0.8,0.8v10c0,0.4,0.4,0.8,0.8,0.8h10c0.4,0,0.8-0.4,0.8-0.8v-10
					C300.5,100.6,300.2,100.3,299.7,100.3z"/>
				<path class="st3" d="M317,100.3h-10c-0.4,0-0.8,0.4-0.8,0.8v10c0,0.4,0.4,0.8,0.8,0.8h10c0.4,0,0.8-0.4,0.8-0.8v-10
					C317.8,100.6,317.4,100.3,317,100.3z"/>
				<path class="st2" d="M334.2,100.3h-10c-0.4,0-0.8,0.4-0.8,0.8v10c0,0.4,0.4,0.8,0.8,0.8h10c0.4,0,0.8-0.4,0.8-0.8v-10
					C335,100.6,334.6,100.3,334.2,100.3z"/>
				<path class="st0" d="M350.8,100.3h-10c-0.4,0-0.8,0.4-0.8,0.8v10c0,0.4,0.4,0.8,0.8,0.8h10c0.4,0,0.8-0.4,0.8-0.8v-10
					C351.6,100.6,351.2,100.3,350.8,100.3z"/>
				<path class="st2" d="M299.7,116.5h-10c-0.4,0-0.8,0.4-0.8,0.8v10c0,0.4,0.4,0.8,0.8,0.8h10c0.4,0,0.8-0.4,0.8-0.8v-10
					C300.5,116.8,300.2,116.5,299.7,116.5z"/>
				<path class="st0" d="M317,116.5h-10c-0.4,0-0.8,0.4-0.8,0.8v10c0,0.4,0.4,0.8,0.8,0.8h10c0.4,0,0.8-0.4,0.8-0.8v-10
					C317.8,116.8,317.4,116.5,317,116.5z"/>
				<path class="st3" d="M334.2,116.5h-10c-0.4,0-0.8,0.4-0.8,0.8v10c0,0.4,0.4,0.8,0.8,0.8h10c0.4,0,0.8-0.4,0.8-0.8v-10
					C335,116.8,334.6,116.5,334.2,116.5z"/>
				<path class="st0" d="M350.8,116.5h-10c-0.4,0-0.8,0.4-0.8,0.8v10c0,0.4,0.4,0.8,0.8,0.8h10c0.4,0,0.8-0.4,0.8-0.8v-10
					C351.6,116.8,351.2,116.5,350.8,116.5z"/>
			</g>
		</g>
		<g>
			<rect x="233.5" y="235.2" class="st1" width="228.1" height="8.3"/>
			<rect x="247.4" y="243.6" class="st1" width="195.8" height="114.7"/>
			<rect x="247.4" y="243.6" class="st2" width="195.8" height="12.2"/>
		</g>
		<g>
			
				<ellipse transform="matrix(0.7071 -0.7071 0.7071 0.7071 60.3806 313.194)" class="st1" cx="408.2" cy="83.7" rx="25.7" ry="25.7"/>
			<g>
				<circle class="st0" cx="408.3" cy="83.7" r="18.9"/>
				<g>
					<path class="st1" d="M402.3,92c-0.2,0-0.5-0.1-0.6-0.3c-0.3-0.4-0.3-0.9,0.1-1.2l5.9-5.1V72.1c0-0.5,0.4-0.8,0.8-0.8
						c0.5,0,0.8,0.4,0.8,0.8v13.7c0,0.2-0.1,0.5-0.3,0.6l-6.2,5.3C402.7,91.9,402.5,92,402.3,92z"/>
				</g>
			</g>
		</g>
		<g>
			<path class="st1" d="M335.1,214.9h-75.7c-3.4,0-6.1-2.7-6.1-6.1v-42.3c0-3.4,2.7-6.1,6.1-6.1h75.7c3.4,0,6.1,2.7,6.1,6.1v42.3
				C341.2,212.2,338.5,214.9,335.1,214.9z"/>
			<path class="st2" d="M336.8,160.8c-2.6,0.9-4.5,3.4-4.5,6.3v41c0,2.9,1.9,5.4,4.5,6.3c2.6-0.9,4.5-3.4,4.5-6.3v-41
				C341.2,164.2,339.4,161.7,336.8,160.8z"/>
			<path class="st2" d="M312.4,229.1h-9.8v-37h-19.5v37v5.7h29.3c1.6,0,2.9-1.3,2.9-2.9C315.2,230.4,314,229.1,312.4,229.1z"/>
			<path class="st2" d="M312.2,229.1h-9.6v-37h-19.5v37l0,0c0,3.2,2.6,5.7,5.7,5.7h23.6c1.6,0,2.9-1.4,2.9-3
				C315.2,230.2,313.8,229.1,312.2,229.1z"/>
			<path class="st4" d="M315.2,231.9c0-1.6-1.3-2.9-2.9-2.9h-9.8v-37H296v37c0,3.2,2.6,5.7,5.7,5.7h10.7
				C314,234.8,315.2,233.5,315.2,231.9z"/>
			<path class="st2" d="M315.6,164.5h-43.3c-1,0-1.9,0.8-1.9,1.9l0,0c0,1,0.8,1.9,1.9,1.9h43.3c1,0,1.9-0.8,1.9-1.9l0,0
				C317.5,165.3,316.7,164.5,315.6,164.5z"/>
		</g>
		<rect x="361.1" y="217.9" class="st2" width="73" height="17.5"/>
		<rect x="354.1" y="205.6" class="st1" width="75.2" height="12.2"/>
		<rect x="361.4" y="190.3" class="st1" width="72.1" height="15.3"/>
		<rect x="361.4" y="200.3" class="st2" width="72.1" height="5.4"/>
		<g>
			<g>
				<path class="st2" d="M77.2,301.7l1.3,0.3c1.5-4,2.8-10.2,0.7-16.7c-3.7-11.1-5.5-25-12.7-35.4c-9.8-14.3-12.1-45.3-12.1-45.3
					s-11.9,24.6-3.8,47.8c8.1,23.2,17.7,29.3,22.5,33.8C78.2,291.1,78.1,297.4,77.2,301.7z"/>
				<path class="st4" d="M77.4,301.8l1,0.2c1.5-4,2.8-10.2,0.7-16.7c-3.7-11.1-5.5-25-12.7-35.4c-9.8-14.3-12.1-45.3-12.1-45.3
					s-6.6,33.2,1,44.9c7.6,11.7,8,8.8,13.4,20c5.5,11.1,7.2,14.3,8.9,20.7C78.7,294.3,78,299,77.4,301.8z"/>
			</g>
			<g>
				<path class="st2" d="M83.5,310.8c0,0,2.4-3.6,1-17.2c-1.4-13.5-5.3-26.5-3.1-41.2c2.2-14.8,18.3-52.2,18.4-54.7s4.3,43.1-4,61.2
					c-8.3,18.2-9.4,24.4-9.1,33.9c0.2,9.5-0.3,17.1-1.2,19.3L83.5,310.8z"/>
				<path class="st4" d="M85.3,283.5c0.9,6,1.2,21.2-0.3,24.9c-0.1,0.3-0.3,0.2-0.6-0.5c0.5-2.5,0.8-6.9,0.1-14.2
					c-1.4-13.5-5.3-26.5-3.1-41.2c2.2-14.8,18.3-52.2,18.4-54.7c0,0-2.8,31-11,52.4C82.9,265.5,84.4,277.5,85.3,283.5z"/>
			</g>
			<g>
				<path class="st2" d="M92.2,308c0,0-7.1-19.4,4.7-36.2c11.8-16.8,30.6-38.3,31-46.8c0,0,5,40.6-10.4,52s-26.2,13.2-23.4,30.9
					L92.2,308z"/>
				<path class="st4" d="M108.7,268.8c-17.1,13.8-18.5,29.9-15.8,37.3c0.2,0.6,0.6,0.9,1.1,1.1c-2.4-17.1,8.4-19,23.5-30.2
					c15.4-11.4,10.4-52,10.4-52S125.8,255,108.7,268.8z"/>
			</g>
			<g>
				<path class="st2" d="M71.1,312.7l-3.9-14c-14.4-51.2-54.8-52.9-54.8-52.9c4.2,0.8,26.1,17.6,29.5,32.4c1.6,7,8.7,11.9,15,15.2
					c4.5,2.4,7.9,6.5,9.3,11.5c1.2,4.2,1.8,8,1.8,8L71.1,312.7z"/>
				<path class="st4" d="M49.1,278.9c4.7,9.1,10.8,12.7,16.3,14c-15.7-45.5-53-47.1-53-47.1c0.8,0.2,2.4,1,4.3,2.2
					C24.5,252.3,40.8,262.9,49.1,278.9z"/>
			</g>
			<g>
				<path class="st1" d="M101.6,300.4H59.4c-5,0-8.9,4.6-8,9.5l7.6,42.8c0.5,3,3.1,5.2,6.2,5.2h30.6c3.1,0,5.7-2.2,6.2-5.2l7.6-42.8
					C110.4,304.9,106.6,300.4,101.6,300.4z"/>
				<path class="st2" d="M109.4,306.3c-1-3.4-4-5.9-7.8-5.9H59.4c-3.8,0-6.8,2.5-7.8,5.9H109.4z"/>
				<path class="st2" d="M101.6,300.4H90.8c5,0,8.9,4.6,8,9.5l-7.6,42.8c-0.5,3-3.1,5.2-6.2,5.2h10.8c3.1,0,5.7-2.2,6.2-5.2
					l7.6-42.8C110.4,304.9,106.6,300.4,101.6,300.4z"/>
			</g>
		</g>
		<g>
			<g>
				<g>
					<path class="st5" d="M386.2,158.8c3.6,0.6,20.9,3.6,24.3,5.9c2.9,2,17,43.2,14,45.3s-20.6,4.1-20.6,4.1l2,14.9l-20.2,4.6
						c-4.8,1.1-9.9,1.2-14.8,0.3l-17-3.1l3.5-42.9l-22.6,13c-1.6,0.9-3.7,0.2-4.6-1.4l-24.1-41.6l6.8-3.2l20.7,24.9l19.9-15.8
						c0,0,4.5-3.1,21-4.5L386.2,158.8z"/>
					<path class="st6" d="M312.5,155.2c0,0-3.5-7.2-4.8-7.5c-1.3-0.4-0.1,2.9-0.1,2.9s-4.4-3.3-7.8-2.9c-3.4,0.5,6.4,6.7,7.3,10
						C307.1,157.7,312.7,155.2,312.5,155.2z"/>
					<g>
						<g>
							<path class="st3" d="M331.1,208.9h36.6c1.7,0,3.2-1.4,3.2-3.2v-22c0-1.7-1.4-3.2-3.2-3.2h-36.6c-1.7,0-3.2,1.4-3.2,3.2v22
								C327.9,207.5,329.4,208.9,331.1,208.9z"/>
							<path class="st3" d="M350.8,208.9h30.4c1.6,0,3-1.3,3-3v0.3c0-1.6-1.3-3-3-3h-30.4c-1.6,0-3,1.3-3,3v-0.3
								C347.8,207.5,349.1,208.9,350.8,208.9z"/>
							<path class="st7" d="M374.3,203.3v2.1c0,1.9-1.6,3.5-3.5,3.5h-3.5c1.9,0,3.5-1.6,3.5-3.5v-2.1H374.3z"/>
						</g>
						<path class="st7" d="M342.8,196.4c0-2.7,2.2-4.9,4.9-4.9c2.7,0,4.9,2.2,4.9,4.9c0,2.7-2.2,4.9-4.9,4.9
							S342.8,199.1,342.8,196.4z"/>
					</g>
					<path class="st8" d="M403.1,195.3l-4.1-17.7l7.9,20.6c0.7,1.8-0.4,3.8-2.3,4.1L384,207l16.1-6.3
						C402.4,200,403.7,197.6,403.1,195.3z"/>
					<polygon class="st5" points="403.6,214.3 379.5,216.4 379.2,208.1 404.6,202.3 					"/>
					<path class="st8" d="M394.3,217.9c0.6,0.3,1.2,7.2,1.7,13.5l9.6-2.2l-2-14.9l-24.1,2.1C379.5,216.4,393.3,217.4,394.3,217.9z"
						/>
					<path class="st6" d="M379.5,214.4c0,0-4.2,1.4-9.5-3.9c-0.6-0.6-0.2-1.5,0.6-1.5l8.5-0.1L379.5,214.4z"/>
				</g>
				<g>
					<g>
						<path class="st9" d="M403.9,347l-11.9-0.2c-2.3-8.2-13.6-94.9-13.6-94.9l-14.9,31.6l7.3,63.2l-11.1,0.1c0,0-17.5-54.7-17.5-66
							c0-8.7,8.7-36.7,12.9-49.6l0.3-0.1l15.5,2.8c4.9,0.9,9.9,0.8,14.7-0.3l18.2-4.1l0,0C405.7,253.3,403.9,347,403.9,347z"/>
						<path class="st10" d="M403.9,347c0,0,0.9-42.8,0.8-77.5v-0.1c0-0.8,0-1.5,0-2.3c0-0.3,0-0.6,0-0.9c0-0.5,0-0.9,0-1.4
							c-0.1-15-0.3-28.2-0.8-35.3l-7.9,1.8l0,0l3.7,115.5l4,0.2L403.9,347z"/>
						<polygon class="st11" points="367.8,346.9 370.8,346.8 363.5,283.5 378.4,251.9 356.7,282.8 						"/>
					</g>
					<path class="st11" d="M360.6,346.8c-2.7,5.3-15.1,7.9-15.1,7.9s-0.9,1.6,0.5,3.6s14.5,0.9,16.2,0.6c1.6-0.4,2.8-1.7,2.8-1.7
						s1.1,1.2,1.7,1.5s4-0.3,4-0.3c0.8-2.1,0.1-10.3-0.1-11.6H360.6z"/>
					<path class="st11" d="M392.7,346.8c-2.7,5.3-15.1,7.9-15.1,7.9s-0.9,1.6,0.5,3.6s14.5,0.9,16.2,0.6c1.6-0.4,2.8-1.7,2.8-1.7
						s1.1,1.2,1.7,1.5s4-0.3,4-0.3c0.8-2.1,0.1-10.3-0.1-11.6H392.7z"/>
				</g>
				<g>
					<g>
						<path class="st6" d="M384.7,148.7v10l-5.9,4.2l-4-3.8l0.1-4.1c0.5,0.1,1,0.2,1.5,0.2c3.8,0,7.1-2.7,8-6.4
							C384.6,148.7,384.6,148.7,384.7,148.7z"/>
						<path class="st6" d="M387.1,142.3c-1.2-1.2-2.5-0.2-2.5-0.2s0,0-0.1,0.1c-3.4-0.8-8.3-4.5-8.3-4.5c-3.2,2-8,3.7-8,3.7v5.2
							c0,4.8,3.7,8.6,8.2,8.6c3.8,0,7.1-2.7,8-6.5C387.3,149.1,388.3,143.5,387.1,142.3z"/>
						<path class="st11" d="M384.7,152.6L384.7,152.6v-3.9c2.6,0.1,3.5-5.2,2.4-6.4c-1.2-1.2-2.5-0.2-2.5-0.2s0,0-0.1,0.1
							c-3.4-0.8-8.2-2.7-8.2-2.7c-4.2,2.5-8.1,2-8.1,2c-1.2-0.3-5.9-1.9-5.7-7.9c0.2-6.1,16.7-13.3,25.8-3.3
							C391.9,134.1,394.1,151,384.7,152.6z"/>
					</g>
					<path class="st12" d="M376.5,155.2c-0.5,0-1-0.1-1.5-0.2l-0.1,4.1l2.6,2.5v-4.8c6.6,0,7-8,7-8
						C383.6,152.4,380.3,155.2,376.5,155.2z"/>
					<path class="st11" d="M384.6,142.1L384.6,142.1c-0.5-0.1-1-0.2-1.5-0.4c0.2,2.1,0.2,7.3-2.6,10.1c-0.7-0.9-2.3-2.7-3.7-3
						c-1.4-0.3-3.5-0.1-4.6,0.1c-0.4,0.1-0.9,0.2-1.2,0.6l-1.4,1.4c-0.4-0.5-0.7-1-1-1.7c1,3.5,4.2,6.1,7.9,6.1c3.8,0,7.1-2.7,8-6.4
						c0.2,0,0.5,0,0.7,0l0,0L384.6,142.1z M377.9,151.9c-3.4,1.6-5.8,0.3-6.4-0.5c-0.1-0.2-0.1-0.5,0-0.6l0.6-0.6
						c0.7-0.7,2.8-0.5,3.7-0.5c0.9,0,1.6,0.8,2.2,1.3C378.2,151.3,378.2,151.8,377.9,151.9z"/>
				</g>
			</g>
			<g>
				<path class="st9" d="M283.8,346.8c-1.5-43.7-7.2-123.7-7.2-123.7H233c0,0-5.8,80-7.2,123.7h12.4c0,0,14.1-94,16.8-102.6
					c2.7,8.6,16.5,102.6,16.5,102.6H283.8z"/>
				<path class="st9" d="M283.8,346.8h-3.9l-12.7-123.7h9.3C276.6,223.1,282.4,303.1,283.8,346.8z"/>
				<path class="st10" d="M283.8,346.8h-3.9l-12.7-123.7h9.3C276.6,223.1,282.4,303.1,283.8,346.8z"/>
				<path class="st11" d="M227.2,346.8c-2.7,5.3-15.1,7.9-15.1,7.9s-0.9,1.6,0.5,3.6s14.5,0.9,16.2,0.6c1.6-0.4,2.8-1.7,2.8-1.7
					s1.1,1.2,1.7,1.5c0.6,0.3,4-0.3,4-0.3c0.8-2.1,0.1-10.3-0.1-11.6H227.2z"/>
				<path class="st11" d="M282.2,346.8c2.7,5.3,15.1,7.9,15.1,7.9s0.9,1.6-0.5,3.6s-14.5,0.9-16.2,0.6c-1.6-0.4-2.8-1.7-2.8-1.7
					s-1.1,1.2-1.7,1.5s-4-0.3-4-0.3c-0.8-2.1-0.1-10.3,0.1-11.6H282.2z"/>
				<g>
					<polygon class="st3" points="263.9,153.8 261,153 256.4,153 255.2,153 250.6,153 247.6,153.8 240.2,222.8 255.2,222.8 
						256.4,222.8 271.3,222.8 					"/>
					<path class="st13" d="M247.6,153.8c0,0-18.3,5.1-21.2,9.3c-2.8,4-13.3,25.6-12.6,38.5c0.1,1.4,1.3,2.4,2.7,2.3l13.9-3.1
						l-5,27.8c0,0,14.4,2.9,22.5,2.4L247.6,153.8z"/>
					<path class="st13" d="M263.9,153.8c0,0,18.3,5.1,21.2,9.3c2.8,4,13.6,24.7,12.9,37.6c-0.1,1.4-1.3,2.4-2.7,2.3l-14.2-2.2
						l5,27.8c0,0-14.2,3.3-22.3,2.8L263.9,153.8z"/>
					<path class="st5" d="M261,160.1l-5.1-2.9l-4.7,2.9l3,4.2c0,0-2.9,42.8-3,47.3c0,0.7,1.8,2.9,3.4,4.8c0.5,0.5,0.9,1,1.3,1.5
						c0.4-0.4,0.8-0.9,1.3-1.5c1.6-1.9,3.5-4.1,3.4-4.8c-0.1-4.6-2.7-47.2-2.7-47.2L261,160.1z"/>
					<polygon class="st13" points="230.4,200.8 273.5,193.6 271.2,183.6 222,188.4 					"/>
					<path class="st6" d="M272.9,192.5c0,0,6.3-2,8.4-1.7s1.1-7-10.1-7.2L272.9,192.5z"/>
					<path class="st6" d="M245,186c0,0-3.6-3.7-9.3-3.3c-3.1,0.3-5.5,4.7-5.5,4.7L245,186z"/>
					<polygon class="st10" points="228.5,211.3 247.7,197.9 230.4,200.8 					"/>
					<polygon class="st10" points="230.3,187.4 226.8,187.3 233.8,176.6 					"/>
					<path class="st10" d="M281.4,190.8c0,0,3.6,0.1,4-0.5s-4.5-12.5-4.5-12.5S284.5,189.8,281.4,190.8z"/>
					<path class="st10" d="M286.2,228.6l-2.9-15.7l0,0l-2.2-12.1l-17.3-3v1l12.7,9.2l3.7,21.8C283.7,229.2,286.2,228.6,286.2,228.6z
						"/>
				</g>
				<path class="st11" d="M254.9,244.2L254.9,244.2c-2.4,2-4,4.8-4.6,7.9l-16.5,94.7h4.4C238.2,346.8,249.8,267.7,254.9,244.2z"/>
				<g>
					<polygon class="st6" points="260.4,152.6 256,155.2 251.4,152.6 251.4,143.9 260.4,143.9 					"/>
					<path class="st11" d="M244.4,136.9c0,0-1.8-6.7,0.1-10.1c1.9-3.4,5-7.2,8.1-5c0,0,1.8-2.4,8.4-0.8c6.5,1.6,9.7,1.6,12.1,0.4
						c2.3-1.2,0.5,10.8-4.3,11.5c0,0-0.4,3.1-1.3,4.2c-1,1.1-12.6,1.7-12.6,1.7L244.4,136.9z"/>
					<path class="st6" d="M253.8,128.1c-0.3-0.4-1,1.3-2.6,2.6c-1.8,1.6-4.3,2.6-4.3,2.6v6.5c0,0,1.3,8.8,9.3,8.8
						c6.6,0,8.9-8.8,8.9-8.8v-5.6v-2C265.1,132.3,257.3,132,253.8,128.1z"/>
					<path class="st12" d="M260.4,147.3v1.8c-1.1,0.8-2.5,1.4-4.2,1.4c-2,0-3.6-0.6-4.8-1.4v-1.8c1.2,0.8,2.8,1.4,4.8,1.4
						C257.9,148.7,259.2,148.1,260.4,147.3z"/>
					<path class="st6" d="M250.7,137.7c0-1.8-1.4-3.2-3.2-3.2s-3.2,1.4-3.2,3.2s1.9,3.7,3.7,3.7S250.7,139.4,250.7,137.7z"/>
					<path class="st6" d="M262.1,137.7c0-1.8,1.4-3.2,3.2-3.2c1.8,0,3.2,1.4,3.2,3.2s-1.9,3.7-3.7,3.7S262.1,139.4,262.1,137.7z"/>
				</g>
			</g>
			<g>
				<g>
					<path class="st13" d="M130.9,349v7.2c0,1.8-1.3,3.3-3,3.3h-21.7c-1.2,0-1.6-1.7-0.6-2.4c2.9-2.1,12.3-5,15.3-7.1L130.9,349z"/>
					<path class="st6" d="M136.9,277.6c-1.4,19.1-5.2,69.1-6.2,72c-1.2,3.5-10.8,1.6-10.2,0.6c0.2-0.4,2-0.6,3.3-3.3
						c0.4-0.8,0.3-6.1,0.2-7c-0.6-8.5-3.7-52.1-4.6-65.2C123.9,275.9,130.1,277.2,136.9,277.6z"/>
				</g>
				<g>
					<path class="st13" d="M145.7,349v7.2c0,1.8,1.3,3.3,3,3.3h21.7c1.2,0,1.6-1.7,0.6-2.4c-2.9-2.1-12.3-5-15.3-7.1L145.7,349z"/>
					<path class="st6" d="M156.2,350.2c0.6,1-9,2.9-10.2-0.6c-1-2.8-4.8-52.6-6.2-71.8c5.6,0.1,11.6-0.5,17.4-2.4
						c-0.9,14-3.9,56.2-4.5,64.5c-0.1,0.9-0.2,6.2,0.2,7C154.2,349.6,156,349.9,156.2,350.2z"/>
				</g>
				<path class="st5" d="M115.3,217.1l0.2,0.2l-1,2.1C114.8,218.6,115.1,217.8,115.3,217.1z"/>
				<path class="st5" d="M122.5,165.8"/>
				<g>
					<path class="st13" d="M165.5,271.8c-24,13.3-54.2,0-54.2,0c-4.5-23.5-0.2-42.4,3.2-52.4l0,0c0.3-0.8,0.6-1.6,0.8-2.3
						c1.2-3.1,2.1-5,2.3-5.4l0,0c1.3,0.9,17.4,10.9,39.3,0h0.4l0,0c0,0,0-0.1-0.1-0.1l0,0h0.1C168.6,239.9,165.5,271.8,165.5,271.8z
						"/>
					<path class="st10" d="M165.5,271.8c-4.3,2.4-8.9,3.9-13.4,4.8c5.8-15.7,0.5-50.9-1.4-62.3c2-0.7,4.2-1.6,6.3-2.7h0.4l0,0
						c0,0,0-0.1-0.1-0.1l0,0h0.1C168.6,239.9,165.5,271.8,165.5,271.8z"/>
				</g>
				<path class="st12" d="M136.9,277.6c-1.4,19.1-5.2,69.1-6.2,72c-0.3,0.9-1.2,1.5-2.4,1.8c3.8-12.7,3.5-72.1,3.5-72.1
					c-4,0.1-8.9-1.9-12.3-3.4c-0.1-1.4,0-0.2-0.1-1.3C123.9,275.9,130.1,277.2,136.9,277.6z"/>
				<path class="st12" d="M152.9,346.9c-0.4-0.8-0.2-6.1-0.2-7c0.6-8.3,3.6-50.5,4.5-64.5c-0.7,0.2-1.4,0.4-2.1,0.6
					c-0.4,0.1-0.8,0.2-1.1,0.3c-0.4,0.1-0.8,0.2-1.2,0.3c-4.4,0.9-8.8,1.3-13,1.2c0,0.5,0.1,0.9,0.1,1.4c2.4,0,8.4-0.1,12.1-0.6
					c-0.6,10.9-3.3,66.1-1.4,69.8c0.5,1.1,2.2,2,4.4,2.8c0.9-0.3,1.4-0.6,1.2-0.8C156,349.9,154.2,349.6,152.9,346.9z"/>
				<g>
					<path class="st6" d="M192.9,158.5c0,0,3.8-5.9,4.9-6.1c1.1-0.2-0.2,2.5-0.2,2.5s4.1-2.5,7.1-1.7s-6.2,5.2-7.4,8
						C197.3,161.3,192.7,158.5,192.9,158.5z"/>
					<path class="st6" d="M120.2,222.5c0-0.5-4.6-4.3-4.9-4.4c0-0.1-0.1-0.1-0.1-0.2l-2.9,6c0,0,7,5.9,7.7,5.3
						c0.5-0.4-1.2-3-2.4-6.6C118.8,222.4,120.2,222.8,120.2,222.5z"/>
					<g>
						<path class="st5" d="M158.9,184.2c0.8,1.7,1.5,3.7,1.3,5.8c-0.1,1.7-0.8,3.5-2.4,5c-0.3,0.3-0.6,0.6-0.8,0.9
							c-0.1,0.1-0.1,0.1-0.2,0.2c-4.2,5.7-0.2,14,0.4,15.3c0,0.1,0,0.1,0.1,0.1l0,0h-0.4c-21.9,10.9-38,0.9-39.3,0h-0.1l0,0
							c0.4-0.7,4.9-9.4,0.5-15.4c-0.3-0.4-0.6-0.8-1-1.1c-3.5-3.5-2.5-9.2-1.1-12.2l-12.2,17.1l11.6,17.3l-3.4,7.1
							c0,0-23.1-21.9-22.8-23.6c0.3-1.6,18.5-33.8,24.5-38.1s18.1-4.9,18.1-4.9h8.8c0,0,9-0.5,16.3,4.7l15.3,15.2l20-19.7l5.3,3.2
							c0,0-18,24.4-24.4,31.7c-1.1,1.2-2.9,1.3-4.1,0.2L158.9,184.2z"/>
						<path class="st14" d="M172.3,191.4c-3.8,2.9-19.7-17.4-17.2-12.9c2.6,4.4-2,10.2-6.1,20.1c-3.5,8.6,0.2,14.3,1.2,15.7
							c2.1-0.7,4.3-1.6,6.6-2.7h0.4l0,0c0,0,0-0.1-0.1-0.1c-0.7-1.3-4.6-9.6-0.4-15.3c0.1-0.1,0.1-0.1,0.2-0.2
							c0.2-0.3,0.5-0.6,0.8-0.9c1.6-1.6,2.3-3.3,2.4-5c0.2-2.1-0.5-4.2-1.3-5.8l10.2,9.2c1.2,1.1,3.1,1,4.1-0.2
							c6.4-7.3,24.4-31.7,24.4-31.7C197.6,161.1,176.5,188.2,172.3,191.4z"/>
						<g>
							<path class="st14" d="M116.1,182.9c0,0,2.2-7,3.7-8.7c0,0-18.2,23.2-19,25.9c-0.9,2.6,14.7,17.2,14.7,17.2L103.9,200
								L116.1,182.9z"/>
							<path class="st14" d="M116.1,182.9c-0.4,0.8-0.8,1.9-1,3L116.1,182.9z"/>
						</g>
						<g class="st15">
							<path class="st3" d="M145.1,158.2H129c-1.8,0.2-4.2,0.6-6.7,1.2h28.2C148.5,158.7,146.7,158.4,145.1,158.2z"/>
							<polygon class="st3" points="192.3,158.2 191.2,159.3 194.2,159.3 							"/>
							<path class="st3" d="M195.5,164.3h-9.3l-1.2,1.2h9.7C194.9,165,195.2,164.6,195.5,164.3z"/>
							<path class="st3" d="M158.7,164.3h-46.5c-0.3,0.4-0.7,0.7-1,1.2h48.7L158.7,164.3z"/>
							<path class="st3" d="M190.9,170.4h-11l-1.2,1.2H190C190.3,171.2,190.6,170.8,190.9,170.4z"/>
							<path class="st3" d="M164.9,170.4h-57.4c-0.3,0.4-0.5,0.8-0.8,1.2h59.4L164.9,170.4z"/>
							<path class="st3" d="M171,176.5h-67.6c-0.3,0.4-0.5,0.8-0.8,1.2h69.5L171,176.5z"/>
							<path class="st3" d="M186.3,176.5h-12.6l-1.2,1.2h12.9C185.7,177.3,186,176.9,186.3,176.5z"/>
							<path class="st3" d="M116.1,182.9c-0.1,0.3-0.3,0.6-0.4,0.9h65c0.3-0.4,0.6-0.8,0.9-1.2h-82c-0.2,0.4-0.5,0.8-0.7,1.2h16.6
								L116.1,182.9z"/>
							<path class="st3" d="M111.9,188.7h-16c-0.2,0.4-0.5,0.8-0.7,1.2H111L111.9,188.7z"/>
							<path class="st3" d="M165.2,189.9h10.6c0.3-0.4,0.6-0.8,1-1.2h-12.9L165.2,189.9z"/>
							<path class="st3" d="M114.8,189.9h45.4c0-0.4,0-0.8,0-1.2h-45.4C114.8,189.1,114.8,189.5,114.8,189.9z"/>
							<path class="st3" d="M107.6,194.9H92.4c-0.2,0.4-0.4,0.8-0.7,1.2h15L107.6,194.9z"/>
							<path class="st3" d="M117.2,195.1c0.3,0.3,0.6,0.6,0.8,1h39c0,0,0,0,0-0.1c0.2-0.3,0.5-0.6,0.8-0.9c0.1-0.1,0.1-0.2,0.2-0.2
								h-41C117,194.9,117.1,195,117.2,195.1z"/>
							<path class="st3" d="M104.6,201H89.4c0.1,0.2,0.3,0.6,0.8,1.2h15.2L104.6,201z"/>
							<path class="st3" d="M120,202.2h34.9c0-0.4,0-0.8,0.1-1.2h-35.1C120,201.4,120,201.8,120,202.2z"/>
							<path class="st3" d="M119,208.3h37c-0.1-0.4-0.2-0.8-0.4-1.2h-36.2C119.2,207.5,119.1,207.9,119,208.3z"/>
							<path class="st3" d="M108.7,207.1H94.6c0.4,0.4,0.8,0.8,1.1,1.2h13.7L108.7,207.1z"/>
							<path class="st3" d="M123.4,214.4h27c1-0.3,2.1-0.7,3.2-1.2h-33C121.3,213.6,122.3,214,123.4,214.4z"/>
							<path class="st3" d="M112.8,213.2h-12.1c0.4,0.4,0.8,0.8,1.2,1.2h11.7L112.8,213.2z"/>
							<path class="st3" d="M114.6,219.3h-7.7c0.4,0.4,0.8,0.8,1.2,1.2h5.9L114.6,219.3z"/>
						</g>
					</g>
				</g>
				<g>
					<g>
						<polygon class="st6" points="140.1,158.3 136,160.8 131.7,158.3 131.7,150.2 140.1,150.2 						"/>
						<path class="st6" d="M140.1,153.4v4.9l-1,0.6c0-0.2,0.1-0.4,0.1-0.6C139.6,156.1,139.9,154.4,140.1,153.4z"/>
						<path class="st6" d="M144.5,140.4v6.1c0,0-1.2,4.6-4.4,6.9C140.6,150.8,144,143.2,144.5,140.4z"/>
						<path class="st12" d="M140.1,153.4v1.7c-1.1,0.8-2.3,1.3-3.9,1.3c-1.9,0-3.3-0.5-4.5-1.3v-1.7c1.2,0.8,2.6,1.3,4.5,1.3
							C137.8,154.7,139,154.2,140.1,153.4z"/>
						<path class="st6" d="M144.6,141.5h-0.1v-0.2v-1.8c0,0-11.7,0.7-13.8-4c-0.2-0.4-3.1,5-3.1,5v1.1c-1.4,0.3-2.4,1.5-2.4,2.9
							s1.3,2.9,2.7,3.3c0.7,2.3,2.8,6.9,8.3,6.9c4.5,0,6.9-4.5,7.8-6.8h0.1c1.6,0,3.4-1.8,3.4-3.4
							C147.6,142.8,146.3,141.5,144.6,141.5z"/>
					</g>
					<path class="st11" d="M144,147.9h0.1c1.6,0,3.4-1.8,3.4-3.4c0-1.6-1.3-2.9-2.9-2.9h-0.1v-2c0,0-11.7,0.7-13.8-4
						c-0.2-0.4-3.1,5-3.1,5v1.1c-1.4,0.3-2.4,1.5-2.4,2.9s1.3,2.9,2.7,3.3c0.5,1.5,1.5,4.1,3.8,5.6v3.4
						c-14.1-8.5-12.4-26.9-5.4-30.4c3.2-1.5,4.7-0.3,4.7-0.3c11-9.7,20,1.7,22.6,6.1c3.7,6,18.6,45,3.1,50.2
						c-28.3,9.6-19.4-26.2-16.7-29C142.4,151.1,143.8,148.9,144,147.9z"/>
				</g>
			</g>
		</g>
	</g>
</g>
</svg>
