<?xml version="1.0" encoding="utf-8"?>
<!-- Generator: Adobe Illustrator 23.1.1, SVG Export Plug-In . SVG Version: 6.00 Build 0)  -->
<svg version="1.1" id="Layer_1" xmlns="http://www.w3.org/2000/svg" xmlns:xlink="http://www.w3.org/1999/xlink" x="0px" y="0px"
	 viewBox="0 0 1920 1080" style="enable-background:new 0 0 1920 1080;" xml:space="preserve">
<style type="text/css">
	.st0{fill:#7327CC;}
	.st1{fill:#BA95F4;}
	.st2{fill:#5725A5;}
	.st3{fill:#976CEA;}
	.st4{opacity:0.42;fill:#7327CC;enable-background:new    ;}
</style>
<path class="st0" d="M1135,234.8c-8.8,0-15.9-7.1-15.9-15.9c0-8.8,7.1-15.9,15.9-15.9s15.9,7.1,15.9,15.9
	C1150.9,227.6,1143.8,234.8,1135,234.8z M1135,209.3c-5.3,0-9.6,4.3-9.6,9.6s4.3,9.6,9.6,9.6c5.3,0,9.6-4.3,9.6-9.6
	S1140.3,209.3,1135,209.3z"/>
<path class="st0" d="M1691.3,271.7c3.4,1.4,4.3,4.1,5,6.5c0.7,2.2,1.3,3.9,3.6,4.9c2.3,1,3.9,0.2,6-0.8c2.2-1.1,4.8-2.3,8.2-0.9
	c3.4,1.4,4.3,4.1,5,6.5c0.7,2.2,1.3,3.9,3.6,4.9c2.3,1,3.9,0.2,6-0.8c2.2-1.1,4.8-2.3,8.2-0.9c3.4,1.4,4.3,4.1,5.1,6.5
	c0.7,2.2,1.3,3.9,3.6,4.9c2.3,1,3.9,0.2,6-0.8c2.2-1.1,4.8-2.3,8.2-0.9c0.7,0.3,1,1.1,0.7,1.7s-1.1,1-1.7,0.7c-2.3-1-3.9-0.2-6,0.8
	c-2.2,1.1-4.8,2.3-8.2,0.9c-3.4-1.4-4.3-4.1-5.1-6.5c-0.7-2.2-1.3-3.9-3.6-4.9c-2.3-1-3.9-0.2-6,0.8c-2.2,1.1-4.8,2.3-8.2,0.9
	c-3.4-1.4-4.3-4.1-5-6.5c-0.7-2.2-1.3-3.9-3.6-4.9c-2.3-1-3.9-0.2-6,0.8c-2.2,1.1-4.8,2.3-8.2,0.9c-3.4-1.4-4.3-4.1-5-6.5
	c-0.7-2.2-1.3-3.9-3.6-4.9c-0.7-0.3-1-1.1-0.7-1.7S1690.6,271.4,1691.3,271.7z"/>
<path class="st1" d="M1697.3,262.6c3.4,1.4,4.3,4.1,5,6.5c0.7,2.2,1.3,3.9,3.6,4.9c2.3,1,3.9,0.2,6-0.8c2.2-1.1,4.8-2.3,8.2-0.9
	c3.4,1.4,4.3,4.1,5,6.5c0.7,2.2,1.3,3.9,3.6,4.9c2.3,1,3.9,0.2,6-0.8c2.2-1.1,4.8-2.3,8.2-0.9c3.4,1.4,4.3,4.1,5.1,6.5
	c0.7,2.2,1.3,3.9,3.6,4.9c2.3,1,3.9,0.2,6-0.8c2.2-1.1,4.8-2.3,8.2-0.9c0.7,0.3,1,1.1,0.7,1.7c-0.3,0.7-1.1,1-1.7,0.7
	c-2.3-1-3.9-0.2-6,0.8c-2.2,1.1-4.8,2.3-8.2,0.9c-3.4-1.4-4.3-4.1-5.1-6.5c-0.7-2.2-1.3-3.9-3.6-4.9c-2.3-1-3.9-0.2-6,0.8
	c-2.2,1.1-4.8,2.3-8.2,0.9c-3.4-1.4-4.3-4.1-5-6.5c-0.7-2.2-1.3-3.9-3.6-4.9c-2.3-1-3.9-0.2-6,0.8c-2.2,1.1-4.8,2.3-8.2,0.9
	c-3.4-1.4-4.3-4.1-5-6.5c-0.7-2.2-1.3-3.9-3.6-4.9c-0.7-0.3-1-1.1-0.7-1.7S1696.6,262.3,1697.3,262.6z"/>
<path class="st2" d="M970.8,360.5c0.5,0,1-0.2,1.4-0.6s0.6-0.9,0.6-1.4s-0.2-1-0.6-1.4c-0.4-0.4-0.9-0.6-1.4-0.6s-1,0.2-1.4,0.6
	s-0.6,0.9-0.6,1.4s0.2,1,0.6,1.4C969.8,360.2,970.3,360.5,970.8,360.5"/>
<path class="st2" d="M991.5,360.5L991.5,360.5c1.1,0,2-0.9,2-2s-0.9-2-2-2l0,0c-1.1,0-2,0.9-2,2S990.4,360.5,991.5,360.5z"/>
<path class="st2" d="M981.2,360.5L981.2,360.5c1.1,0,2-0.9,2-2s-0.9-2-2-2l0,0c-1.1,0-2,0.9-2,2S980,360.5,981.2,360.5z"/>
<path class="st2" d="M970.8,352.2c0.5,0,1-0.2,1.4-0.6s0.6-0.9,0.6-1.4s-0.2-1-0.6-1.4c-0.4-0.4-0.9-0.6-1.4-0.6s-1,0.2-1.4,0.6
	s-0.6,0.9-0.6,1.4s0.2,1,0.6,1.4C969.8,352,970.3,352.2,970.8,352.2"/>
<path class="st2" d="M991.5,352.2L991.5,352.2c1.1,0,2-0.9,2-2s-0.9-2-2-2l0,0c-1.1,0-2,0.9-2,2
	C989.5,351.3,990.4,352.2,991.5,352.2z"/>
<path class="st2" d="M981.2,352.2L981.2,352.2c1.1,0,2-0.9,2-2s-0.9-2-2-2l0,0c-1.1,0-2,0.9-2,2C979.2,351.3,980,352.2,981.2,352.2z
	"/>
<path class="st2" d="M970.8,368.7c0.5,0,1-0.2,1.4-0.6s0.6-0.9,0.6-1.4s-0.2-1-0.6-1.4c-0.4-0.4-0.9-0.6-1.4-0.6s-1,0.2-1.4,0.6
	s-0.6,0.9-0.6,1.4s0.2,1,0.6,1.4C969.8,368.5,970.3,368.7,970.8,368.7"/>
<path class="st2" d="M991.5,368.7L991.5,368.7c1.1,0,2-0.9,2-2s-0.9-2-2-2l0,0c-1.1,0-2,0.9-2,2
	C989.5,367.8,990.4,368.7,991.5,368.7z"/>
<path class="st2" d="M981.2,368.7L981.2,368.7c1.1,0,2-0.9,2-2s-0.9-2-2-2l0,0c-1.1,0-2,0.9-2,2C979.2,367.8,980,368.7,981.2,368.7z
	"/>
<path class="st0" d="M1756.8,749.1c0.6-3.6,2.9-5.2,5-6.5c1.9-1.2,3.5-2.2,3.8-4.6c0.4-2.5-0.8-3.8-2.3-5.6
	c-1.6-1.9-3.4-4.1-2.9-7.7c0.6-3.6,2.9-5.2,5-6.5c1.9-1.2,3.5-2.2,3.8-4.6c0.4-2.5-0.8-3.8-2.3-5.6c-1.6-1.9-3.4-4.1-2.9-7.7
	c0.6-3.7,2.9-5.2,5-6.5c1.9-1.2,3.5-2.2,3.8-4.7c0.4-2.5-0.8-3.8-2.3-5.6c-1.6-1.9-3.4-4.1-2.9-7.7c0.1-0.7,0.8-1.2,1.5-1.1
	c0.7,0.1,1.2,0.8,1.1,1.5c-0.4,2.5,0.8,3.8,2.3,5.6c1.6,1.9,3.4,4.1,2.9,7.7c-0.6,3.7-2.9,5.2-5,6.5c-1.9,1.2-3.5,2.2-3.8,4.7
	c-0.4,2.5,0.8,3.8,2.3,5.6c1.6,1.9,3.4,4.1,2.9,7.7c-0.6,3.6-2.9,5.2-5,6.5c-1.9,1.2-3.5,2.2-3.8,4.6c-0.4,2.5,0.8,3.8,2.3,5.6
	c1.6,1.9,3.4,4.1,2.9,7.7c-0.6,3.6-2.9,5.2-5,6.5c-1.9,1.2-3.5,2.2-3.8,4.6c-0.1,0.7-0.8,1.2-1.5,1.1
	C1757.2,750.5,1756.7,749.8,1756.8,749.1z"/>
<polygon class="st1" points="1640.2,855.3 1627.4,867 1623.6,850 "/>
<polygon class="st1" points="1626.7,858.3 1613.9,870 1610.1,853 "/>
<polygon class="st1" points="1613.1,861.3 1600.3,873.1 1596.5,856.1 "/>
<path class="st0" d="M1109.2,863.2c3.4-1.3,5.9,0,8.1,1.1c2,1.1,3.6,1.9,5.9,1s2.9-2.6,3.7-4.8c0.8-2.3,1.8-5,5.2-6.3
	c3.4-1.3,5.9,0,8.1,1.1c2,1.1,3.6,1.9,5.9,1s2.9-2.6,3.7-4.8c0.8-2.3,1.8-5,5.2-6.3c3.4-1.3,5.9,0,8.1,1.1c2,1.1,3.6,1.9,6,1
	c2.3-0.9,2.9-2.6,3.7-4.8c0.8-2.3,1.8-5,5.2-6.3c0.7-0.3,1.5,0.1,1.7,0.8c0.3,0.7-0.1,1.5-0.8,1.7c-2.3,0.9-2.9,2.6-3.7,4.8
	c-0.8,2.3-1.8,5-5.2,6.3c-3.4,1.3-5.9,0-8.1-1.1c-2-1.1-3.6-1.9-6-1c-2.3,0.9-2.9,2.6-3.7,4.8c-0.8,2.3-1.8,5-5.2,6.3
	c-3.4,1.3-5.9,0-8.1-1.1c-2-1.1-3.6-1.9-5.9-1s-2.9,2.6-3.7,4.8c-0.8,2.3-1.8,5-5.2,6.3c-3.4,1.3-5.9,0-8.1-1.1
	c-2-1.1-3.6-1.9-5.9-1c-0.7,0.3-1.5-0.1-1.7-0.8S1108.5,863.4,1109.2,863.2z"/>
<rect x="1765.4" y="443.6" class="st2" width="11.1" height="5.6"/>
<rect x="1763.1" y="441.3" class="st3" width="11.1" height="5.6"/>
<rect x="1747.3" y="443.6" class="st2" width="11.1" height="5.6"/>
<rect x="1745" y="441.3" class="st3" width="11.1" height="5.6"/>
<rect x="1729.2" y="443.6" class="st2" width="11.1" height="5.6"/>
<rect x="1726.8" y="441.3" class="st3" width="11.1" height="5.6"/>
<path class="st4" d="M1526.9,989.1c-8.8,0-15.9-7.1-15.9-15.9c0-8.8,7.1-15.9,15.9-15.9s15.9,7.1,15.9,15.9
	S1535.6,989.1,1526.9,989.1z M1526.9,963.6c-5.3,0-9.6,4.3-9.6,9.6s4.3,9.6,9.6,9.6c5.3,0,9.6-4.3,9.6-9.6
	S1532.1,963.6,1526.9,963.6z"/>
<path class="st4" d="M1333.1,907.5c0.5,0,1-0.2,1.4-0.6c0.4-0.4,0.6-0.9,0.6-1.4s-0.2-1-0.6-1.4s-0.9-0.6-1.4-0.6s-1,0.2-1.4,0.6
	c-0.4,0.4-0.6,0.9-0.6,1.4s0.2,1,0.6,1.4C1332,907.3,1332.5,907.5,1333.1,907.5"/>
<path class="st4" d="M1360.9,907.5L1360.9,907.5c1.1,0,2-0.9,2-2s-0.9-2-2-2l0,0c-1.1,0-2,0.9-2,2S1359.8,907.5,1360.9,907.5z
	 M1347,907.5L1347,907.5c1.1,0,2-0.9,2-2s-0.9-2-2-2l0,0c-1.1,0-2,0.9-2,2S1345.9,907.5,1347,907.5z"/>
<path class="st4" d="M1374.8,907.5c0.5,0,1-0.2,1.4-0.6c0.4-0.4,0.6-0.9,0.6-1.4s-0.2-1-0.6-1.4s-0.9-0.6-1.4-0.6s-1,0.2-1.4,0.6
	s-0.6,0.9-0.6,1.4s0.2,1,0.6,1.4C1373.8,907.3,1374.3,907.5,1374.8,907.5"/>
<path class="st2" d="M1340.4,914.9c0.5,0,1-0.2,1.4-0.6c0.4-0.4,0.6-0.9,0.6-1.4s-0.2-1-0.6-1.4s-0.9-0.6-1.4-0.6s-1,0.2-1.4,0.6
	c-0.4,0.4-0.6,0.9-0.6,1.4s0.2,1,0.6,1.4C1339.3,914.7,1339.9,914.9,1340.4,914.9"/>
<path class="st2" d="M1368.2,914.9L1368.2,914.9c1.1,0,2-0.9,2-2s-0.9-2-2-2l0,0c-1.1,0-2,0.9-2,2S1367.1,914.9,1368.2,914.9z
	 M1354.3,914.9L1354.3,914.9c1.1,0,2-0.9,2-2s-0.9-2-2-2l0,0c-1.1,0-2,0.9-2,2S1353.2,914.9,1354.3,914.9z"/>
<path class="st2" d="M1382.1,914.9c0.5,0,1-0.2,1.4-0.6c0.4-0.4,0.6-0.9,0.6-1.4s-0.2-1-0.6-1.4s-0.9-0.6-1.4-0.6s-1,0.2-1.4,0.6
	c-0.4,0.4-0.6,0.9-0.6,1.4s0.2,1,0.6,1.4C1381.1,914.7,1381.6,914.9,1382.1,914.9"/>
<path class="st4" d="M1433.4,163.4c-0.1,0.5,0,1.1,0.3,1.5s0.7,0.8,1.3,0.9c0.5,0.1,1.1,0,1.5-0.3s0.8-0.7,0.9-1.3
	c0.1-0.5,0-1.1-0.3-1.5s-0.7-0.8-1.3-0.9c-0.5-0.1-1.1,0-1.5,0.3C1433.8,162.4,1433.5,162.8,1433.4,163.4"/>
<path class="st4" d="M1427.6,190.6L1427.6,190.6c-0.2,1.1,0.5,2.2,1.5,2.4c1.1,0.2,2.1-0.5,2.4-1.5l0,0c0.2-1.1-0.5-2.1-1.5-2.4
	C1428.9,188.8,1427.9,189.5,1427.6,190.6z M1430.5,177L1430.5,177c-0.2,1.1,0.5,2.2,1.5,2.4c1.1,0.2,2.1-0.5,2.4-1.5l0,0
	c0.2-1.1-0.5-2.1-1.5-2.4C1431.8,175.2,1430.8,175.9,1430.5,177z"/>
<path class="st4" d="M1424.8,204.2c-0.1,0.5,0,1.1,0.3,1.5s0.7,0.8,1.3,0.9c0.5,0.1,1.1,0,1.5-0.3s0.8-0.7,0.9-1.3
	c0.1-0.5,0-1.1-0.3-1.5s-0.7-0.8-1.3-0.9c-0.5-0.1-1.1,0-1.5,0.3C1425.2,203.2,1424.9,203.7,1424.8,204.2"/>
<path class="st2" d="M1424.6,169c-0.1,0.5,0,1.1,0.3,1.5s0.7,0.8,1.3,0.9c0.5,0.1,1.1,0,1.5-0.3s0.8-0.7,0.9-1.3
	c0.1-0.5,0-1.1-0.3-1.5s-0.7-0.8-1.3-0.9c-0.5-0.1-1.1,0-1.5,0.3S1424.7,168.5,1424.6,169"/>
<path class="st2" d="M1418.9,196.2L1418.9,196.2c-0.2,1.1,0.5,2.2,1.5,2.4c1.1,0.2,2.1-0.5,2.4-1.5l0,0c0.2-1.1-0.5-2.1-1.5-2.4
	C1420.2,194.4,1419.1,195.1,1418.9,196.2z M1421.8,182.6L1421.8,182.6c-0.2,1.1,0.5,2.2,1.5,2.4c1.1,0.2,2.1-0.5,2.4-1.5l0,0
	c0.2-1.1-0.5-2.1-1.5-2.4C1423,180.8,1422,181.5,1421.8,182.6z"/>
<path class="st2" d="M1416,209.8c-0.1,0.5,0,1.1,0.3,1.5s0.7,0.8,1.3,0.9c0.5,0.1,1.1,0,1.5-0.3s0.8-0.7,0.9-1.3
	c0.1-0.5,0-1.1-0.3-1.5s-0.7-0.8-1.3-0.9c-0.5-0.1-1.1,0-1.5,0.3C1416.4,208.8,1416.1,209.3,1416,209.8"/>
<path class="st0" d="M896.5,712.2c-8.8,0-15.9-7.1-15.9-15.9c0-8.8,7.1-15.9,15.9-15.9c8.8,0,15.9,7.1,15.9,15.9
	C912.4,705.1,905.3,712.2,896.5,712.2z M896.5,686.7c-5.3,0-9.6,4.3-9.6,9.6s4.3,9.6,9.6,9.6s9.6-4.3,9.6-9.6
	S901.8,686.7,896.5,686.7z"/>
<path class="st0" d="M950.4,530.1h-2.9v-2.9c0-0.4-0.3-0.8-0.8-0.8c-0.4,0-0.8,0.3-0.8,0.8v2.9H943c-0.4,0-0.8,0.3-0.8,0.8
	c0,0.4,0.3,0.8,0.8,0.8h2.9v2.9c0,0.4,0.3,0.8,0.8,0.8c0.4,0,0.8-0.3,0.8-0.8v-2.9h2.9c0.4,0,0.8-0.3,0.8-0.8
	C951.1,530.5,950.8,530.1,950.4,530.1z"/>
<path class="st0" d="M963.5,530.1h-2.9v-2.9c0-0.4-0.3-0.8-0.8-0.8c-0.4,0-0.8,0.3-0.8,0.8v2.9h-2.9c-0.4,0-0.8,0.3-0.8,0.8
	c0,0.4,0.3,0.8,0.8,0.8h2.9v2.9c0,0.4,0.3,0.8,0.8,0.8c0.4,0,0.8-0.3,0.8-0.8v-2.9h2.9c0.4,0,0.8-0.3,0.8-0.8
	C964.2,530.5,963.9,530.1,963.5,530.1z"/>
<path class="st0" d="M976.6,530.1h-2.9v-2.9c0-0.4-0.3-0.8-0.8-0.8c-0.4,0-0.8,0.3-0.8,0.8v2.9h-2.9c-0.4,0-0.8,0.3-0.8,0.8
	c0,0.4,0.3,0.8,0.8,0.8h2.9v2.9c0,0.4,0.3,0.8,0.8,0.8c0.4,0,0.8-0.3,0.8-0.8v-2.9h2.9c0.4,0,0.8-0.3,0.8-0.8
	C977.3,530.5,977,530.1,976.6,530.1z"/>
<path class="st4" d="M1824.6,541.6c0.5-0.1,0.9-0.5,1.2-1c0.3-0.5,0.3-1,0.2-1.5c-0.1-0.5-0.5-0.9-1-1.2s-1-0.3-1.5-0.2
	s-0.9,0.5-1.2,1s-0.3,1-0.2,1.5c0.1,0.5,0.5,0.9,1,1.2C1823.5,541.7,1824.1,541.8,1824.6,541.6"/>
<path class="st4" d="M1851.2,533.7L1851.2,533.7c1.1-0.3,1.7-1.4,1.4-2.5c-0.3-1.1-1.4-1.7-2.5-1.3l0,0c-1.1,0.3-1.7,1.4-1.3,2.5
	C1849.1,533.4,1850.2,534,1851.2,533.7z M1837.9,537.6L1837.9,537.6c1.1-0.3,1.7-1.4,1.4-2.5c-0.3-1.1-1.4-1.7-2.5-1.3l0,0
	c-1.1,0.3-1.7,1.4-1.3,2.5C1835.7,537.4,1836.9,538,1837.9,537.6z"/>
<path class="st4" d="M1864.6,529.7c0.5-0.1,0.9-0.5,1.2-1c0.3-0.5,0.3-1,0.2-1.5c-0.2-0.5-0.5-0.9-1-1.2s-1-0.3-1.5-0.2
	s-0.9,0.5-1.2,1c-0.3,0.5-0.3,1-0.2,1.5c0.1,0.5,0.5,0.9,1,1.2C1863.5,529.8,1864.1,529.9,1864.6,529.7"/>
<path class="st2" d="M1833.7,546.6c0.5-0.1,0.9-0.5,1.2-1c0.3-0.5,0.3-1,0.2-1.5c-0.2-0.5-0.5-0.9-1-1.2s-1-0.3-1.5-0.2
	c-0.5,0.2-0.9,0.5-1.2,1c-0.3,0.5-0.3,1-0.2,1.5c0.2,0.5,0.5,0.9,1,1.2S1833.2,546.8,1833.7,546.6"/>
<path class="st2" d="M1860.4,538.7L1860.4,538.7c1.1-0.3,1.7-1.4,1.4-2.5c-0.3-1.1-1.4-1.7-2.5-1.3l0,0c-1.1,0.3-1.7,1.4-1.3,2.5
	C1858.2,538.4,1859.3,539,1860.4,538.7z M1847,542.7L1847,542.7c1.1-0.3,1.7-1.4,1.4-2.5c-0.3-1.1-1.4-1.7-2.5-1.3l0,0
	c-1.1,0.3-1.7,1.4-1.3,2.5C1844.9,542.4,1846,543,1847,542.7z"/>
<path class="st2" d="M1873.7,534.7c0.5-0.1,0.9-0.5,1.2-1c0.3-0.5,0.3-1,0.2-1.5c-0.1-0.5-0.5-0.9-1-1.2s-1-0.3-1.5-0.2
	c-0.5,0.2-0.9,0.5-1.2,1c-0.3,0.5-0.3,1-0.2,1.5c0.1,0.5,0.5,0.9,1,1.2S1873.2,534.9,1873.7,534.7"/>
<polygon class="st1" points="865.2,235.3 880.8,243 866.3,252.6 "/>
<polygon class="st1" points="872.9,246.8 888.4,254.5 874,264.2 "/>
<polygon class="st1" points="880.6,258.4 896.2,266.1 881.7,275.8 "/>
<path class="st2" d="M1646.3,163.4c0.5,0,1-0.2,1.4-0.6c0.4-0.4,0.6-0.9,0.6-1.4s-0.2-1-0.6-1.4s-0.9-0.6-1.4-0.6s-1,0.2-1.4,0.6
	c-0.4,0.4-0.6,0.9-0.6,1.4s0.2,1,0.6,1.4C1645.3,163.2,1645.8,163.4,1646.3,163.4"/>
<path class="st2" d="M1666.9,163.4L1666.9,163.4c1.1,0,2-0.9,2-2s-0.9-2-2-2l0,0c-1.1,0-2,0.9-2,2S1665.8,163.4,1666.9,163.4z"/>
<path class="st2" d="M1656.6,163.4L1656.6,163.4c1.1,0,2-0.9,2-2s-0.9-2-2-2l0,0c-1.1,0-2,0.9-2,2S1655.5,163.4,1656.6,163.4z"/>
<path class="st2" d="M1646.3,155.2c0.5,0,1-0.2,1.4-0.6c0.4-0.4,0.6-0.9,0.6-1.4s-0.2-1-0.6-1.4s-0.9-0.6-1.4-0.6s-1,0.2-1.4,0.6
	c-0.4,0.4-0.6,0.9-0.6,1.4s0.2,1,0.6,1.4C1645.3,155,1645.8,155.2,1646.3,155.2"/>
<path class="st2" d="M1666.9,155.2L1666.9,155.2c1.1,0,2-0.9,2-2s-0.9-2-2-2l0,0c-1.1,0-2,0.9-2,2S1665.8,155.2,1666.9,155.2z"/>
<path class="st2" d="M1656.6,155.2L1656.6,155.2c1.1,0,2-0.9,2-2s-0.9-2-2-2l0,0c-1.1,0-2,0.9-2,2S1655.5,155.2,1656.6,155.2z"/>
<path class="st2" d="M1646.3,171.6c0.5,0,1-0.2,1.4-0.6c0.4-0.4,0.6-0.9,0.6-1.4s-0.2-1-0.6-1.4s-0.9-0.6-1.4-0.6s-1,0.2-1.4,0.6
	c-0.4,0.4-0.6,0.9-0.6,1.4s0.2,1,0.6,1.4S1645.8,171.6,1646.3,171.6"/>
<path class="st2" d="M1666.9,171.6L1666.9,171.6c1.1,0,2-0.9,2-2s-0.9-2-2-2l0,0c-1.1,0-2,0.9-2,2
	C1664.9,170.7,1665.8,171.6,1666.9,171.6z"/>
<path class="st2" d="M1656.6,171.6L1656.6,171.6c1.1,0,2-0.9,2-2s-0.9-2-2-2l0,0c-1.1,0-2,0.9-2,2
	C1654.6,170.7,1655.5,171.6,1656.6,171.6z"/>
<polygon class="st1" points="970.1,960.7 982.9,948.9 986.7,965.9 "/>
<polygon class="st1" points="983.6,957.7 996.4,945.9 1000.2,962.9 "/>
<polygon class="st1" points="997.2,954.7 1010,942.9 1013.8,959.9 "/>
<path class="st0" d="M868.9,819c-1.5,3.4-4.2,4.2-6.6,4.9c-2.2,0.7-3.9,1.2-5,3.4c-1,2.3-0.3,3.9,0.7,6c1,2.3,2.2,4.8,0.7,8.2
	s-4.2,4.2-6.6,4.9c-2.2,0.7-3.9,1.2-5,3.4c-1,2.3-0.3,3.9,0.7,6c1,2.3,2.2,4.8,0.7,8.2s-4.2,4.2-6.6,4.9c-2.2,0.7-3.9,1.2-5,3.4
	c-1,2.3-0.3,3.9,0.7,6c1,2.3,2.2,4.8,0.7,8.2c-0.3,0.7-1.1,1-1.8,0.7s-1-1.1-0.7-1.8c1-2.3,0.3-3.9-0.7-6c-1-2.3-2.2-4.8-0.6-8.2
	c1.5-3.4,4.2-4.2,6.6-4.9c2.2-0.7,3.9-1.2,5-3.4c1-2.3,0.3-3.9-0.7-6c-1-2.3-2.2-4.8-0.7-8.2s4.2-4.2,6.6-4.9c2.2-0.7,3.9-1.2,5-3.4
	c1-2.3,0.3-3.9-0.7-6c-1-2.3-2.2-4.8-0.7-8.2s4.2-4.2,6.6-4.9c2.2-0.7,3.9-1.2,5-3.4c0.3-0.7,1.1-1,1.8-0.7
	C868.9,817.5,869.2,818.3,868.9,819z"/>
<path class="st1" d="M877.8,825.2c-1.5,3.4-4.2,4.2-6.6,4.9c-2.2,0.7-3.9,1.2-5,3.4c-1,2.3-0.3,3.9,0.7,6c1,2.3,2.2,4.8,0.7,8.2
	s-4.2,4.2-6.6,4.9c-2.2,0.7-3.9,1.2-5,3.4c-1,2.3-0.3,3.9,0.7,6c1,2.3,2.2,4.8,0.7,8.2s-4.2,4.2-6.6,4.9c-2.2,0.7-3.9,1.2-5,3.4
	c-1,2.3-0.3,3.9,0.7,6c1,2.3,2.2,4.8,0.7,8.2c-0.3,0.7-1.1,1-1.8,0.7s-1-1.1-0.7-1.8c1-2.3,0.3-3.9-0.7-6c-1-2.3-2.2-4.8-0.6-8.2
	c1.5-3.4,4.2-4.2,6.6-4.9c2.2-0.7,3.9-1.2,5-3.4c1-2.3,0.3-3.9-0.7-6c-1-2.3-2.2-4.8-0.7-8.2s4.2-4.2,6.6-4.9c2.2-0.7,3.9-1.2,5-3.4
	c1-2.3,0.3-3.9-0.7-6c-1-2.3-2.2-4.8-0.7-8.2s4.2-4.2,6.6-4.9c2.2-0.7,3.9-1.2,5-3.4c0.3-0.7,1.1-1,1.8-0.7
	C877.8,823.8,878.1,824.6,877.8,825.2z"/>
<path class="st2" d="M614.6,912.7c0.5,0,1-0.2,1.4-0.6c0.4-0.4,0.6-0.9,0.6-1.4s-0.2-1-0.6-1.4c-0.4-0.4-0.9-0.6-1.4-0.6
	s-1,0.2-1.4,0.6c-0.4,0.4-0.6,0.9-0.6,1.4s0.2,1,0.6,1.4C613.6,912.5,614.1,912.7,614.6,912.7"/>
<path class="st2" d="M635.2,912.7L635.2,912.7c1.1,0,2-0.9,2-2s-0.9-2-2-2l0,0c-1.1,0-2,0.9-2,2S634.1,912.7,635.2,912.7z"/>
<path class="st2" d="M624.9,912.7L624.9,912.7c1.1,0,2-0.9,2-2s-0.9-2-2-2l0,0c-1.1,0-2,0.9-2,2S623.8,912.7,624.9,912.7z"/>
<path class="st2" d="M614.6,904.5c0.5,0,1-0.2,1.4-0.6c0.4-0.4,0.6-0.9,0.6-1.4s-0.2-1-0.6-1.4c-0.4-0.4-0.9-0.6-1.4-0.6
	s-1,0.2-1.4,0.6c-0.4,0.4-0.6,0.9-0.6,1.4s0.2,1,0.6,1.4C613.6,904.3,614.1,904.5,614.6,904.5"/>
<path class="st2" d="M635.2,904.5L635.2,904.5c1.1,0,2-0.9,2-2s-0.9-2-2-2l0,0c-1.1,0-2,0.9-2,2S634.1,904.5,635.2,904.5z"/>
<path class="st2" d="M624.9,904.5L624.9,904.5c1.1,0,2-0.9,2-2s-0.9-2-2-2l0,0c-1.1,0-2,0.9-2,2S623.8,904.5,624.9,904.5z"/>
<path class="st2" d="M614.6,921c0.5,0,1-0.2,1.4-0.6c0.4-0.4,0.6-0.9,0.6-1.4s-0.2-1-0.6-1.4c-0.4-0.4-0.9-0.6-1.4-0.6
	s-1,0.2-1.4,0.6c-0.4,0.4-0.6,0.9-0.6,1.4s0.2,1,0.6,1.4C613.6,920.7,614.1,921,614.6,921"/>
<path class="st2" d="M635.2,921L635.2,921c1.1,0,2-0.9,2-2s-0.9-2-2-2l0,0c-1.1,0-2,0.9-2,2S634.1,921,635.2,921z"/>
<path class="st2" d="M624.9,921L624.9,921c1.1,0,2-0.9,2-2s-0.9-2-2-2l0,0c-1.1,0-2,0.9-2,2S623.8,921,624.9,921z"/>
<path class="st0" d="M725.4,205.8h-2.9v-2.9c0-0.4-0.3-0.8-0.8-0.8c-0.4,0-0.8,0.3-0.8,0.8v2.9H718c-0.4,0-0.8,0.3-0.8,0.8
	c0,0.4,0.3,0.8,0.8,0.8h2.9v2.9c0,0.4,0.3,0.8,0.8,0.8c0.4,0,0.8-0.3,0.8-0.8v-2.9h2.9c0.4,0,0.8-0.3,0.8-0.8
	C726.1,206.2,725.8,205.8,725.4,205.8z"/>
<path class="st0" d="M738.5,205.8h-2.9v-2.9c0-0.4-0.3-0.8-0.8-0.8c-0.4,0-0.8,0.3-0.8,0.8v2.9h-2.9c-0.4,0-0.8,0.3-0.8,0.8
	c0,0.4,0.3,0.8,0.8,0.8h2.9v2.9c0,0.4,0.3,0.8,0.8,0.8c0.4,0,0.8-0.3,0.8-0.8v-2.9h2.9c0.4,0,0.8-0.3,0.8-0.8
	C739.2,206.2,738.9,205.8,738.5,205.8z"/>
<path class="st0" d="M751.6,205.8h-2.9v-2.9c0-0.4-0.3-0.8-0.8-0.8c-0.4,0-0.8,0.3-0.8,0.8v2.9h-2.9c-0.4,0-0.8,0.3-0.8,0.8
	c0,0.4,0.3,0.8,0.8,0.8h2.9v2.9c0,0.4,0.3,0.8,0.8,0.8c0.4,0,0.8-0.3,0.8-0.8v-2.9h2.9c0.4,0,0.8-0.3,0.8-0.8
	C752.3,206.2,752,205.8,751.6,205.8z"/>
<path class="st0" d="M1774.3,904.7h-2.9v-2.9c0-0.4-0.3-0.8-0.8-0.8c-0.4,0-0.8,0.3-0.8,0.8v2.9h-2.9c-0.4,0-0.8,0.3-0.8,0.8
	c0,0.4,0.3,0.8,0.8,0.8h2.9v2.9c0,0.4,0.3,0.8,0.8,0.8c0.4,0,0.8-0.3,0.8-0.8v-2.9h2.9c0.4,0,0.8-0.3,0.8-0.8
	C1775,905.1,1774.7,904.7,1774.3,904.7z"/>
<path class="st0" d="M1787.4,904.7h-2.9v-2.9c0-0.4-0.3-0.8-0.8-0.8c-0.4,0-0.8,0.3-0.8,0.8v2.9h-2.9c-0.4,0-0.8,0.3-0.8,0.8
	c0,0.4,0.3,0.8,0.8,0.8h2.9v2.9c0,0.4,0.3,0.8,0.8,0.8c0.4,0,0.8-0.3,0.8-0.8v-2.9h2.9c0.4,0,0.8-0.3,0.8-0.8
	C1788.1,905.1,1787.8,904.7,1787.4,904.7z"/>
<path class="st0" d="M1800.5,904.7h-2.9v-2.9c0-0.4-0.3-0.8-0.8-0.8c-0.4,0-0.8,0.3-0.8,0.8v2.9h-2.9c-0.4,0-0.8,0.3-0.8,0.8
	c0,0.4,0.3,0.8,0.8,0.8h2.9v2.9c0,0.4,0.3,0.8,0.8,0.8c0.4,0,0.8-0.3,0.8-0.8v-2.9h2.9c0.4,0,0.8-0.3,0.8-0.8
	C1801.2,905.1,1800.9,904.7,1800.5,904.7z"/>
</svg>
