<?xml version="1.0" encoding="utf-8"?>
<!-- Generator: Adobe Illustrator 23.1.1, SVG Export Plug-In . SVG Version: 6.00 Build 0)  -->
<svg version="1.1" id="Capa_1" xmlns="http://www.w3.org/2000/svg" xmlns:xlink="http://www.w3.org/1999/xlink" x="0px" y="0px"
	 viewBox="0 0 512 512" style="enable-background:new 0 0 512 512;" xml:space="preserve">
<style type="text/css">
	.st0{fill:#ECEFF1;}
	.st1{fill:#CFD8DC;}
	.st2{fill:#9C66E4;}
	.st3{fill:#FAFAFA;}
</style>
<path class="st0" d="M512,160v32L256,304L0,192v-32c0-17.6,14.4-32,32-32h448C497.6,128,512,142.4,512,160z"/>
<path class="st1" d="M512,192v256c0,17.6-14.4,32-32,32H32c-17.6,0-32-14.4-32-32V192l256,112L512,192z"/>
<path class="st2" d="M502.3,81.3l-112-48c-4.1-1.7-8.6-1.7-12.6,0l-112,48c-5.9,2.5-9.7,8.3-9.7,14.7v64c0,88,32.5,139.5,120,189.9
	c2.5,1.4,5.2,2.1,8,2.1s5.5-0.7,8-2.1c87.5-50.3,120-101.7,120-189.9V96C512,89.6,508.2,83.8,502.3,81.3z"/>
<path class="st3" d="M368,240c-0.2,0-0.5,0-0.7,0c-5.1-0.2-9.8-2.8-12.6-7.1l-32-48c-4.9-7.4-2.9-17.3,4.4-22.2
	c7.3-4.9,17.2-2.9,22.2,4.4l19.9,29.8l50.3-62.9c5.5-6.9,15.6-8,22.5-2.5c6.9,5.5,8,15.6,2.5,22.5l-64,80
	C377.4,237.8,372.8,240,368,240z"/>
</svg>
