<?xml version="1.0" encoding="UTF-8"?>
<svg width="108px" height="33px" viewBox="0 0 108 33" version="1.1" xmlns="http://www.w3.org/2000/svg" xmlns:xlink="http://www.w3.org/1999/xlink">
    <!-- Generator: Sketch 52.6 (67491) - http://www.bohemiancoding.com/sketch -->
    <title>logo_owwly</title>
    <desc>Created with Sketch.</desc>
    <defs>
        <path d="M31.5915629,7.84443544 C31.7582304,8.37777144 31.5248994,9.11943069 30.8915629,10.0694354 C30.2582264,11.0194402 29.2665697,12.1444289 27.9165629,13.4444354 L27.6415629,13.7194354 C27.5582292,13.8027692 27.4498969,13.9027682 27.3165629,14.0194354 C27.1832289,14.1361027 27.0332304,14.2611014 26.8665629,14.3944354 C26.4498942,14.7611039 25.9540658,15.1444334 25.3790629,15.5444354 C24.80406,15.9444374 24.1998994,16.2777674 23.5665629,16.5444354 C23.2332279,16.6611027 22.954064,16.6944357 22.7290629,16.6444354 C22.5040618,16.5944352 22.2998972,16.5277692 22.1165629,16.4444354 C21.9165619,16.3444349 21.7623968,16.2111029 21.6540629,16.0444354 C21.545729,15.8777679 21.4665632,15.7111029 21.4165629,15.5444354 C21.3498959,15.3611012 21.3082297,15.1527699 21.2915629,14.9194354 C21.0582284,15.2527704 20.7915644,15.5444342 20.4915629,15.7944354 C20.2415617,16.0111032 19.9457313,16.2069346 19.6040629,16.3819354 C19.2623945,16.5569363 18.8998982,16.6277689 18.5165629,16.5944354 C18.0665607,16.5611019 17.7082309,16.4569363 17.4415629,16.2819354 C17.1748949,16.1069346 16.9665637,15.9194364 16.8165629,15.7194354 C16.6665622,15.5194344 16.5623965,15.3277697 16.5040629,15.1444354 C16.4457293,14.9611012 16.4082297,14.8444357 16.3915629,14.7944354 C16.3415627,14.4777672 16.3415627,14.1027709 16.3915629,13.6694354 C16.4415632,13.2360999 16.5707285,12.7402716 16.7790629,12.1819354 C16.9873973,11.6235993 17.2915609,10.9944389 17.6915629,10.2944354 C18.0915649,9.59443194 18.6082264,8.81943969 19.2415629,7.96943544 C19.3082299,7.86943494 19.4165622,7.73610294 19.5665629,7.56943544 C19.7165637,7.40276794 19.8873953,7.24443619 20.0790629,7.09443544 C20.2707305,6.94443469 20.4748952,6.83193582 20.6915629,6.75693544 C20.9082307,6.68193507 21.1332284,6.70276819 21.3665629,6.81943544 C21.5998974,6.93610269 21.7582292,7.08193457 21.8415629,7.25693544 C21.9248967,7.43193632 21.9665629,7.61943444 21.9665629,7.81943544 C21.9665629,8.01943644 21.9332299,8.21943444 21.8665629,8.41943544 C21.7998959,8.61943644 21.7248967,8.80276794 21.6415629,8.96943544 L21.4415629,9.31943544 C21.3915627,9.41943594 21.3332299,9.51526832 21.2665629,9.60693544 C21.1998959,9.69860257 21.1415632,9.78610169 21.0915629,9.86943544 C20.9415622,10.1027699 20.7582307,10.3777672 20.5415629,10.6944354 C20.3248952,11.0111037 20.1082307,11.3527669 19.8915629,11.7194354 C19.6748952,12.0861039 19.4665639,12.4569336 19.2665629,12.8319354 C19.0665619,13.2069373 18.8998969,13.5694337 18.7665629,13.9194354 C18.6832292,14.1694367 18.6332297,14.3861012 18.6165629,14.5694354 C18.5998962,14.7361029 18.6290625,14.8861014 18.7040629,15.0194354 C18.7790633,15.1527694 18.9332284,15.2111022 19.1665629,15.1944354 C19.3498972,15.1777687 19.5790615,15.0319368 19.8540629,14.7569354 C20.1290643,14.4819341 20.420728,14.1402708 20.7290629,13.7319354 C21.0373978,13.3236001 21.3498947,12.8777712 21.6665629,12.3944354 C21.9832312,11.9110997 22.2665617,11.4527709 22.5165629,11.0194354 C22.7665642,10.5694332 23.0540613,10.0902713 23.3790629,9.58193544 C23.7040645,9.07359957 24.0748942,8.53610494 24.4915629,7.96943544 C24.5582299,7.86943494 24.6665622,7.73610294 24.8165629,7.56943544 C24.9665637,7.40276794 25.1373953,7.24443619 25.3290629,7.09443544 C25.5207305,6.94443469 25.7248952,6.83193582 25.9415629,6.75693544 C26.1582307,6.68193507 26.3832284,6.70276819 26.6165629,6.81943544 C26.8498974,6.93610269 27.0082292,7.08193457 27.0915629,7.25693544 C27.1748967,7.43193632 27.2165629,7.61943444 27.2165629,7.81943544 C27.2165629,8.01943644 27.1832299,8.21943444 27.1165629,8.41943544 C27.0498959,8.61943644 26.9748967,8.80276794 26.8915629,8.96943544 L26.6915629,9.31943544 C26.6415627,9.41943594 26.5832299,9.51526832 26.5165629,9.60693544 C26.4498959,9.69860257 26.3915632,9.78610169 26.3415629,9.86943544 C25.9248942,10.4194382 25.5415647,10.9694327 25.1915629,11.5194354 C24.8915614,12.0027712 24.5915644,12.5110994 24.2915629,13.0444354 C23.9915614,13.5777714 23.7748969,14.0610999 23.6415629,14.4944354 C23.5582292,14.7611034 23.5248962,14.9652681 23.5415629,15.1069354 C23.5582297,15.2486028 23.5998959,15.3611017 23.6665629,15.4444354 C24.3665664,14.9777664 25.0248932,14.4194387 25.6415629,13.7694354 C26.2582327,13.1194322 26.7998939,12.4944384 27.2665629,11.8944354 C27.8165657,11.1944319 28.3248939,10.4777724 28.7915629,9.74443544 C29.0915644,9.24443294 29.3332287,8.77360432 29.5165629,8.33193544 C29.6998972,7.89026657 29.7498967,7.55276994 29.6665629,7.31943544 C29.6498962,7.28610194 29.6332297,7.24443569 29.6165629,7.19443544 C29.5998962,7.16110194 29.5832297,7.12360232 29.5665629,7.08193544 C29.5498962,7.04026857 29.5498962,6.98610244 29.5665629,6.91943544 C29.5832297,6.81943494 29.6165627,6.74026907 29.6665629,6.68193544 C29.7165632,6.62360182 29.7748959,6.57776894 29.8415629,6.54443544 C29.9082299,6.49443519 29.9915624,6.46110219 30.0915629,6.44443544 C30.2248969,6.41110194 30.3707288,6.43610169 30.5290629,6.51943544 C30.687397,6.60276919 30.8248957,6.69443494 30.9415629,6.79443544 C31.1582307,6.96110294 31.3248957,7.17776744 31.4415629,7.44443544 C31.5082299,7.57776944 31.5582294,7.71110144 31.5915629,7.84443544 Z M46.5957439,7.84443544 C46.7624114,8.37777144 46.5290804,9.11943069 45.8957439,10.0694354 C45.2624074,11.0194402 44.2707507,12.1444289 42.9207439,13.4444354 L42.6457439,13.7194354 C42.5624102,13.8027692 42.4540779,13.9027682 42.3207439,14.0194354 C42.1874099,14.1361027 42.0374114,14.2611014 41.8707439,14.3944354 C41.4540752,14.7611039 40.9582468,15.1444334 40.3832439,15.5444354 C39.808241,15.9444374 39.2040804,16.2777674 38.5707439,16.5444354 C38.2374089,16.6611027 37.958245,16.6944357 37.7332439,16.6444354 C37.5082428,16.5944352 37.3040782,16.5277692 37.1207439,16.4444354 C36.9207429,16.3444349 36.7665778,16.2111029 36.6582439,16.0444354 C36.54991,15.8777679 36.4707442,15.7111029 36.4207439,15.5444354 C36.3540769,15.3611012 36.3124107,15.1527699 36.2957439,14.9194354 C36.0624094,15.2527704 35.7957454,15.5444342 35.4957439,15.7944354 C35.2457427,16.0111032 34.9499123,16.2069346 34.6082439,16.3819354 C34.2665755,16.5569363 33.9040792,16.6277689 33.5207439,16.5944354 C33.0707417,16.5611019 32.7124119,16.4569363 32.4457439,16.2819354 C32.1790759,16.1069346 31.9707447,15.9194364 31.8207439,15.7194354 C31.6707432,15.5194344 31.5665775,15.3277697 31.5082439,15.1444354 C31.4499103,14.9611012 31.4124107,14.8444357 31.3957439,14.7944354 C31.3457437,14.4777672 31.3457437,14.1027709 31.3957439,13.6694354 C31.4457442,13.2360999 31.5749095,12.7402716 31.7832439,12.1819354 C31.9915783,11.6235993 32.2957419,10.9944389 32.6957439,10.2944354 C33.0957459,9.59443194 33.6124074,8.81943969 34.2457439,7.96943544 C34.3124109,7.86943494 34.4207432,7.73610294 34.5707439,7.56943544 C34.7207447,7.40276794 34.8915763,7.24443619 35.0832439,7.09443544 C35.2749115,6.94443469 35.4790762,6.83193582 35.6957439,6.75693544 C35.9124117,6.68193507 36.1374094,6.70276819 36.3707439,6.81943544 C36.6040784,6.93610269 36.7624102,7.08193457 36.8457439,7.25693544 C36.9290777,7.43193632 36.9707439,7.61943444 36.9707439,7.81943544 C36.9707439,8.01943644 36.9374109,8.21943444 36.8707439,8.41943544 C36.8040769,8.61943644 36.7290777,8.80276794 36.6457439,8.96943544 L36.4457439,9.31943544 C36.3957437,9.41943594 36.3374109,9.51526832 36.2707439,9.60693544 C36.2040769,9.69860257 36.1457442,9.78610169 36.0957439,9.86943544 C35.9457432,10.1027699 35.7624117,10.3777672 35.5457439,10.6944354 C35.3290762,11.0111037 35.1124117,11.3527669 34.8957439,11.7194354 C34.6790762,12.0861039 34.4707449,12.4569336 34.2707439,12.8319354 C34.0707429,13.2069373 33.9040779,13.5694337 33.7707439,13.9194354 C33.6874102,14.1694367 33.6374107,14.3861012 33.6207439,14.5694354 C33.6040772,14.7361029 33.6332435,14.8861014 33.7082439,15.0194354 C33.7832443,15.1527694 33.9374094,15.2111022 34.1707439,15.1944354 C34.3540782,15.1777687 34.5832425,15.0319368 34.8582439,14.7569354 C35.1332453,14.4819341 35.424909,14.1402708 35.7332439,13.7319354 C36.0415788,13.3236001 36.3540757,12.8777712 36.6707439,12.3944354 C36.9874122,11.9110997 37.2707427,11.4527709 37.5207439,11.0194354 C37.7707452,10.5694332 38.0582423,10.0902713 38.3832439,9.58193544 C38.7082455,9.07359957 39.0790752,8.53610494 39.4957439,7.96943544 C39.5624109,7.86943494 39.6707432,7.73610294 39.8207439,7.56943544 C39.9707447,7.40276794 40.1415763,7.24443619 40.3332439,7.09443544 C40.5249115,6.94443469 40.7290762,6.83193582 40.9457439,6.75693544 C41.1624117,6.68193507 41.3874094,6.70276819 41.6207439,6.81943544 C41.8540784,6.93610269 42.0124102,7.08193457 42.0957439,7.25693544 C42.1790777,7.43193632 42.2207439,7.61943444 42.2207439,7.81943544 C42.2207439,8.01943644 42.1874109,8.21943444 42.1207439,8.41943544 C42.0540769,8.61943644 41.9790777,8.80276794 41.8957439,8.96943544 L41.6957439,9.31943544 C41.6457437,9.41943594 41.5874109,9.51526832 41.5207439,9.60693544 C41.4540769,9.69860257 41.3957442,9.78610169 41.3457439,9.86943544 C40.9290752,10.4194382 40.5457457,10.9694327 40.1957439,11.5194354 C39.8957424,12.0027712 39.5957454,12.5110994 39.2957439,13.0444354 C38.9957424,13.5777714 38.7790779,14.0610999 38.6457439,14.4944354 C38.5624102,14.7611034 38.5290772,14.9652681 38.5457439,15.1069354 C38.5624107,15.2486028 38.6040769,15.3611017 38.6707439,15.4444354 C39.3707474,14.9777664 40.0290742,14.4194387 40.6457439,13.7694354 C41.2624137,13.1194322 41.8040749,12.4944384 42.2707439,11.8944354 C42.8207467,11.1944319 43.3290749,10.4777724 43.7957439,9.74443544 C44.0957454,9.24443294 44.3374097,8.77360432 44.5207439,8.33193544 C44.7040782,7.89026657 44.7540777,7.55276994 44.6707439,7.31943544 C44.6540772,7.28610194 44.6374107,7.24443569 44.6207439,7.19443544 C44.6040772,7.16110194 44.5874107,7.12360232 44.5707439,7.08193544 C44.5540772,7.04026857 44.5540772,6.98610244 44.5707439,6.91943544 C44.5874107,6.81943494 44.6207437,6.74026907 44.6707439,6.68193544 C44.7207442,6.62360182 44.7790769,6.57776894 44.8457439,6.54443544 C44.9124109,6.49443519 44.9957434,6.46110219 45.0957439,6.44443544 C45.2290779,6.41110194 45.3749098,6.43610169 45.5332439,6.51943544 C45.691578,6.60276919 45.8290767,6.69443494 45.9457439,6.79443544 C46.1624117,6.96110294 46.3290767,7.17776744 46.4457439,7.44443544 C46.5124109,7.57776944 46.5624104,7.71110144 46.5957439,7.84443544 Z M54.6999249,1.69443544 C54.9665929,1.76110244 55.1915907,1.86110144 55.3749249,1.99443544 C55.5415924,2.11110269 55.6832577,2.25693457 55.7999249,2.43193544 C55.9165922,2.60693632 55.9499252,2.82776744 55.8999249,3.09443544 C55.8832582,3.19443594 55.8499252,3.30276819 55.7999249,3.41943544 C55.7665914,3.51943594 55.704092,3.63193482 55.6124249,3.75693544 C55.5207578,3.88193607 55.4082589,4.01110144 55.2749249,4.14443544 C55.2249247,4.17776894 55.1665919,4.21943519 55.0999249,4.26943544 C55.0499247,4.30276894 54.9999252,4.34860182 54.9499249,4.40693544 C54.8999247,4.46526907 54.8499252,4.51110194 54.7999249,4.54443544 C54.4165897,4.89443719 53.9874273,5.35276594 53.5124249,5.91943544 C53.0374225,6.48610494 52.5457608,7.14026507 52.0374249,7.88193544 C51.529089,8.62360582 51.029094,9.43609769 50.5374249,10.3194354 C50.0457558,11.2027732 49.6082602,12.1444304 49.2249249,13.1444354 C49.1082577,13.4611037 49.0082587,13.7611007 48.9249249,14.0444354 C48.8415912,14.3277702 48.7832584,14.5861009 48.7499249,14.8194354 C48.7332582,14.9194359 48.7332582,15.0194349 48.7499249,15.1194354 C48.7665917,15.2027692 48.7832582,15.2902683 48.7999249,15.3819354 C48.8165917,15.4736026 48.8582579,15.5611017 48.9249249,15.6444354 C48.9415917,15.6777689 48.9665914,15.7194352 48.9999249,15.7694354 C49.0332584,15.8361024 49.0665914,15.9194349 49.0999249,16.0194354 C49.1165917,16.1861029 49.0582589,16.3361014 48.9249249,16.4694354 C48.8582579,16.5361024 48.7832587,16.5777687 48.6999249,16.5944354 C48.4832572,16.6777692 48.2249264,16.6361029 47.9249249,16.4694354 C47.6582569,16.3194347 47.4415924,16.1361032 47.2749249,15.9194354 C47.1915912,15.8194349 47.1082587,15.7027694 47.0249249,15.5694354 C46.8415907,15.3361009 46.737425,15.0486038 46.7124249,14.7069354 C46.6874248,14.3652671 46.6915914,14.0444369 46.7249249,13.7444354 C46.7749252,13.3944337 46.8499244,13.0361039 46.9499249,12.6694354 C47.0832589,12.2194332 47.2415907,11.7652711 47.4249249,11.3069354 C47.6082592,10.8485998 47.7915907,10.4069376 47.9749249,9.98193544 C48.1582592,9.55693332 48.3415907,9.15693732 48.5249249,8.78193544 C48.7082592,8.40693357 48.8749242,8.07777019 49.0249249,7.79443544 C49.3082597,7.22776594 49.6165899,6.66110494 49.9499249,6.09443544 C50.2332597,5.61109969 50.5582564,5.09443819 50.9249249,4.54443544 C51.2915934,3.99443269 51.6832562,3.48610444 52.0999249,3.01943544 C52.1832587,2.91943494 52.2665912,2.82776919 52.3499249,2.74443544 L52.5999249,2.49443544 C52.6832587,2.41110169 52.7749244,2.32776919 52.8749249,2.24443544 C53.5082614,1.71109944 54.1165887,1.52776794 54.6999249,1.69443544 Z M62.0291059,6.69443544 C62.2624404,6.81110269 62.4207722,6.95276794 62.5041059,7.11943544 C62.5874397,7.28610294 62.6291059,7.46943444 62.6291059,7.66943544 C62.6291059,7.86943644 62.5957729,8.07360107 62.5291059,8.28193544 C62.4624389,8.49026982 62.3874397,8.67776794 62.3041059,8.84443544 L62.1041059,9.19443544 C62.0541057,9.29443594 61.9957729,9.39026832 61.9291059,9.48193544 C61.8624389,9.57360257 61.8041062,9.66110169 61.7541059,9.74443544 C61.5874384,10.0277702 61.3874404,10.3860999 61.1541059,10.8194354 C60.9541049,11.1861039 60.7124407,11.6360994 60.4291059,12.1694354 C60.1457712,12.7027714 59.8374409,13.3194319 59.5041059,14.0194354 C59.2874382,14.4861044 59.0707737,14.9444332 58.8541059,15.3944354 C58.6707717,15.7777707 58.4707737,16.1860999 58.2541059,16.6194354 C58.0374382,17.0527709 57.8291069,17.4277672 57.6291059,17.7444354 C58.0624414,17.8611027 58.4957704,18.0069346 58.9291059,18.1819354 C59.3624414,18.3569363 59.7624374,18.5861007 60.1291059,18.8694354 C60.4957744,19.1527702 60.7166055,19.4486006 60.7916059,19.7569354 C60.8666063,20.0652703 60.8041069,20.3361009 60.6041059,20.5694354 C60.4207717,20.8027699 60.1916073,20.9194354 59.9166059,20.9194354 C59.6416045,20.9194354 59.3707739,20.8777692 59.1041059,20.7944354 C58.8041044,20.6944349 58.4874409,20.5361032 58.1541059,20.3194354 C58.0041052,20.2361017 57.8374402,20.1611024 57.6541059,20.0944354 C57.4874384,20.0277684 57.291607,19.9569358 57.0666059,19.8819354 C56.8416048,19.8069351 56.5874407,19.7277692 56.3041059,19.6444354 C55.8541037,20.2111049 55.3666085,20.7485996 54.8416059,21.2569354 C54.3166033,21.7652713 53.7499423,22.1944337 53.1416059,22.5444354 C52.5332695,22.8944372 51.883276,23.1486013 51.1916059,23.3069354 C50.4999358,23.4652696 49.7624432,23.4777694 48.9791059,23.3444354 C48.5457704,23.2277682 48.1791074,23.0611032 47.8791059,22.8444354 C47.6291047,22.6611012 47.4374399,22.4069371 47.3041059,22.0819354 C47.1707719,21.7569338 47.2124382,21.3444379 47.4291059,20.8444354 C47.5957734,20.4277667 47.9291034,20.0194374 48.4291059,19.6194354 C48.9291084,19.2194334 49.533269,18.8611037 50.2416059,18.5444354 C50.9499428,18.2277672 51.724935,17.9694364 52.5666059,17.7694354 C53.4082768,17.5694344 54.2707682,17.4611022 55.1541059,17.4444354 C55.3374402,17.0777669 55.5124384,16.7236038 55.6791059,16.3819354 C55.8457734,16.0402671 56.0041052,15.7027704 56.1541059,15.3694354 C55.9207714,15.7361039 55.6666073,16.0027679 55.3916059,16.1694354 C55.1166045,16.3361029 54.8624404,16.4527684 54.6291059,16.5194354 C54.3457712,16.5861024 54.0624407,16.6111022 53.7791059,16.5944354 C53.3291037,16.5611019 52.9707739,16.4569363 52.7041059,16.2819354 C52.4374379,16.1069346 52.2291067,15.9194364 52.0791059,15.7194354 C51.9291052,15.5194344 51.8249395,15.3277697 51.7666059,15.1444354 C51.7082723,14.9611012 51.6707727,14.8444357 51.6541059,14.7944354 C51.6041057,14.4777672 51.6041057,14.1027709 51.6541059,13.6694354 C51.7041062,13.2360999 51.8332715,12.7402716 52.0416059,12.1819354 C52.2499403,11.6235993 52.5541039,10.9944389 52.9541059,10.2944354 C53.3541079,9.59443194 53.8707694,8.81943969 54.5041059,7.96943544 C54.5707729,7.86943494 54.6791052,7.73610294 54.8291059,7.56943544 C54.9791067,7.40276794 55.1499383,7.24443619 55.3416059,7.09443544 C55.5332735,6.94443469 55.7374382,6.83193582 55.9541059,6.75693544 C56.1707737,6.68193507 56.3957714,6.70276819 56.6291059,6.81943544 C56.8624404,6.93610269 57.0207722,7.08193457 57.1041059,7.25693544 C57.1874397,7.43193632 57.2291059,7.61943444 57.2291059,7.81943544 C57.2291059,8.01943644 57.1957729,8.21943444 57.1291059,8.41943544 C57.0624389,8.61943644 56.9874397,8.80276794 56.9041059,8.96943544 L56.7041059,9.31943544 C56.6541057,9.41943594 56.5957729,9.51526832 56.5291059,9.60693544 C56.4624389,9.69860257 56.4041062,9.78610169 56.3541059,9.86943544 C56.2041052,10.1027699 56.0207737,10.3777672 55.8041059,10.6944354 C55.5874382,11.0111037 55.3707737,11.3527669 55.1541059,11.7194354 C54.9374382,12.0861039 54.7291069,12.4569336 54.5291059,12.8319354 C54.3291049,13.2069373 54.1707732,13.5694337 54.0541059,13.9194354 C53.9707722,14.1527699 53.9207727,14.3611012 53.9041059,14.5444354 C53.8874392,14.7111029 53.9124389,14.8611014 53.9791059,14.9944354 C54.0457729,15.1277694 54.1957714,15.1944354 54.4291059,15.1944354 C54.6457737,15.1777687 54.8999378,15.0444367 55.1916059,14.7944354 C55.483274,14.5444342 55.7791044,14.2361039 56.0791059,13.8694354 C56.3791074,13.5027669 56.6791044,13.0986043 56.9791059,12.6569354 C57.2791074,12.2152666 57.5541047,11.7944374 57.8041059,11.3944354 C58.0541072,10.9944334 58.266605,10.6444369 58.4416059,10.3444354 C58.6166068,10.0444339 58.7291057,9.84443594 58.7791059,9.74443544 C58.9457734,9.41110044 59.1207717,9.08610369 59.3041059,8.76943544 C59.4874402,8.45276719 59.7041047,8.12777044 59.9541059,7.79443544 C60.0207729,7.69443494 60.1249385,7.56110294 60.2666059,7.39443544 C60.4082733,7.22776794 60.5749383,7.07360282 60.7666059,6.93193544 C60.9582735,6.79026807 61.1582715,6.68610244 61.3666059,6.61943544 C61.5749403,6.55276844 61.7957714,6.57776819 62.0291059,6.69443544 Z M49.1041059,22.0694354 C50.0207772,22.1194357 50.8791019,21.8736048 51.6791059,21.3319354 C52.4791099,20.7902661 53.2124359,20.1027729 53.8791059,19.2694354 C53.5124374,19.2527687 53.1624409,19.2694352 52.8291059,19.3194354 C52.4957709,19.3694357 52.1874407,19.4361017 51.9041059,19.5194354 C51.5874377,19.6027692 51.2874407,19.7027682 51.0041059,19.8194354 C50.6041039,19.9861029 50.2457742,20.1652678 49.9291059,20.3569354 C49.6124377,20.5486031 49.3374404,20.7319346 49.1041059,20.9069354 C48.8707714,21.0819363 48.6957732,21.2402681 48.5791059,21.3819354 C48.4624387,21.5236028 48.4041059,21.6194352 48.4041059,21.6694354 C48.4374394,21.8194362 48.5624382,21.9277684 48.7791059,21.9944354 C48.8791064,22.0444357 48.9874387,22.0694354 49.1041059,22.0694354 Z" id="path-1"></path>
        <path d="M18.2469486,5.99887687 C18.2802821,5.99887687 18.3594479,6.01137674 18.4844486,6.03637687 C18.6094492,6.06137699 18.7344479,6.11970974 18.8594486,6.21137687 C18.9844492,6.30304399 19.0844482,6.43637599 19.1594486,6.61137687 C19.2344489,6.78637774 19.2469488,7.02387537 19.1969486,7.32387687 C19.1636151,7.49054437 19.1052823,7.64054287 19.0219486,7.77387687 C18.9386148,7.89054412 18.8302826,7.99470974 18.6969486,8.08637687 C18.5636146,8.17804399 18.3719498,8.22387687 18.1219486,8.22387687 C17.7886136,8.19054337 17.4594502,8.23220962 17.1344486,8.34887687 C16.8094469,8.46554412 16.5302831,8.61554262 16.2969486,8.79887687 C16.2802818,9.08221162 16.2511154,9.34470899 16.2094486,9.58637687 C16.1677817,9.82804474 16.1219488,10.0405426 16.0719486,10.2238769 C16.0052816,10.4405446 15.9469488,10.6405426 15.8969486,10.8238769 C15.6636141,11.5238804 15.3886168,12.1780405 15.0719486,12.7863769 C14.7552803,13.3947132 14.4219503,13.9572076 14.0719486,14.4738769 C13.7219468,15.0072129 13.3552838,15.494708 12.9719486,15.9363769 C12.5886133,16.3780457 12.2052838,16.7822084 11.8219486,17.1488769 C11.4552801,17.4988786 11.0636173,17.8322086 10.6469486,18.1488769 C10.2969468,18.4322116 9.90528405,18.7155421 9.47194855,18.9988769 C9.03861305,19.2822116 8.5969508,19.5238759 8.14694855,19.7238769 C7.64694605,19.9738781 7.11361805,20.186376 6.54694855,20.3613769 C5.98027905,20.5363777 5.4052848,20.6405434 4.82194855,20.6738769 C4.55528055,20.6905436 4.31778293,20.686377 4.10944855,20.6613769 C3.90111418,20.6363767 3.7219493,20.6072104 3.57194855,20.5738769 C3.3886143,20.5405434 3.23028255,20.5072104 3.09694855,20.4738769 C2.53027905,20.2905426 2.0886168,20.0155454 1.77194855,19.6488769 C1.4552803,19.2822084 1.2219493,18.886379 1.07194855,18.4613769 C0.921947801,18.0363747 0.838615301,17.6155456 0.821948551,17.1988769 C0.805281801,16.7822081 0.805281801,16.4322116 0.821948551,16.1488769 C0.921949051,15.0988716 1.15944668,14.094715 1.53444855,13.1363769 C1.90945043,12.1780387 2.3052798,11.3238806 2.72194855,10.5738769 C3.2052843,9.70720587 3.7386123,8.89054737 4.32194855,8.12387687 C4.45528255,7.92387587 4.6136143,7.71554462 4.79694855,7.49887687 C5.09695005,7.11554162 5.5552788,6.63221312 6.17194855,6.04887687 C6.2219488,5.99887662 6.45111318,5.79887862 6.85944855,5.44887687 C7.26778393,5.09887512 7.8136118,4.73221212 8.49694855,4.34887687 C8.59694905,4.28220987 8.75944743,4.18221087 8.98444855,4.04887687 C9.20944968,3.91554287 9.48444693,3.78637749 9.80944855,3.66137687 C10.1344502,3.53637624 10.4927799,3.42387737 10.8844486,3.32387687 C11.2761172,3.22387637 11.6886131,3.16554362 12.1219486,3.14887687 C12.3219496,3.13221012 12.5136143,3.14054337 12.6969486,3.17387687 C12.8636161,3.20721037 13.0302811,3.24887662 13.1969486,3.29887687 C13.3636161,3.34887712 13.5136146,3.42387637 13.6469486,3.52387687 C13.6969488,3.57387712 13.7511149,3.63637649 13.8094486,3.71137687 C13.8677822,3.78637724 13.9219483,3.87804299 13.9719486,3.98637687 C14.0219488,4.09471074 14.0469486,4.21970949 14.0469486,4.36137687 C14.0469486,4.50304424 14.0052823,4.64887612 13.9219486,4.79887687 C13.8219481,4.98221112 13.7136158,5.10720987 13.5969486,5.17387687 C13.4802813,5.24054387 13.3636158,5.28221012 13.2469486,5.29887687 C13.1302813,5.31554362 13.0219491,5.31554362 12.9219486,5.29887687 C12.8219481,5.28221012 12.7469488,5.27387687 12.6969486,5.27387687 C12.4636141,5.22387662 12.1594504,5.21554337 11.7844486,5.24887687 C11.4094467,5.28221037 10.9761177,5.41137574 10.4844486,5.63637687 C9.99277943,5.86137799 9.44695155,6.21137449 8.84694855,6.68637687 C8.24694555,7.16137924 7.61361855,7.82387262 6.94694855,8.67387687 C6.0969443,9.74054887 5.3636183,10.8155381 4.74694855,11.8988769 C4.48028055,12.3655459 4.23028305,12.853041 3.99694855,13.3613769 C3.76361405,13.8697127 3.56778268,14.3863742 3.40944855,14.9113769 C3.25111443,15.4363795 3.1469488,15.9572076 3.09694855,16.4738769 C3.0469483,16.9905461 3.07194805,17.4822079 3.17194855,17.9488769 C3.2886158,18.4322126 3.60944593,18.794709 4.13444855,19.0363769 C4.65945118,19.2780447 5.2969448,19.2822114 6.04694855,19.0488769 C6.6302848,18.8822094 7.1969458,18.6447117 7.74694855,18.3363769 C8.2969513,18.028042 8.7802798,17.7155451 9.19694855,17.3988769 C9.6802843,17.0322084 10.1302798,16.6405456 10.5469486,16.2238769 C11.0302843,15.7405411 11.5011129,15.1905466 11.9594486,14.5738769 C12.4177842,13.9572071 12.8136136,13.2488809 13.1469486,12.4488769 C13.3802831,11.9655411 13.5302816,11.5405454 13.5969486,11.1738769 C13.6636156,10.8072084 13.7052818,10.4822116 13.7219486,10.1988769 C13.4886141,10.3822111 13.2594497,10.5155431 13.0344486,10.5988769 C12.8094474,10.6822106 12.6052828,10.7405434 12.4219486,10.7738769 C12.2052808,10.8238771 11.9969496,10.8322104 11.7969486,10.7988769 C11.5136138,10.7822101 11.2802828,10.7447105 11.0969486,10.6863769 C10.9136143,10.6280432 10.7636158,10.5572106 10.6469486,10.4738769 C10.5136146,10.3905431 10.4136156,10.2988774 10.3469486,10.1988769 C10.2636148,10.0988764 10.2136153,9.99054412 10.1969486,9.87387687 C10.1802818,9.75720962 10.1552821,9.64887737 10.1219486,9.54887687 C10.0886151,9.34887587 10.0886151,9.18221087 10.1219486,9.04887687 L10.1719486,8.84887687 C10.3052826,8.21554037 10.5469468,7.71554537 10.8969486,7.34887687 C11.2469503,6.98220837 11.5469473,6.70721112 11.7969486,6.52387687 C12.0302831,6.37387612 12.2677807,6.26137724 12.5094486,6.18637687 C12.7511164,6.11137649 12.9886141,6.05721037 13.2219486,6.02387687 C13.6552841,5.99054337 14.0344469,6.01554312 14.3594486,6.09887687 C14.6844502,6.18221062 14.9552808,6.28220962 15.1719486,6.39887687 C15.4219498,6.53221087 15.6302811,6.68220937 15.7969486,6.84887687 C15.9802828,6.71554287 16.1844474,6.58221087 16.4094486,6.44887687 C16.6344497,6.31554287 16.8552808,6.20721062 17.0719486,6.12387687 C17.1886158,6.09054337 17.3136146,6.05721037 17.4469486,6.02387687 C17.7136166,5.95720987 17.9802806,5.94887662 18.2469486,5.99887687 Z M11.3219486,9.59887687 C11.4219491,9.76554437 11.6636133,9.84054362 12.0469486,9.82387687 C12.4302838,9.80721012 12.8636128,9.55721262 13.3469486,9.07387687 C13.1802811,8.89054262 12.9886163,8.77804374 12.7719486,8.73637687 C12.5552808,8.69470999 12.3386163,8.69887662 12.1219486,8.74887687 C11.9886146,8.78221037 11.8677824,8.83637649 11.7594486,8.91137687 C11.6511147,8.98637724 11.5594489,9.07387637 11.4844486,9.17387687 C11.4094482,9.27387737 11.3552821,9.36554312 11.3219486,9.44887687 C11.2886151,9.53221062 11.2886151,9.58221012 11.3219486,9.59887687 Z" id="path-3"></path>
        <circle id="path-5" cx="17.053125" cy="17.159375" r="16.734375"></circle>
        <path d="M0.987350769,21.8865592 L2.88035451,21.8838955 C4.85126023,27.8012486 10.460138,32.0875 17.1005159,32.0875 C23.6797381,32.0875 29.2838786,27.7819682 31.2398525,21.8439896 L33.1326642,21.8413261 C31.118469,28.7902082 24.6902638,33.89375 17.10625,33.89375 C9.4512001,33.89375 3.01900669,28.8123442 0.987350769,21.8865592 Z" id="path-7"></path>
    </defs>
    <g id="New-Tabs" stroke="none" stroke-width="1" fill="none" fill-rule="evenodd">
        <g id="Products-site" transform="translate(-141.000000, -11.000000)">
            <g id="logo_owwly" transform="translate(140.000000, 10.000000)">
                <path d="M49.2803684,32.2340795 C48.7502345,32.3889228 48.1949508,32.0846895 48.0401075,31.5545555 C47.8852643,31.0244216 48.1894976,30.4691378 48.7196316,30.3142946 C61.2621223,26.650844 74.6477198,24.8198211 88.8738589,24.8198211 C89.4261437,24.8198211 89.8738589,25.2675363 89.8738589,25.8198211 C89.8738589,26.3721058 89.4261437,26.8198211 88.8738589,26.8198211 C74.8335404,26.8198211 61.6365652,28.6250422 49.2803684,32.2340795 Z" id="Path-5" fill="#00B283" fill-rule="nonzero"></path>
                <g id="sign" transform="translate(46.000000, 5.000000)">
                    <mask id="mask-2" fill="white">
                        <use xlink:href="#path-1"></use>
                    </mask>
                    <use id="wwly" fill="#454545" transform="translate(39.491584, 12.535388) rotate(-4.000000) translate(-39.491584, -12.535388) " xlink:href="#path-1"></use>
                    <mask id="mask-4" fill="white">
                        <use xlink:href="#path-3"></use>
                    </mask>
                    <use id="O" fill="#00B283" transform="translate(10.018199, 11.912210) rotate(-4.000000) translate(-10.018199, -11.912210) " xlink:href="#path-3"></use>
                </g>
                <g id="Owwly-logo">
                    <rect id="bcg" fill-opacity="0" fill="#D8D8D8" x="0" y="0" width="34" height="34"></rect>
                    <mask id="mask-6" fill="white">
                        <use xlink:href="#path-5"></use>
                    </mask>
                    <g id="Square"></g>
                    <path d="M5.525,16.04375 L5.63125,16.68125 L5.20625,17.31875 C3.33911219,19.895646 2.3375,22.9661965 2.3375,26.24375 C2.3375,34.5037614 8.9572845,41.225 17.10625,41.225 C25.2552155,41.225 31.875,34.5037614 31.875,26.24375 C31.875,22.751205 30.734897,19.4894147 28.6875,16.89375 L28.2625,16.25625 L28.2625,15.5125 C28.3201203,15.1754543 28.3371137,14.8285251 28.36875,14.45 C28.3371137,8.43433894 23.2156132,3.50625 16.89375,3.50625 C10.5144478,3.50625 5.39294724,8.43433894 5.41875,14.45 C5.39294724,14.9887171 5.42910707,15.493206 5.525,16.04375 Z M3.50625,14.55625 C3.47750604,7.44714912 9.44762398,1.7 16.7875,1.7 C24.1766514,1.7 30.1467693,7.44714912 30.175,14.55625 C30.1467693,14.948642 30.1266041,15.3561332 30.06875,15.725 C32.3373478,18.6393693 33.68125,22.283875 33.68125,26.24375 C33.68125,35.5754617 26.2365849,43.1375 17.10625,43.1375 C7.86966514,43.1375 0.425,35.5754617 0.425,26.24375 C0.425,22.5339394 1.6046669,19.100534 3.6125,16.3625 C3.52063772,15.7320948 3.47750604,15.1392047 3.50625,14.55625 Z" id="body" fill="#00B283" fill-rule="nonzero" mask="url(#mask-6)"></path>
                    <path d="M5.525,16.04375 L5.63125,16.68125 L5.20625,17.31875 C3.33911219,19.895646 2.3375,22.9661965 2.3375,26.24375 C2.3375,34.5037614 8.9572845,41.225 17.10625,41.225 C25.2552155,41.225 31.875,34.5037614 31.875,26.24375 C31.875,22.751205 30.734897,19.4894147 28.6875,16.89375 L28.2625,16.25625 L28.2625,15.5125 C28.3201203,15.1754543 28.3371137,14.8285251 28.36875,14.45 C28.3371137,8.43433894 23.2156132,3.50625 16.89375,3.50625 C10.5144478,3.50625 5.39294724,8.43433894 5.41875,14.45 C5.39294724,14.9887171 5.42910707,15.493206 5.525,16.04375 Z" id="Path" fill="#F1FFF9" mask="url(#mask-6)"></path>
                    <path d="M3,18.7 L3.74375,17 C9.48161058,19.6593962 12.9760209,22.9209649 14.15625,26.775 L14.79375,28.79375 L13.4125,28.15625 C15.0101915,30.5947506 15.8822623,33.0526637 16.06875,35.59375 L14.15625,35.7 C13.9864015,32.7525573 12.666587,29.8415576 10.225,26.9875 L8.63125,25.075 L11.075,25.39375 C11.2501386,25.4587797 11.4245144,25.4922874 11.60625,25.5 C10.1143695,22.9681503 7.26038199,20.6812084 3,18.7 Z" id="left-wing" fill="#00B283" fill-rule="nonzero" mask="url(#mask-6)"></path>
                    <g id="left-wing-copy" mask="url(#mask-6)" fill="#00B283" fill-rule="nonzero">
                        <g transform="translate(18.000000, 17.000000)">
                            <path d="M1.82076576e-13,1.7 L0.74375,-9.05941988e-14 C6.48161058,2.65939624 9.97602092,5.92096486 11.15625,9.775 L11.79375,11.79375 L10.4125,11.15625 C12.0101915,13.5947506 12.8822623,16.0526637 13.06875,18.59375 L11.15625,18.7 C10.9864015,15.7525573 9.66658696,12.8415576 7.225,9.9875 L5.63125,8.075 L8.075,8.39375 C8.25013863,8.45877973 8.42451439,8.4922874 8.60625,8.5 C7.11436948,5.9681503 4.26038199,3.68120844 1.82076576e-13,1.7 Z" transform="translate(6.534375, 9.350000) scale(-1, 1) translate(-6.534375, -9.350000) "></path>
                        </g>
                    </g>
                    <g id="left-eye" mask="url(#mask-6)">
                        <g transform="translate(5.100000, 5.843750)">
                            <path d="M6.16159188,11.58125 C2.74733278,11.58125 0,9.00158043 0,5.84279279 C0,2.57966957 2.74733278,0 6.16159188,0 C9.47141722,0 12.21875,2.57966957 12.21875,5.84279279 C12.21875,9.00158043 9.47141722,11.58125 6.16159188,11.58125 Z" id="Oval-3" fill="#00B283" fill-rule="nonzero"></path>
                            <path d="M6.05625,9.775 C8.49809982,9.775 10.4125,7.97814926 10.4125,5.84375 C10.4125,3.60310074 8.49809982,1.80625 6.05625,1.80625 C3.72065018,1.80625 1.80625,3.60310074 1.80625,5.84375 C1.80625,7.97814926 3.72065018,9.775 6.05625,9.775 Z" id="Path" fill="#FFFFFF" fill-rule="evenodd"></path>
                        </g>
                    </g>
                    <g id="right-eye" mask="url(#mask-6)">
                        <g transform="translate(16.681250, 5.843750)">
                            <path d="M6.16159188,11.58125 C2.74733278,11.58125 0,9.00158043 0,5.84279279 C0,2.57966957 2.74733278,0 6.16159188,0 C9.47141722,0 12.21875,2.57966957 12.21875,5.84279279 C12.21875,9.00158043 9.47141722,11.58125 6.16159188,11.58125 Z" id="Oval-3" fill="#00B283" fill-rule="nonzero"></path>
                            <path d="M6.05625,9.775 C8.49809982,9.775 10.4125,7.97814926 10.4125,5.84375 C10.4125,3.60310074 8.49809982,1.80625 6.05625,1.80625 C3.72065018,1.80625 1.80625,3.60310074 1.80625,5.84375 C1.80625,7.97814926 3.72065018,9.775 6.05625,9.775 Z" id="Path" fill="#FFFFFF" fill-rule="evenodd"></path>
                        </g>
                    </g>
                    <g id="nose" mask="url(#mask-6)">
                        <g transform="translate(12.856250, 12.112500)" id="Rectangle-12">
                            <polygon fill="#00B283" transform="translate(4.207285, 4.207285) rotate(-315.000000) translate(-4.207285, -4.207285) " points="1.23228535 1.23228535 7.18228535 1.23228535 7.18228535 7.18228535 1.23228535 7.18228535"></polygon>
                            <polygon fill="#F1FFF9" transform="translate(4.127732, 4.233982) rotate(-315.000000) translate(-4.127732, -4.233982) " points="3.01210701 3.11835701 5.24335701 3.11835701 5.24335701 5.34960701 3.01210701 5.34960701"></polygon>
                        </g>
                    </g>
                    <mask id="mask-8" fill="white">
                        <use xlink:href="#path-7"></use>
                    </mask>
                    <use id="Combined-Shape" fill="#00B283" xlink:href="#path-7"></use>
                    <g id="left-eyebrow" transform="translate(0.912500, 0.106250)">
                        <path d="M18.1371181,8.02975096 L19.120739,9.48302071 L1.48323903,9.48302071 L2.46685991,8.02975096 C4.55071109,4.9509246 7.16526653,3.35009757 10.254001,3.32092451 C10.3186162,3.32053687 10.3186162,3.32053687 10.339615,3.32052071 C13.4387115,3.35009757 16.053267,4.9509246 18.1371181,8.02975096 Z" id="Combined-Shape" fill="#00B283" fill-rule="nonzero" transform="translate(10.301989, 6.401771) rotate(24.000000) translate(-10.301989, -6.401771) "></path>
                        <path d="M15.2906192,7.62157771 C13.7916285,5.9952624 12.093374,5.19630854 10.1677628,5.17808937 C10.1380111,5.17783298 10.1356975,5.17783884 10.1331231,5.17784536 C8.18161439,5.19630854 6.48335989,5.9952624 4.98437048,7.62157771 L15.2906192,7.62157771 Z" id="Path" fill="#F1FFF9" transform="translate(10.137495, 6.399711) rotate(24.000000) translate(-10.137495, -6.399711) "></path>
                    </g>
                    <g id="left-eyebrow-copy" transform="translate(22.843750, 6.534375) scale(-1, 1) translate(-22.843750, -6.534375) translate(13.493750, 0.106250)">
                        <path d="M17.2255428,8.02975096 L18.2091637,9.48302071 L0.571663714,9.48302071 L1.55528459,8.02975096 C3.63913577,4.9509246 6.25369122,3.35009757 9.3424257,3.32092451 C9.40704091,3.32053687 9.40704091,3.32053687 9.42803965,3.32052071 C12.5271362,3.35009757 15.1416917,4.9509246 17.2255428,8.02975096 Z" id="Combined-Shape" fill="#00B283" fill-rule="nonzero" transform="translate(9.390414, 6.401771) rotate(24.000000) translate(-9.390414, -6.401771) "></path>
                        <path d="M14.3985265,7.62157771 C12.8995358,5.9952624 11.2012813,5.19630854 9.2756701,5.17808937 C9.24591839,5.17783298 9.24360477,5.17783884 9.24103038,5.17784536 C7.2895217,5.19630854 5.59126719,5.9952624 4.09227779,7.62157771 L14.3985265,7.62157771 Z" id="Path" fill="#F1FFF9" transform="translate(9.245402, 6.399711) rotate(24.000000) translate(-9.245402, -6.399711) "></path>
                    </g>
                    <circle id="eye" fill="#00B283" cx="21.409375" cy="11.421875" r="1.328125"></circle>
                    <circle id="eye" fill="#00B283" cx="12.590625" cy="11.421875" r="1.328125"></circle>
                </g>
            </g>
        </g>
    </g>
</svg>