<?xml version="1.0" encoding="utf-8"?>
<!-- Generator: Adobe Illustrator 23.1.1, SVG Export Plug-In . SVG Version: 6.00 Build 0)  -->
<svg version="1.1" id="Capa_1" xmlns="http://www.w3.org/2000/svg" xmlns:xlink="http://www.w3.org/1999/xlink" x="0px" y="0px"
	 viewBox="0 0 512 512" style="enable-background:new 0 0 512 512;" xml:space="preserve">
<style type="text/css">
	.st0{fill:#9C66E4;}
	.st1{fill:#455A64;}
	.st2{fill:#FAFAFA;}
	.st3{fill:#7327CC;}
</style>
<path class="st0" d="M480,128H32c-17.6,0-32,14.4-32,32v288c0,17.7,14.4,32,32,32h448c17.7,0,32-14.3,32-32V160
	C512,142.4,497.7,128,480,128z"/>
<rect y="192" class="st1" width="512" height="96"/>
<g>
	<path class="st2" d="M144,384H80c-8.8,0-16-7.2-16-16s7.2-16,16-16h64c8.8,0,16,7.2,16,16S152.8,384,144,384z"/>
	<path class="st2" d="M512,286.3V160c0-17.6-14.3-32-32-32H224v32c0,100.2,38.1,161.2,136.2,217.7c7.2,4.1,15.5,6.3,23.8,6.3
		s16.6-2.2,23.9-6.4C456.4,349.8,490.2,320.7,512,286.3z"/>
</g>
<path class="st3" d="M502.3,81.3l-112-48c-4.1-1.7-8.6-1.7-12.6,0l-112,48c-5.9,2.5-9.7,8.3-9.7,14.7v64c0,88,32.5,139.5,120,189.9
	c2.5,1.4,5.2,2.1,8,2.1s5.5-0.7,8-2.1c87.5-50.3,120-101.7,120-189.9V96C512,89.6,508.2,83.8,502.3,81.3z"/>
<path class="st2" d="M368,240c-0.2,0-0.5,0-0.7,0c-5.1-0.2-9.8-2.8-12.6-7.1l-32-48c-4.9-7.4-2.9-17.3,4.4-22.2
	c7.3-4.9,17.2-2.9,22.2,4.4l19.9,29.8l50.3-62.9c5.5-6.9,15.6-8,22.5-2.5c6.9,5.5,8,15.6,2.5,22.5l-64,80
	C377.4,237.8,372.8,240,368,240z"/>
</svg>
