<?xml version="1.0" encoding="utf-8"?>
<!-- Generator: Adobe Illustrator 23.1.1, SVG Export Plug-In . SVG Version: 6.00 Build 0)  -->
<svg version="1.1" id="Layer_1" xmlns="http://www.w3.org/2000/svg" xmlns:xlink="http://www.w3.org/1999/xlink" x="0px" y="0px"
	 viewBox="0 0 1425 379" style="enable-background:new 0 0 1425 379;" xml:space="preserve">
<style type="text/css">
	.st0{fill:#DA552F;}
	.st1{fill:#FFFFFF;}
</style>
<g>
	<g>
		<circle class="st0" cx="196" cy="189.5" r="157.9"/>
	</g>
	<path class="st1" d="M217,110.6L217,110.6h-76.3v157.9h31.6v-47.4H217v0c30.5,0,55.3-24.7,55.3-55.3
		C272.3,135.3,247.5,110.6,217,110.6z M217,189.5L217,189.5l-44.7,0v-47.4H217v0c13.1,0,23.7,10.6,23.7,23.7
		C240.7,178.9,230.1,189.5,217,189.5z"/>
	<g>
		<path class="st0" d="M459.1,242.1V136.9h48.4c22.5,0,34.7,15.2,34.7,33.3c0,18-12.4,33.2-34.7,33.2h-26.3v38.8H459.1z
			 M519.7,170.2c0-8.7-6.7-14-15.3-14h-23.3V184h23.3C513,184,519.7,178.7,519.7,170.2z"/>
		<path class="st0" d="M555.6,242.1v-76.7h19.7v10.1c5.4-6.5,14.6-11.9,23.9-11.9v19.2c-1.4-0.3-3.1-0.5-5.4-0.5
			c-6.5,0-15.2,3.7-18.5,8.5v51.3H555.6z"/>
		<path class="st0" d="M606.6,202.8c0-21.2,14.9-39.2,39.5-39.2c24.8,0,39.7,18,39.7,39.2s-14.9,39.4-39.7,39.4
			C621.5,242.1,606.6,224,606.6,202.8z M665.4,202.8c0-11.6-6.8-21.7-19.2-21.7c-12.3,0-19.1,10.1-19.1,21.7
			c0,11.8,6.8,21.9,19.1,21.9C658.5,224.6,665.4,214.5,665.4,202.8z"/>
		<path class="st0" d="M752.1,242.1v-11.5c-5.9,7.4-13.9,11.5-23.1,11.5c-18.8,0-33.2-14.3-33.2-39.4c0-24.3,14.1-39.2,33.2-39.2
			c8.8,0,17.2,3.7,23.1,11.5v-38.1h19.8v105.3H752.1z M752.1,216.1v-26.5c-3.3-5-10.4-8.5-16.9-8.5c-11.3,0-19.1,8.8-19.1,21.7
			c0,13,7.8,21.9,19.1,21.9C741.7,224.6,748.8,221,752.1,216.1z"/>
		<path class="st0" d="M842,242.1v-11.3c-5.1,5.6-14.1,11.3-26.3,11.3c-16.4,0-24.2-9-24.2-23.6v-53.2h19.7v45.4
			c0,10.4,5.4,13.8,13.8,13.8c7.6,0,13.6-4.2,17.1-8.5v-50.7h19.7v76.7H842z"/>
		<path class="st0" d="M876.5,202.8c0-22.9,16.7-39.2,39.7-39.2c15.3,0,24.7,6.7,29.6,13.5l-12.9,12.1c-3.6-5.3-9-8.1-15.8-8.1
			c-11.9,0-20.3,8.7-20.3,21.7c0,13,8.4,21.9,20.3,21.9c6.8,0,12.2-3.1,15.8-8.2l12.9,12.1c-5,6.8-14.3,13.6-29.6,13.6
			C893.2,242.1,876.5,225.9,876.5,202.8z"/>
		<path class="st0" d="M962.7,221.5v-38.9h-12.4v-17.2h12.4v-20.5h19.7v20.5h15.2v17.2h-15.2v33.6c0,4.8,2.5,8.4,6.8,8.4
			c2.9,0,5.7-1.1,6.8-2.3l4.2,15c-2.9,2.6-8.2,4.8-16.4,4.8C970,242.1,962.7,235,962.7,221.5z"/>
		<path class="st0" d="M1123.7,242.1v-45.4h-48.8v45.4h-22V136.9h22v40.6h48.8v-40.6h22.2v105.3H1123.7z"/>
		<path class="st0" d="M1216.3,242.1v-11.3c-5.1,5.6-14.1,11.3-26.3,11.3c-16.4,0-24.2-9-24.2-23.6v-53.2h19.7v45.4
			c0,10.4,5.4,13.8,13.8,13.8c7.6,0,13.6-4.2,17.1-8.5v-50.7h19.7v76.7H1216.3z"/>
		<path class="st0" d="M1306.1,242.1V195c0-10.4-5.4-14-13.8-14c-7.8,0-13.6,4.3-17.1,8.7v52.4h-19.7v-76.7h19.7v9.6
			c4.8-5.6,14.1-11.5,26.2-11.5c16.6,0,24.5,9.3,24.5,23.9v54.7H1306.1z"/>
		<path class="st0" d="M1349.4,221.5v-38.9H1337v-17.2h12.4v-20.5h19.7v20.5h15.2v17.2h-15.2v33.6c0,4.8,2.5,8.4,6.8,8.4
			c2.9,0,5.7-1.1,6.8-2.3l4.2,15c-2.9,2.6-8.2,4.8-16.4,4.8C1356.7,242.1,1349.4,235,1349.4,221.5z"/>
	</g>
</g>
</svg>
