<?xml version="1.0" encoding="utf-8"?>
<!-- Generator: Adobe Illustrator 23.1.1, SVG Export Plug-In . SVG Version: 6.00 Build 0)  -->
<svg version="1.1" id="Layer_1" xmlns="http://www.w3.org/2000/svg" xmlns:xlink="http://www.w3.org/1999/xlink" x="0px" y="0px"
	 viewBox="0 0 763 143.3" style="enable-background:new 0 0 763 143.3;" xml:space="preserve">
<style type="text/css">
	.st0{fill:#9C66E4;}
	.st1{fill:#071735;}
</style>
<rect x="-56" y="-49.2" class="st0" width="34" height="34"/>
<g>
	<polygon class="st0" points="198.9,12.3 128,83.2 57.1,12.3 57.2,12.3 9.1,12.3 9.1,12.4 128,131.3 246.9,12.3 	"/>
	<polygon class="st0" points="192.3,131.2 246.9,76.6 246.9,76.6 246.9,39.6 246.9,39.5 155.2,131.2 155.2,131.3 192.3,131.3 	"/>
	<polygon class="st0" points="215.6,131.3 246.9,131.3 246.9,99.9 	"/>
</g>
<g>
	<path class="st1" d="M357.3,121.8h-18.1l-38.5-95.2h22.7L343,80.1l5.2,15l5.2-15l19.7-53.5h22.7L357.3,121.8z"/>
	<path class="st1" d="M466.9,121.8l-6.9-19.2h-36.3l-6.9,19.2h-22.5L433,26.6h17.8l38.6,95.2H466.9z M441.8,51.5l-12,33.9h24.1
		L441.8,51.5z"/>
	<path class="st1" d="M589.1,26.6v58.1c0,25.3-14.6,38.5-39.3,38.5c-24.8,0-39.3-13.2-39.3-38.5V26.6h21v55
		c0,13.2,4.1,20.6,18.3,20.6c14.4,0,18.3-7.4,18.3-20.6v-55H589.1z"/>
	<path class="st1" d="M617.8,26.6h21v76.2H673v19h-55.2V26.6z"/>
	<path class="st1" d="M721.4,121.8h-21V45.7h-27.2v-19h75.3v19h-27.2V121.8z"/>
</g>
</svg>
