<?xml version="1.0" encoding="utf-8"?>
<!-- Generator: Adobe Illustrator 23.1.1, SVG Export Plug-In . SVG Version: 6.00 Build 0)  -->
<svg version="1.1" id="Layer_1" xmlns="http://www.w3.org/2000/svg" xmlns:xlink="http://www.w3.org/1999/xlink" x="0px" y="0px"
	 viewBox="0 0 469.3 117.3" style="enable-background:new 0 0 469.3 117.3;" xml:space="preserve">
<style type="text/css">
	.st0{fill:#d2d5fb;}
</style>
<path class="st0" d="M344,60c0-4.5-0.9-8.5-2.6-11.9c-1.7-3.4-4.2-6-7.4-7.9c-3.2-1.8-7-2.7-11.3-2.7h-29.4l-10.6,26.2l-10.2-26.2
	h-30.7V62c0,2.6-0.7,4.7-2.1,6.4c-1.4,1.6-3.2,2.4-5.5,2.4c-3.9,0-5.8-2.2-5.8-6.6V37.5h-16.2v4.2c-2.2-1.2-4.5-2.1-7-2.8
	c-3.2-0.9-6.4-1.4-9.7-1.4h-30.7l-8.3,10.9l-8.4-10.9h-19l18.3,22L127.8,83h18.9l9.7-12.2l9.7,12.2H195c6.3,0,11.2-1.2,14.7-3.7
	c2-1.3,3.4-3,4.3-4.9c0.6,1.5,1.4,2.7,2.4,3.8c2.8,3.2,7.1,4.7,13,4.7c5.7,0,10.1-2.3,13-6.7v6.7h15.9V43.3L275.7,83H289l11-24.8
	c0,0.7-0.1,1.4-0.1,2.2c0,4.7,1,8.7,3,12.1c2.1,3.4,4.9,6,8.8,7.9c3.8,1.8,8.3,2.7,13.5,2.7c3.2,0,6.5-0.5,9.7-1.4
	c3.2-0.9,6-2.2,8.2-3.8L339,67.6c-1.9,1.3-3.9,2.3-6.2,3c-2.3,0.7-4.6,1.1-6.8,1.1c-3.3,0-5.9-0.7-7.6-2.3c-1.7-1.5-2.7-3.9-3-7.3
	H344L344,60L344,60z M199.4,71.5c-1,0.5-2.4,0.8-4.3,0.8c-3,0-6-0.4-9.2-1.3c-3.1-0.9-5.9-2.2-8.3-3.7l-1.8,4.7l-10.2-12.3
	l10.5-12.6c-0.7,1.5-1.1,3.2-1.1,5c0,3.5,1,6.2,3.1,8.2c2.1,2,5.4,3.4,10.1,4.4l7.3,1.6c2.1,0.4,3.5,0.8,4.3,1.3
	c0.7,0.5,1.1,1.1,1.1,2C200.9,70.3,200.4,71,199.4,71.5z M212.1,60.9c0-0.1-0.1-0.1-0.2-0.2c-2.1-2.1-5.6-3.7-10.4-4.7l-7.7-1.6
	c-1.7-0.4-2.8-0.8-3.4-1.2c-0.6-0.4-0.9-0.9-0.9-1.5c0-1,0.5-1.8,1.5-2.4c1-0.5,2.4-0.8,4.2-0.8c2.2,0,4.6,0.4,7.1,1.2
	c2.5,0.8,4.9,2,7.3,3.4l2.4-5.8L212.1,60.9L212.1,60.9z M315.6,54.8c1-4.5,3.5-6.7,7.5-6.7c4.1,0,6.4,2.3,7,6.7H315.6z"/>
</svg>
